solid OpenSCAD_Model
  facet normal 1 -0 0
    outer loop
      vertex 111.1 0 260
      vertex 111.1 108.5 0
      vertex 111.1 108.5 260
    endloop
  endfacet
  facet normal 1 0 0
    outer loop
      vertex 111.1 108.5 0
      vertex 111.1 0 260
      vertex 111.1 0 0
    endloop
  endfacet
  facet normal -0 0 1
    outer loop
      vertex 0 108.5 260
      vertex 111.1 0 260
      vertex 111.1 108.5 260
    endloop
  endfacet
  facet normal 0 0 1
    outer loop
      vertex 111.1 0 260
      vertex 0 108.5 260
      vertex 0 0 260
    endloop
  endfacet
  facet normal 0 0 -1
    outer loop
      vertex 0 0 0
      vertex 111.1 108.5 0
      vertex 111.1 0 0
    endloop
  endfacet
  facet normal -0 0 -1
    outer loop
      vertex 111.1 108.5 0
      vertex 0 0 0
      vertex 0 108.5 0
    endloop
  endfacet
  facet normal -1 0 0
    outer loop
      vertex 0 0 0
      vertex 0 108.5 260
      vertex 0 108.5 0
    endloop
  endfacet
  facet normal -1 -0 0
    outer loop
      vertex 0 108.5 260
      vertex 0 0 0
      vertex 0 0 260
    endloop
  endfacet
  facet normal 0 1 -0
    outer loop
      vertex 111.1 108.5 0
      vertex 0 108.5 260
      vertex 111.1 108.5 260
    endloop
  endfacet
  facet normal 0 1 0
    outer loop
      vertex 0 108.5 260
      vertex 111.1 108.5 0
      vertex 0 108.5 0
    endloop
  endfacet
  facet normal 0 -1 0
    outer loop
      vertex 0 0 0
      vertex 111.1 0 260
      vertex 0 0 260
    endloop
  endfacet
  facet normal 0 -1 -0
    outer loop
      vertex 111.1 0 260
      vertex 0 0 0
      vertex 111.1 0 0
    endloop
  endfacet
endsolid OpenSCAD_Model
