solid OpenSCAD_Model
  facet normal 0 -1 0
    outer loop
      vertex 0.5 0.5 13.5
      vertex 1.5 0.5 1.5
      vertex 1.5 0.5 13.5
    endloop
  endfacet
  facet normal 0 -1 -0
    outer loop
      vertex 1.5 0.5 1.5
      vertex 0.5 0.5 0.5
      vertex 109.6 0.5 1.5
    endloop
  endfacet
  facet normal 0 -1 0
    outer loop
      vertex 0.5 0.5 0.5
      vertex 1.5 0.5 1.5
      vertex 0.5 0.5 13.5
    endloop
  endfacet
  facet normal 0 -1 0
    outer loop
      vertex 109.6 0.5 1.5
      vertex 110.6 0.5 13.5
      vertex 109.6 0.5 13.5
    endloop
  endfacet
  facet normal 0 -1 0
    outer loop
      vertex 109.6 0.5 1.5
      vertex 110.6 0.5 0.5
      vertex 110.6 0.5 13.5
    endloop
  endfacet
  facet normal 0 -1 0
    outer loop
      vertex 110.6 0.5 0.5
      vertex 109.6 0.5 1.5
      vertex 0.5 0.5 0.5
    endloop
  endfacet
  facet normal 0 0 -1
    outer loop
      vertex 0.5 0.5 0.5
      vertex 110.6 108 0.5
      vertex 110.6 0.5 0.5
    endloop
  endfacet
  facet normal -0 0 -1
    outer loop
      vertex 110.6 108 0.5
      vertex 0.5 0.5 0.5
      vertex 0.5 108 0.5
    endloop
  endfacet
  facet normal -0 0 1
    outer loop
      vertex 109.6 108 13.5
      vertex 110.6 0.5 13.5
      vertex 110.6 108 13.5
    endloop
  endfacet
  facet normal 0 0 1
    outer loop
      vertex 110.6 0.5 13.5
      vertex 109.6 108 13.5
      vertex 109.6 0.5 13.5
    endloop
  endfacet
  facet normal 0 1 0
    outer loop
      vertex 110.6 108 13.5
      vertex 109.6 108 1.5
      vertex 109.6 108 13.5
    endloop
  endfacet
  facet normal 0 1 0
    outer loop
      vertex 109.6 108 1.5
      vertex 110.6 108 0.5
      vertex 1.5 108 1.5
    endloop
  endfacet
  facet normal 0 1 -0
    outer loop
      vertex 110.6 108 0.5
      vertex 109.6 108 1.5
      vertex 110.6 108 13.5
    endloop
  endfacet
  facet normal 0 1 -0
    outer loop
      vertex 1.5 108 1.5
      vertex 0.5 108 13.5
      vertex 1.5 108 13.5
    endloop
  endfacet
  facet normal 0 1 0
    outer loop
      vertex 1.5 108 1.5
      vertex 0.5 108 0.5
      vertex 0.5 108 13.5
    endloop
  endfacet
  facet normal 0 1 0
    outer loop
      vertex 0.5 108 0.5
      vertex 1.5 108 1.5
      vertex 110.6 108 0.5
    endloop
  endfacet
  facet normal 1 -0 0
    outer loop
      vertex 110.6 0.5 13.5
      vertex 110.6 108 0.5
      vertex 110.6 108 13.5
    endloop
  endfacet
  facet normal 1 0 0
    outer loop
      vertex 110.6 108 0.5
      vertex 110.6 0.5 13.5
      vertex 110.6 0.5 0.5
    endloop
  endfacet
  facet normal -1 0 0
    outer loop
      vertex 109.6 0.5 1.5
      vertex 109.6 108 13.5
      vertex 109.6 108 1.5
    endloop
  endfacet
  facet normal -1 -0 0
    outer loop
      vertex 109.6 108 13.5
      vertex 109.6 0.5 1.5
      vertex 109.6 0.5 13.5
    endloop
  endfacet
  facet normal -0 0 1
    outer loop
      vertex 0.5 108 13.5
      vertex 1.5 0.5 13.5
      vertex 1.5 108 13.5
    endloop
  endfacet
  facet normal 0 0 1
    outer loop
      vertex 1.5 0.5 13.5
      vertex 0.5 108 13.5
      vertex 0.5 0.5 13.5
    endloop
  endfacet
  facet normal 1 -0 0
    outer loop
      vertex 1.5 0.5 13.5
      vertex 1.5 108 1.5
      vertex 1.5 108 13.5
    endloop
  endfacet
  facet normal 1 0 0
    outer loop
      vertex 1.5 108 1.5
      vertex 1.5 0.5 13.5
      vertex 1.5 0.5 1.5
    endloop
  endfacet
  facet normal -1 0 0
    outer loop
      vertex 0.5 0.5 0.5
      vertex 0.5 108 13.5
      vertex 0.5 108 0.5
    endloop
  endfacet
  facet normal -1 -0 0
    outer loop
      vertex 0.5 108 13.5
      vertex 0.5 0.5 0.5
      vertex 0.5 0.5 13.5
    endloop
  endfacet
  facet normal -0 0 1
    outer loop
      vertex 1.5 108 1.5
      vertex 109.6 0.5 1.5
      vertex 109.6 108 1.5
    endloop
  endfacet
  facet normal 0 0 1
    outer loop
      vertex 109.6 0.5 1.5
      vertex 1.5 108 1.5
      vertex 1.5 0.5 1.5
    endloop
  endfacet
endsolid OpenSCAD_Model
