solid OpenSCAD_Model
  facet normal 0 -1 0
    outer loop
      vertex 0 0 43.3333
      vertex 1 0 1
      vertex 1 0 43.3333
    endloop
  endfacet
  facet normal 0 -1 -0
    outer loop
      vertex 1 0 1
      vertex 0 0 0
      vertex 110.1 0 1
    endloop
  endfacet
  facet normal 0 -1 0
    outer loop
      vertex 0 0 0
      vertex 1 0 1
      vertex 0 0 43.3333
    endloop
  endfacet
  facet normal 0 -1 0
    outer loop
      vertex 110.1 0 1
      vertex 111.1 0 43.3333
      vertex 110.1 0 43.3333
    endloop
  endfacet
  facet normal 0 -1 0
    outer loop
      vertex 110.1 0 1
      vertex 111.1 0 0
      vertex 111.1 0 43.3333
    endloop
  endfacet
  facet normal 0 -1 0
    outer loop
      vertex 111.1 0 0
      vertex 110.1 0 1
      vertex 0 0 0
    endloop
  endfacet
  facet normal 0 0 -1
    outer loop
      vertex 0 0 0
      vertex 111.1 108.5 0
      vertex 111.1 0 0
    endloop
  endfacet
  facet normal -0 0 -1
    outer loop
      vertex 111.1 108.5 0
      vertex 0 0 0
      vertex 0 108.5 0
    endloop
  endfacet
  facet normal -0 0 1
    outer loop
      vertex 110.1 108.5 43.3333
      vertex 111.1 0 43.3333
      vertex 111.1 108.5 43.3333
    endloop
  endfacet
  facet normal 0 0 1
    outer loop
      vertex 111.1 0 43.3333
      vertex 110.1 108.5 43.3333
      vertex 110.1 0 43.3333
    endloop
  endfacet
  facet normal 0 1 0
    outer loop
      vertex 111.1 108.5 43.3333
      vertex 110.1 108.5 1
      vertex 110.1 108.5 43.3333
    endloop
  endfacet
  facet normal 0 1 0
    outer loop
      vertex 110.1 108.5 1
      vertex 111.1 108.5 0
      vertex 1 108.5 1
    endloop
  endfacet
  facet normal 0 1 -0
    outer loop
      vertex 111.1 108.5 0
      vertex 110.1 108.5 1
      vertex 111.1 108.5 43.3333
    endloop
  endfacet
  facet normal 0 1 -0
    outer loop
      vertex 1 108.5 1
      vertex 0 108.5 43.3333
      vertex 1 108.5 43.3333
    endloop
  endfacet
  facet normal 0 1 0
    outer loop
      vertex 1 108.5 1
      vertex 0 108.5 0
      vertex 0 108.5 43.3333
    endloop
  endfacet
  facet normal 0 1 0
    outer loop
      vertex 0 108.5 0
      vertex 1 108.5 1
      vertex 111.1 108.5 0
    endloop
  endfacet
  facet normal 1 -0 0
    outer loop
      vertex 111.1 0 43.3333
      vertex 111.1 108.5 0
      vertex 111.1 108.5 43.3333
    endloop
  endfacet
  facet normal 1 0 0
    outer loop
      vertex 111.1 108.5 0
      vertex 111.1 0 43.3333
      vertex 111.1 0 0
    endloop
  endfacet
  facet normal -1 0 0
    outer loop
      vertex 110.1 0 1
      vertex 110.1 108.5 43.3333
      vertex 110.1 108.5 1
    endloop
  endfacet
  facet normal -1 -0 0
    outer loop
      vertex 110.1 108.5 43.3333
      vertex 110.1 0 1
      vertex 110.1 0 43.3333
    endloop
  endfacet
  facet normal -0 0 1
    outer loop
      vertex 0 108.5 43.3333
      vertex 1 0 43.3333
      vertex 1 108.5 43.3333
    endloop
  endfacet
  facet normal 0 0 1
    outer loop
      vertex 1 0 43.3333
      vertex 0 108.5 43.3333
      vertex 0 0 43.3333
    endloop
  endfacet
  facet normal 1 -0 0
    outer loop
      vertex 1 0 43.3333
      vertex 1 108.5 1
      vertex 1 108.5 43.3333
    endloop
  endfacet
  facet normal 1 0 0
    outer loop
      vertex 1 108.5 1
      vertex 1 0 43.3333
      vertex 1 0 1
    endloop
  endfacet
  facet normal -1 0 0
    outer loop
      vertex 0 0 0
      vertex 0 108.5 43.3333
      vertex 0 108.5 0
    endloop
  endfacet
  facet normal -1 -0 0
    outer loop
      vertex 0 108.5 43.3333
      vertex 0 0 0
      vertex 0 0 43.3333
    endloop
  endfacet
  facet normal -0 0 1
    outer loop
      vertex 1 108.5 1
      vertex 110.1 0 1
      vertex 110.1 108.5 1
    endloop
  endfacet
  facet normal 0 0 1
    outer loop
      vertex 110.1 0 1
      vertex 1 108.5 1
      vertex 1 0 1
    endloop
  endfacet
endsolid OpenSCAD_Model
