solid OpenSCAD_Model
  facet normal 1 0 0
    outer loop
      vertex 100 97 100
      vertex 100 6 3
      vertex 100 100 97
    endloop
  endfacet
  facet normal 1 0 -0
    outer loop
      vertex 100 6 3
      vertex 100 97 100
      vertex 100 3 6
    endloop
  endfacet
  facet normal 1 0 0
    outer loop
      vertex 100 103 100
      vertex 100 194 3
      vertex 100 197 6
    endloop
  endfacet
  facet normal 1 0 0
    outer loop
      vertex 100 100 97
      vertex 100 103 100
      vertex 100 100 103
    endloop
  endfacet
  facet normal 1 0 0
    outer loop
      vertex 100 103 100
      vertex 100 100 97
      vertex 100 194 3
    endloop
  endfacet
  facet normal 1 0 0
    outer loop
      vertex 100 100 103
      vertex 100 97 100
      vertex 100 100 97
    endloop
  endfacet
  facet normal 1 0 0
    outer loop
      vertex 100 6 197
      vertex 100 97 100
      vertex 100 100 103
    endloop
  endfacet
  facet normal 1 0 0
    outer loop
      vertex 100 97 100
      vertex 100 6 197
      vertex 100 3 194
    endloop
  endfacet
  facet normal 1 0 0
    outer loop
      vertex 100 200 200
      vertex 100 197 194
      vertex 100 200 0
    endloop
  endfacet
  facet normal 1 0 0
    outer loop
      vertex 100 200 200
      vertex 100 194 197
      vertex 100 197 194
    endloop
  endfacet
  facet normal 1 0 0
    outer loop
      vertex 100 200 200
      vertex 100 6 197
      vertex 100 194 197
    endloop
  endfacet
  facet normal 1 0 0
    outer loop
      vertex 100 3 194
      vertex 100 0 200
      vertex 100 3 6
    endloop
  endfacet
  facet normal 1 0 0
    outer loop
      vertex 100 6 197
      vertex 100 0 200
      vertex 100 3 194
    endloop
  endfacet
  facet normal 1 -0 0
    outer loop
      vertex 100 0 200
      vertex 100 6 197
      vertex 100 200 200
    endloop
  endfacet
  facet normal 1 -0 0
    outer loop
      vertex 100 197 6
      vertex 100 200 0
      vertex 100 197 194
    endloop
  endfacet
  facet normal 1 -0 0
    outer loop
      vertex 100 194 3
      vertex 100 200 0
      vertex 100 197 6
    endloop
  endfacet
  facet normal 1 -0 0
    outer loop
      vertex 100 6 3
      vertex 100 200 0
      vertex 100 194 3
    endloop
  endfacet
  facet normal 1 0 0
    outer loop
      vertex 100 6 3
      vertex 100 0 0
      vertex 100 200 0
    endloop
  endfacet
  facet normal 1 0 0
    outer loop
      vertex 100 3 6
      vertex 100 0 0
      vertex 100 6 3
    endloop
  endfacet
  facet normal 1 0 0
    outer loop
      vertex 100 0 0
      vertex 100 3 6
      vertex 100 0 200
    endloop
  endfacet
  facet normal 1 0 0
    outer loop
      vertex 100 194 197
      vertex 100 103 100
      vertex 100 197 194
    endloop
  endfacet
  facet normal 1 0 -0
    outer loop
      vertex 100 103 100
      vertex 100 194 197
      vertex 100 100 103
    endloop
  endfacet
  facet normal 0 -1 0
    outer loop
      vertex 0 0 200
      vertex 3 0 197
      vertex 100 0 200
    endloop
  endfacet
  facet normal 0 -1 0
    outer loop
      vertex 0 0 200
      vertex 3 0 3
      vertex 3 0 197
    endloop
  endfacet
  facet normal 0 -1 -0
    outer loop
      vertex 3 0 3
      vertex 0 0 0
      vertex 97 0 3
    endloop
  endfacet
  facet normal 0 -1 0
    outer loop
      vertex 0 0 0
      vertex 3 0 3
      vertex 0 0 200
    endloop
  endfacet
  facet normal 0 -1 0
    outer loop
      vertex 97 0 197
      vertex 100 0 200
      vertex 3 0 197
    endloop
  endfacet
  facet normal 0 -1 0
    outer loop
      vertex 97 0 3
      vertex 100 0 200
      vertex 97 0 197
    endloop
  endfacet
  facet normal 0 -1 0
    outer loop
      vertex 97 0 3
      vertex 100 0 0
      vertex 100 0 200
    endloop
  endfacet
  facet normal 0 -1 0
    outer loop
      vertex 100 0 0
      vertex 97 0 3
      vertex 0 0 0
    endloop
  endfacet
  facet normal 0 0 -1
    outer loop
      vertex 3 190.907 0
      vertex 50 104.546 0
      vertex 47.7614 100 0
    endloop
  endfacet
  facet normal 0 0 -1
    outer loop
      vertex 50 104.546 0
      vertex 3 190.907 0
      vertex 4.47716 197 0
    endloop
  endfacet
  facet normal 0 0 -1
    outer loop
      vertex 50 104.546 0
      vertex 97 190.907 0
      vertex 52.2386 100 0
    endloop
  endfacet
  facet normal 0 0 -1
    outer loop
      vertex 47.7614 100 0
      vertex 52.2386 100 0
      vertex 50 95.4536 0
    endloop
  endfacet
  facet normal -0 0 -1
    outer loop
      vertex 97 190.907 0
      vertex 50 104.546 0
      vertex 95.5228 197 0
    endloop
  endfacet
  facet normal 0 0 -1
    outer loop
      vertex 52.2386 100 0
      vertex 47.7614 100 0
      vertex 50 104.546 0
    endloop
  endfacet
  facet normal 0 0 -1
    outer loop
      vertex 3 9.09278 0
      vertex 50 95.4536 0
      vertex 4.47716 3 0
    endloop
  endfacet
  facet normal -0 0 -1
    outer loop
      vertex 50 95.4536 0
      vertex 3 9.09278 0
      vertex 47.7614 100 0
    endloop
  endfacet
  facet normal 0 0 -1
    outer loop
      vertex 100 0 0
      vertex 97 9.09278 0
      vertex 100 200 0
    endloop
  endfacet
  facet normal 0 0 -1
    outer loop
      vertex 100 0 0
      vertex 95.5228 3 0
      vertex 97 9.09278 0
    endloop
  endfacet
  facet normal 0 0 -1
    outer loop
      vertex 100 0 0
      vertex 4.47716 3 0
      vertex 95.5228 3 0
    endloop
  endfacet
  facet normal -0 0 -1
    outer loop
      vertex 3 9.09278 0
      vertex 0 0 0
      vertex 3 190.907 0
    endloop
  endfacet
  facet normal -0 0 -1
    outer loop
      vertex 4.47716 3 0
      vertex 0 0 0
      vertex 3 9.09278 0
    endloop
  endfacet
  facet normal 0 0 -1
    outer loop
      vertex 0 0 0
      vertex 4.47716 3 0
      vertex 100 0 0
    endloop
  endfacet
  facet normal 0 0 -1
    outer loop
      vertex 97 190.907 0
      vertex 100 200 0
      vertex 97 9.09278 0
    endloop
  endfacet
  facet normal 0 0 -1
    outer loop
      vertex 95.5228 197 0
      vertex 100 200 0
      vertex 97 190.907 0
    endloop
  endfacet
  facet normal 0 0 -1
    outer loop
      vertex 4.47716 197 0
      vertex 100 200 0
      vertex 95.5228 197 0
    endloop
  endfacet
  facet normal 0 0 -1
    outer loop
      vertex 4.47716 197 0
      vertex 0 200 0
      vertex 100 200 0
    endloop
  endfacet
  facet normal 0 0 -1
    outer loop
      vertex 3 190.907 0
      vertex 0 200 0
      vertex 4.47716 197 0
    endloop
  endfacet
  facet normal 0 0 -1
    outer loop
      vertex 0 200 0
      vertex 3 190.907 0
      vertex 0 0 0
    endloop
  endfacet
  facet normal 0 0 -1
    outer loop
      vertex 50 95.4536 0
      vertex 97 9.09278 0
      vertex 95.5228 3 0
    endloop
  endfacet
  facet normal 0 0 -1
    outer loop
      vertex 97 9.09278 0
      vertex 50 95.4536 0
      vertex 52.2386 100 0
    endloop
  endfacet
  facet normal 0 1 -0
    outer loop
      vertex 95.5228 3 0
      vertex 4.47716 3 3
      vertex 95.5228 3 3
    endloop
  endfacet
  facet normal 0 1 0
    outer loop
      vertex 4.47716 3 3
      vertex 95.5228 3 0
      vertex 4.47716 3 0
    endloop
  endfacet
  facet normal -1 0 0
    outer loop
      vertex 0 97 100
      vertex 0 6 197
      vertex 0 100 103
    endloop
  endfacet
  facet normal -1 0 -0
    outer loop
      vertex 0 6 197
      vertex 0 97 100
      vertex 0 3 194
    endloop
  endfacet
  facet normal -1 0 0
    outer loop
      vertex 0 103 100
      vertex 0 194 197
      vertex 0 197 194
    endloop
  endfacet
  facet normal -1 0 0
    outer loop
      vertex 0 100 103
      vertex 0 103 100
      vertex 0 100 97
    endloop
  endfacet
  facet normal -1 0 0
    outer loop
      vertex 0 103 100
      vertex 0 100 103
      vertex 0 194 197
    endloop
  endfacet
  facet normal -1 0 0
    outer loop
      vertex 0 100 97
      vertex 0 97 100
      vertex 0 100 103
    endloop
  endfacet
  facet normal -1 0 0
    outer loop
      vertex 0 6 3
      vertex 0 97 100
      vertex 0 100 97
    endloop
  endfacet
  facet normal -1 0 0
    outer loop
      vertex 0 97 100
      vertex 0 6 3
      vertex 0 3 6
    endloop
  endfacet
  facet normal -1 0 0
    outer loop
      vertex 0 200 0
      vertex 0 197 6
      vertex 0 200 200
    endloop
  endfacet
  facet normal -1 0 0
    outer loop
      vertex 0 200 0
      vertex 0 194 3
      vertex 0 197 6
    endloop
  endfacet
  facet normal -1 0 0
    outer loop
      vertex 0 200 0
      vertex 0 6 3
      vertex 0 194 3
    endloop
  endfacet
  facet normal -1 -0 0
    outer loop
      vertex 0 3 6
      vertex 0 0 0
      vertex 0 3 194
    endloop
  endfacet
  facet normal -1 -0 0
    outer loop
      vertex 0 6 3
      vertex 0 0 0
      vertex 0 3 6
    endloop
  endfacet
  facet normal -1 0 0
    outer loop
      vertex 0 0 0
      vertex 0 6 3
      vertex 0 200 0
    endloop
  endfacet
  facet normal -1 0 0
    outer loop
      vertex 0 197 194
      vertex 0 200 200
      vertex 0 197 6
    endloop
  endfacet
  facet normal -1 0 0
    outer loop
      vertex 0 194 197
      vertex 0 200 200
      vertex 0 197 194
    endloop
  endfacet
  facet normal -1 0 0
    outer loop
      vertex 0 6 197
      vertex 0 200 200
      vertex 0 194 197
    endloop
  endfacet
  facet normal -1 0 0
    outer loop
      vertex 0 6 197
      vertex 0 0 200
      vertex 0 200 200
    endloop
  endfacet
  facet normal -1 0 0
    outer loop
      vertex 0 3 194
      vertex 0 0 200
      vertex 0 6 197
    endloop
  endfacet
  facet normal -1 0 0
    outer loop
      vertex 0 0 200
      vertex 0 3 194
      vertex 0 0 0
    endloop
  endfacet
  facet normal -1 0 0
    outer loop
      vertex 0 194 3
      vertex 0 103 100
      vertex 0 197 6
    endloop
  endfacet
  facet normal -1 0 -0
    outer loop
      vertex 0 103 100
      vertex 0 194 3
      vertex 0 100 97
    endloop
  endfacet
  facet normal 0 0 1
    outer loop
      vertex 3 9.09278 3
      vertex 50 95.4536 3
      vertex 47.7614 100 3
    endloop
  endfacet
  facet normal 0 0 1
    outer loop
      vertex 50 95.4536 3
      vertex 3 9.09278 3
      vertex 4.47716 3 3
    endloop
  endfacet
  facet normal 0 0 1
    outer loop
      vertex 97 190.907 3
      vertex 100 194 3
      vertex 97 194 3
    endloop
  endfacet
  facet normal 0 0 1
    outer loop
      vertex 100 194 3
      vertex 97 190.907 3
      vertex 100 6 3
    endloop
  endfacet
  facet normal -0 0 1
    outer loop
      vertex 97 9.09278 3
      vertex 100 6 3
      vertex 97 190.907 3
    endloop
  endfacet
  facet normal 0 0 1
    outer loop
      vertex 97 9.09278 3
      vertex 97 6 3
      vertex 100 6 3
    endloop
  endfacet
  facet normal 0 0 1
    outer loop
      vertex 95.5228 3 3
      vertex 97 6 3
      vertex 97 9.09278 3
    endloop
  endfacet
  facet normal 0 0 1
    outer loop
      vertex 97 6 3
      vertex 95.5228 3 3
      vertex 97 0 3
    endloop
  endfacet
  facet normal -0 0 1
    outer loop
      vertex 50 95.4536 3
      vertex 97 9.09278 3
      vertex 52.2386 100 3
    endloop
  endfacet
  facet normal 0 0 1
    outer loop
      vertex 47.7614 100 3
      vertex 52.2386 100 3
      vertex 50 104.546 3
    endloop
  endfacet
  facet normal 0 0 1
    outer loop
      vertex 97 9.09278 3
      vertex 50 95.4536 3
      vertex 95.5228 3 3
    endloop
  endfacet
  facet normal 0 0 1
    outer loop
      vertex 52.2386 100 3
      vertex 47.7614 100 3
      vertex 50 95.4536 3
    endloop
  endfacet
  facet normal -0 0 1
    outer loop
      vertex 3 190.907 3
      vertex 50 104.546 3
      vertex 4.47716 197 3
    endloop
  endfacet
  facet normal 0 0 1
    outer loop
      vertex 3 194 3
      vertex 4.47716 197 3
      vertex 3 197 3
    endloop
  endfacet
  facet normal 0 0 1
    outer loop
      vertex 3 190.907 3
      vertex 4.47716 197 3
      vertex 3 194 3
    endloop
  endfacet
  facet normal 0 0 1
    outer loop
      vertex 50 104.546 3
      vertex 3 190.907 3
      vertex 47.7614 100 3
    endloop
  endfacet
  facet normal -0 0 1
    outer loop
      vertex 0 194 3
      vertex 3 190.907 3
      vertex 3 194 3
    endloop
  endfacet
  facet normal 0 0 1
    outer loop
      vertex 3 190.907 3
      vertex 0 194 3
      vertex 3 9.09278 3
    endloop
  endfacet
  facet normal 0 0 1
    outer loop
      vertex 0 6 3
      vertex 3 9.09278 3
      vertex 0 194 3
    endloop
  endfacet
  facet normal 0 0 1
    outer loop
      vertex 3 9.09278 3
      vertex 0 6 3
      vertex 3 6 3
    endloop
  endfacet
  facet normal -0 0 1
    outer loop
      vertex 95.5228 197 3
      vertex 97 194 3
      vertex 97 197 3
    endloop
  endfacet
  facet normal 0 0 1
    outer loop
      vertex 97 194 3
      vertex 95.5228 197 3
      vertex 97 190.907 3
    endloop
  endfacet
  facet normal 0 0 1
    outer loop
      vertex 50 104.546 3
      vertex 97 190.907 3
      vertex 95.5228 197 3
    endloop
  endfacet
  facet normal 0 0 1
    outer loop
      vertex 97 190.907 3
      vertex 50 104.546 3
      vertex 52.2386 100 3
    endloop
  endfacet
  facet normal -0 0 1
    outer loop
      vertex 4.47716 3 3
      vertex 97 0 3
      vertex 95.5228 3 3
    endloop
  endfacet
  facet normal -0 0 1
    outer loop
      vertex 3 6 3
      vertex 4.47716 3 3
      vertex 3 9.09278 3
    endloop
  endfacet
  facet normal 0 0 1
    outer loop
      vertex 4.47716 3 3
      vertex 3 0 3
      vertex 97 0 3
    endloop
  endfacet
  facet normal 0 0 1
    outer loop
      vertex 3 0 3
      vertex 4.47716 3 3
      vertex 3 6 3
    endloop
  endfacet
  facet normal -0 0 1
    outer loop
      vertex 4.47716 200 3
      vertex 95.5228 197 3
      vertex 95.5228 200 3
    endloop
  endfacet
  facet normal 0 0 1
    outer loop
      vertex 95.5228 197 3
      vertex 4.47716 200 3
      vertex 4.47716 197 3
    endloop
  endfacet
  facet normal 0 1 0
    outer loop
      vertex 50 200 95.4536
      vertex 3 200 9.09278
      vertex 47.7614 200 100
    endloop
  endfacet
  facet normal -0 1 0
    outer loop
      vertex 3 200 9.09278
      vertex 50 200 95.4536
      vertex 4.47716 200 3
    endloop
  endfacet
  facet normal 0 1 0
    outer loop
      vertex 50 200 104.546
      vertex 3 200 190.907
      vertex 4.47716 200 197
    endloop
  endfacet
  facet normal 0 1 0
    outer loop
      vertex 47.7614 200 100
      vertex 50 200 104.546
      vertex 52.2386 200 100
    endloop
  endfacet
  facet normal 0 1 0
    outer loop
      vertex 50 200 104.546
      vertex 47.7614 200 100
      vertex 3 200 190.907
    endloop
  endfacet
  facet normal 0 1 0
    outer loop
      vertex 52.2386 200 100
      vertex 50 200 95.4536
      vertex 47.7614 200 100
    endloop
  endfacet
  facet normal 0 1 0
    outer loop
      vertex 97 200 9.09278
      vertex 50 200 95.4536
      vertex 52.2386 200 100
    endloop
  endfacet
  facet normal 0 1 0
    outer loop
      vertex 50 200 95.4536
      vertex 97 200 9.09278
      vertex 95.5228 200 3
    endloop
  endfacet
  facet normal 0 1 0
    outer loop
      vertex 100 200 200
      vertex 95.5228 200 197
      vertex 0 200 200
    endloop
  endfacet
  facet normal 0 1 0
    outer loop
      vertex 100 200 200
      vertex 97 200 190.907
      vertex 95.5228 200 197
    endloop
  endfacet
  facet normal 0 1 0
    outer loop
      vertex 100 200 200
      vertex 97 200 9.09278
      vertex 97 200 190.907
    endloop
  endfacet
  facet normal 0 1 0
    outer loop
      vertex 95.5228 200 3
      vertex 100 200 0
      vertex 4.47716 200 3
    endloop
  endfacet
  facet normal 0 1 0
    outer loop
      vertex 97 200 9.09278
      vertex 100 200 0
      vertex 95.5228 200 3
    endloop
  endfacet
  facet normal 0 1 -0
    outer loop
      vertex 100 200 0
      vertex 97 200 9.09278
      vertex 100 200 200
    endloop
  endfacet
  facet normal 0 1 -0
    outer loop
      vertex 4.47716 200 197
      vertex 0 200 200
      vertex 95.5228 200 197
    endloop
  endfacet
  facet normal 0 1 -0
    outer loop
      vertex 3 200 190.907
      vertex 0 200 200
      vertex 4.47716 200 197
    endloop
  endfacet
  facet normal 0 1 -0
    outer loop
      vertex 3 200 9.09278
      vertex 0 200 200
      vertex 3 200 190.907
    endloop
  endfacet
  facet normal 0 1 0
    outer loop
      vertex 3 200 9.09278
      vertex 0 200 0
      vertex 0 200 200
    endloop
  endfacet
  facet normal 0 1 0
    outer loop
      vertex 4.47716 200 3
      vertex 0 200 0
      vertex 3 200 9.09278
    endloop
  endfacet
  facet normal 0 1 0
    outer loop
      vertex 0 200 0
      vertex 4.47716 200 3
      vertex 100 200 0
    endloop
  endfacet
  facet normal 0 1 0
    outer loop
      vertex 97 200 190.907
      vertex 50 200 104.546
      vertex 95.5228 200 197
    endloop
  endfacet
  facet normal -0 1 0
    outer loop
      vertex 50 200 104.546
      vertex 97 200 190.907
      vertex 52.2386 200 100
    endloop
  endfacet
  facet normal -1 0 0
    outer loop
      vertex 97 194 3
      vertex 97 197 6
      vertex 97 197 3
    endloop
  endfacet
  facet normal -1 0 0
    outer loop
      vertex 97 194 3
      vertex 97 103 100
      vertex 97 197 6
    endloop
  endfacet
  facet normal -1 0 -0
    outer loop
      vertex 97 103 100
      vertex 97 194 3
      vertex 97 100 97
    endloop
  endfacet
  facet normal -1 0 0
    outer loop
      vertex 97 197 194
      vertex 97 194 197
      vertex 97 197 200
    endloop
  endfacet
  facet normal -1 0 0
    outer loop
      vertex 97 103 100
      vertex 97 194 197
      vertex 97 197 194
    endloop
  endfacet
  facet normal -1 0 0
    outer loop
      vertex 97 100 103
      vertex 97 103 100
      vertex 97 100 97
    endloop
  endfacet
  facet normal -1 0 0
    outer loop
      vertex 97 103 100
      vertex 97 100 103
      vertex 97 194 197
    endloop
  endfacet
  facet normal -1 0 0
    outer loop
      vertex 97 100 97
      vertex 97 97 100
      vertex 97 100 103
    endloop
  endfacet
  facet normal -1 0 0
    outer loop
      vertex 97 6 3
      vertex 97 97 100
      vertex 97 100 97
    endloop
  endfacet
  facet normal -1 0 0
    outer loop
      vertex 97 6 3
      vertex 97 3 6
      vertex 97 97 100
    endloop
  endfacet
  facet normal -1 0 0
    outer loop
      vertex 97 0 197
      vertex 97 3 194
      vertex 97 3 6
    endloop
  endfacet
  facet normal -1 0 0
    outer loop
      vertex 97 0 3
      vertex 97 3 6
      vertex 97 6 3
    endloop
  endfacet
  facet normal -1 0 0
    outer loop
      vertex 97 0 197
      vertex 97 3 6
      vertex 97 0 3
    endloop
  endfacet
  facet normal -1 0 0
    outer loop
      vertex 97 3 194
      vertex 97 0 197
      vertex 97 3 197
    endloop
  endfacet
  facet normal -1 0 0
    outer loop
      vertex 97 6 197
      vertex 97 197 200
      vertex 97 194 197
    endloop
  endfacet
  facet normal -1 0 0
    outer loop
      vertex 97 3 197
      vertex 97 6 197
      vertex 97 3 194
    endloop
  endfacet
  facet normal -1 0 0
    outer loop
      vertex 97 3 200
      vertex 97 6 197
      vertex 97 3 197
    endloop
  endfacet
  facet normal -1 0 0
    outer loop
      vertex 97 6 197
      vertex 97 3 200
      vertex 97 197 200
    endloop
  endfacet
  facet normal -1 0 0
    outer loop
      vertex 97 97 100
      vertex 97 6 197
      vertex 97 100 103
    endloop
  endfacet
  facet normal -1 0 -0
    outer loop
      vertex 97 6 197
      vertex 97 97 100
      vertex 97 3 194
    endloop
  endfacet
  facet normal -1 0 0
    outer loop
      vertex 97 9.09278 0
      vertex 97 190.907 3
      vertex 97 190.907 0
    endloop
  endfacet
  facet normal -1 -0 0
    outer loop
      vertex 97 190.907 3
      vertex 97 9.09278 0
      vertex 97 9.09278 3
    endloop
  endfacet
  facet normal -1 0 0
    outer loop
      vertex 97 197 9.09278
      vertex 97 200 190.907
      vertex 97 200 9.09278
    endloop
  endfacet
  facet normal -1 -0 0
    outer loop
      vertex 97 200 190.907
      vertex 97 197 9.09278
      vertex 97 197 190.907
    endloop
  endfacet
  facet normal 0 -1 0
    outer loop
      vertex 50 197 95.4536
      vertex 97 197 9.09278
      vertex 52.2386 197 100
    endloop
  endfacet
  facet normal 0 -1 0
    outer loop
      vertex 95.5228 197 3
      vertex 97 197 9.09278
      vertex 50 197 95.4536
    endloop
  endfacet
  facet normal 0 -1 -0
    outer loop
      vertex 97 197 9.09278
      vertex 95.5228 197 3
      vertex 97 197 6
    endloop
  endfacet
  facet normal 0 -1 -0
    outer loop
      vertex 97 197 6
      vertex 95.5228 197 3
      vertex 97 197 3
    endloop
  endfacet
  facet normal 0 -1 0
    outer loop
      vertex 0 197 194
      vertex 3 197 190.907
      vertex 3 197 194
    endloop
  endfacet
  facet normal 0 -1 0
    outer loop
      vertex 0 197 194
      vertex 3 197 9.09278
      vertex 3 197 190.907
    endloop
  endfacet
  facet normal -0 -1 0
    outer loop
      vertex 3 197 9.09278
      vertex 0 197 194
      vertex 0 197 6
    endloop
  endfacet
  facet normal 0 -1 0
    outer loop
      vertex 3 197 200
      vertex 4.47716 197 197
      vertex 97 197 200
    endloop
  endfacet
  facet normal 0 -1 0
    outer loop
      vertex 3 197 194
      vertex 4.47716 197 197
      vertex 3 197 200
    endloop
  endfacet
  facet normal 0 -1 0
    outer loop
      vertex 3 197 190.907
      vertex 4.47716 197 197
      vertex 3 197 194
    endloop
  endfacet
  facet normal 0 -1 0
    outer loop
      vertex 3 197 190.907
      vertex 50 197 104.546
      vertex 4.47716 197 197
    endloop
  endfacet
  facet normal -0 -1 0
    outer loop
      vertex 50 197 104.546
      vertex 3 197 190.907
      vertex 47.7614 197 100
    endloop
  endfacet
  facet normal 0 -1 0
    outer loop
      vertex 95.5228 197 197
      vertex 97 197 200
      vertex 4.47716 197 197
    endloop
  endfacet
  facet normal 0 -1 0
    outer loop
      vertex 95.5228 197 197
      vertex 97 197 194
      vertex 97 197 200
    endloop
  endfacet
  facet normal 0 -1 0
    outer loop
      vertex 97 197 194
      vertex 97 197 190.907
      vertex 100 197 194
    endloop
  endfacet
  facet normal 0 -1 0
    outer loop
      vertex 95.5228 197 197
      vertex 97 197 190.907
      vertex 97 197 194
    endloop
  endfacet
  facet normal 0 -1 0
    outer loop
      vertex 50 197 104.546
      vertex 97 197 190.907
      vertex 95.5228 197 197
    endloop
  endfacet
  facet normal 0 -1 0
    outer loop
      vertex 52.2386 197 100
      vertex 50 197 104.546
      vertex 47.7614 197 100
    endloop
  endfacet
  facet normal 0 -1 0
    outer loop
      vertex 50 197 104.546
      vertex 52.2386 197 100
      vertex 97 197 190.907
    endloop
  endfacet
  facet normal 0 -1 0
    outer loop
      vertex 47.7614 197 100
      vertex 50 197 95.4536
      vertex 52.2386 197 100
    endloop
  endfacet
  facet normal 0 -1 0
    outer loop
      vertex 3 197 9.09278
      vertex 50 197 95.4536
      vertex 47.7614 197 100
    endloop
  endfacet
  facet normal 0 -1 0
    outer loop
      vertex 3 197 6
      vertex 3 197 9.09278
      vertex 0 197 6
    endloop
  endfacet
  facet normal 0 -1 0
    outer loop
      vertex 4.47716 197 3
      vertex 3 197 9.09278
      vertex 3 197 6
    endloop
  endfacet
  facet normal 0 -1 0
    outer loop
      vertex 4.47716 197 3
      vertex 3 197 6
      vertex 3 197 3
    endloop
  endfacet
  facet normal 0 -1 0
    outer loop
      vertex 3 197 9.09278
      vertex 4.47716 197 3
      vertex 50 197 95.4536
    endloop
  endfacet
  facet normal 0 -1 0
    outer loop
      vertex 97 197 9.09278
      vertex 100 197 194
      vertex 97 197 190.907
    endloop
  endfacet
  facet normal 0 -1 0
    outer loop
      vertex 100 197 6
      vertex 97 197 9.09278
      vertex 97 197 6
    endloop
  endfacet
  facet normal 0 -1 0
    outer loop
      vertex 97 197 9.09278
      vertex 100 197 6
      vertex 100 197 194
    endloop
  endfacet
  facet normal 0 -1 0
    outer loop
      vertex 4.47716 197 0
      vertex 95.5228 197 3
      vertex 4.47716 197 3
    endloop
  endfacet
  facet normal 0 -1 -0
    outer loop
      vertex 95.5228 197 3
      vertex 4.47716 197 0
      vertex 95.5228 197 0
    endloop
  endfacet
  facet normal 1 0 0
    outer loop
      vertex 3 197 200
      vertex 3 194 197
      vertex 3 197 194
    endloop
  endfacet
  facet normal 1 0 0
    outer loop
      vertex 3 197 200
      vertex 3 6 197
      vertex 3 194 197
    endloop
  endfacet
  facet normal 1 0 -0
    outer loop
      vertex 3 6 197
      vertex 3 197 200
      vertex 3 3 200
    endloop
  endfacet
  facet normal 1 0 0
    outer loop
      vertex 3 194 197
      vertex 3 103 100
      vertex 3 197 194
    endloop
  endfacet
  facet normal 1 0 -0
    outer loop
      vertex 3 103 100
      vertex 3 194 197
      vertex 3 100 103
    endloop
  endfacet
  facet normal 1 0 0
    outer loop
      vertex 3 197 6
      vertex 3 194 3
      vertex 3 197 3
    endloop
  endfacet
  facet normal 1 0 0
    outer loop
      vertex 3 103 100
      vertex 3 194 3
      vertex 3 197 6
    endloop
  endfacet
  facet normal 1 0 0
    outer loop
      vertex 3 100 97
      vertex 3 103 100
      vertex 3 100 103
    endloop
  endfacet
  facet normal 1 0 0
    outer loop
      vertex 3 103 100
      vertex 3 100 97
      vertex 3 194 3
    endloop
  endfacet
  facet normal 1 0 0
    outer loop
      vertex 3 100 103
      vertex 3 97 100
      vertex 3 100 97
    endloop
  endfacet
  facet normal 1 0 0
    outer loop
      vertex 3 6 197
      vertex 3 97 100
      vertex 3 100 103
    endloop
  endfacet
  facet normal 1 0 0
    outer loop
      vertex 3 3 197
      vertex 3 6 197
      vertex 3 3 200
    endloop
  endfacet
  facet normal 1 0 0
    outer loop
      vertex 3 3 194
      vertex 3 6 197
      vertex 3 3 197
    endloop
  endfacet
  facet normal 1 0 0
    outer loop
      vertex 3 6 197
      vertex 3 3 194
      vertex 3 97 100
    endloop
  endfacet
  facet normal 1 -0 0
    outer loop
      vertex 3 0 197
      vertex 3 3 194
      vertex 3 3 197
    endloop
  endfacet
  facet normal 1 0 0
    outer loop
      vertex 3 3 194
      vertex 3 0 197
      vertex 3 3 6
    endloop
  endfacet
  facet normal 1 0 0
    outer loop
      vertex 3 97 100
      vertex 3 6 3
      vertex 3 100 97
    endloop
  endfacet
  facet normal 1 -0 0
    outer loop
      vertex 3 3 6
      vertex 3 6 3
      vertex 3 97 100
    endloop
  endfacet
  facet normal 1 0 0
    outer loop
      vertex 3 3 6
      vertex 3 0 3
      vertex 3 6 3
    endloop
  endfacet
  facet normal 1 0 0
    outer loop
      vertex 3 0 3
      vertex 3 3 6
      vertex 3 0 197
    endloop
  endfacet
  facet normal 1 -0 0
    outer loop
      vertex 3 197 190.907
      vertex 3 200 9.09278
      vertex 3 200 190.907
    endloop
  endfacet
  facet normal 1 0 0
    outer loop
      vertex 3 200 9.09278
      vertex 3 197 190.907
      vertex 3 197 9.09278
    endloop
  endfacet
  facet normal 1 -0 0
    outer loop
      vertex 3 9.09278 3
      vertex 3 190.907 0
      vertex 3 190.907 3
    endloop
  endfacet
  facet normal 1 0 0
    outer loop
      vertex 3 190.907 0
      vertex 3 9.09278 3
      vertex 3 9.09278 0
    endloop
  endfacet
  facet normal 0.897144 0.441739 0
    outer loop
      vertex 50 104.546 3
      vertex 4.47716 197 0
      vertex 4.47716 197 3
    endloop
  endfacet
  facet normal 0.897144 0.441739 0
    outer loop
      vertex 4.47716 197 0
      vertex 50 104.546 3
      vertex 50 104.546 0
    endloop
  endfacet
  facet normal 0.897143 0.44174 0
    outer loop
      vertex 97 9.09278 3
      vertex 52.2386 100 0
      vertex 52.2386 100 3
    endloop
  endfacet
  facet normal 0.897143 0.44174 0
    outer loop
      vertex 52.2386 100 0
      vertex 97 9.09278 3
      vertex 97 9.09278 0
    endloop
  endfacet
  facet normal -0.897143 -0.441741 0
    outer loop
      vertex 47.7614 100 0
      vertex 3 190.907 3
      vertex 3 190.907 0
    endloop
  endfacet
  facet normal -0.897143 -0.441741 0
    outer loop
      vertex 3 190.907 3
      vertex 47.7614 100 0
      vertex 47.7614 100 3
    endloop
  endfacet
  facet normal -0.897143 -0.44174 0
    outer loop
      vertex 95.5228 3 0
      vertex 50 95.4536 3
      vertex 50 95.4536 0
    endloop
  endfacet
  facet normal -0.897143 -0.44174 0
    outer loop
      vertex 50 95.4536 3
      vertex 95.5228 3 0
      vertex 95.5228 3 3
    endloop
  endfacet
  facet normal 0.897143 -0.441741 0
    outer loop
      vertex 52.2386 100 3
      vertex 97 190.907 0
      vertex 97 190.907 3
    endloop
  endfacet
  facet normal 0.897143 -0.441741 0
    outer loop
      vertex 97 190.907 0
      vertex 52.2386 100 3
      vertex 52.2386 100 0
    endloop
  endfacet
  facet normal 0.897143 -0.44174 0
    outer loop
      vertex 4.47716 3 3
      vertex 50 95.4536 0
      vertex 50 95.4536 3
    endloop
  endfacet
  facet normal 0.897143 -0.44174 0
    outer loop
      vertex 50 95.4536 0
      vertex 4.47716 3 3
      vertex 4.47716 3 0
    endloop
  endfacet
  facet normal -0.897144 0.441739 0
    outer loop
      vertex 50 104.546 0
      vertex 95.5228 197 3
      vertex 95.5228 197 0
    endloop
  endfacet
  facet normal -0.897144 0.441739 0
    outer loop
      vertex 95.5228 197 3
      vertex 50 104.546 0
      vertex 50 104.546 3
    endloop
  endfacet
  facet normal -0.897143 0.44174 0
    outer loop
      vertex 3 9.09278 0
      vertex 47.7614 100 3
      vertex 47.7614 100 0
    endloop
  endfacet
  facet normal -0.897143 0.44174 0
    outer loop
      vertex 47.7614 100 3
      vertex 3 9.09278 0
      vertex 3 9.09278 3
    endloop
  endfacet
  facet normal 0 0 1
    outer loop
      vertex 100 200 200
      vertex 97 197 200
      vertex 100 0 200
    endloop
  endfacet
  facet normal 0 0 1
    outer loop
      vertex 100 200 200
      vertex 3 197 200
      vertex 97 197 200
    endloop
  endfacet
  facet normal 0 0 1
    outer loop
      vertex 3 197 200
      vertex 0 200 200
      vertex 3 3 200
    endloop
  endfacet
  facet normal -0 0 1
    outer loop
      vertex 0 200 200
      vertex 3 197 200
      vertex 100 200 200
    endloop
  endfacet
  facet normal -0 0 1
    outer loop
      vertex 97 3 200
      vertex 100 0 200
      vertex 97 197 200
    endloop
  endfacet
  facet normal -0 0 1
    outer loop
      vertex 3 3 200
      vertex 100 0 200
      vertex 97 3 200
    endloop
  endfacet
  facet normal 0 0 1
    outer loop
      vertex 3 3 200
      vertex 0 0 200
      vertex 100 0 200
    endloop
  endfacet
  facet normal 0 0 1
    outer loop
      vertex 0 0 200
      vertex 3 3 200
      vertex 0 200 200
    endloop
  endfacet
  facet normal 0 1 -0
    outer loop
      vertex 100 3 6
      vertex 97 3 194
      vertex 100 3 194
    endloop
  endfacet
  facet normal 0 1 0
    outer loop
      vertex 97 3 194
      vertex 100 3 6
      vertex 97 3 6
    endloop
  endfacet
  facet normal 0 1 -0
    outer loop
      vertex 3 3 6
      vertex 0 3 194
      vertex 3 3 194
    endloop
  endfacet
  facet normal 0 1 0
    outer loop
      vertex 0 3 194
      vertex 3 3 6
      vertex 0 3 6
    endloop
  endfacet
  facet normal 0 0 -1
    outer loop
      vertex 3 0 197
      vertex 97 3 197
      vertex 97 0 197
    endloop
  endfacet
  facet normal -0 0 -1
    outer loop
      vertex 97 3 197
      vertex 3 0 197
      vertex 3 3 197
    endloop
  endfacet
  facet normal 0 1 -0
    outer loop
      vertex 97 3 197
      vertex 3 3 200
      vertex 97 3 200
    endloop
  endfacet
  facet normal 0 1 0
    outer loop
      vertex 3 3 200
      vertex 97 3 197
      vertex 3 3 197
    endloop
  endfacet
  facet normal 0 0 -1
    outer loop
      vertex 4.47716 197 197
      vertex 95.5228 200 197
      vertex 95.5228 197 197
    endloop
  endfacet
  facet normal -0 0 -1
    outer loop
      vertex 95.5228 200 197
      vertex 4.47716 197 197
      vertex 4.47716 200 197
    endloop
  endfacet
  facet normal 0 0 -1
    outer loop
      vertex 97 6 197
      vertex 100 194 197
      vertex 100 6 197
    endloop
  endfacet
  facet normal -0 0 -1
    outer loop
      vertex 100 194 197
      vertex 97 6 197
      vertex 97 194 197
    endloop
  endfacet
  facet normal 0 0 -1
    outer loop
      vertex 0 6 197
      vertex 3 194 197
      vertex 3 6 197
    endloop
  endfacet
  facet normal -0 0 -1
    outer loop
      vertex 3 194 197
      vertex 0 6 197
      vertex 0 194 197
    endloop
  endfacet
  facet normal 0 0.707107 -0.707107
    outer loop
      vertex 3 103 100
      vertex 0 197 194
      vertex 3 197 194
    endloop
  endfacet
  facet normal 0 0.707107 -0.707107
    outer loop
      vertex 0 197 194
      vertex 3 103 100
      vertex 0 103 100
    endloop
  endfacet
  facet normal 0 0.707107 -0.707107
    outer loop
      vertex 3 6 3
      vertex 0 100 97
      vertex 3 100 97
    endloop
  endfacet
  facet normal 0 0.707107 -0.707107
    outer loop
      vertex 0 100 97
      vertex 3 6 3
      vertex 0 6 3
    endloop
  endfacet
  facet normal 0 -0.707107 0.707107
    outer loop
      vertex 0 100 103
      vertex 3 194 197
      vertex 0 194 197
    endloop
  endfacet
  facet normal 0 -0.707107 0.707107
    outer loop
      vertex 3 194 197
      vertex 0 100 103
      vertex 3 100 103
    endloop
  endfacet
  facet normal 0 -0.707107 0.707107
    outer loop
      vertex 0 3 6
      vertex 3 97 100
      vertex 0 97 100
    endloop
  endfacet
  facet normal 0 -0.707107 0.707107
    outer loop
      vertex 3 97 100
      vertex 0 3 6
      vertex 3 3 6
    endloop
  endfacet
  facet normal 0 -0.707107 -0.707107
    outer loop
      vertex 0 97 100
      vertex 3 3 194
      vertex 0 3 194
    endloop
  endfacet
  facet normal 0 -0.707107 -0.707107
    outer loop
      vertex 3 3 194
      vertex 0 97 100
      vertex 3 97 100
    endloop
  endfacet
  facet normal 0 -0.707107 -0.707107
    outer loop
      vertex 0 194 3
      vertex 3 100 97
      vertex 0 100 97
    endloop
  endfacet
  facet normal 0 -0.707107 -0.707107
    outer loop
      vertex 3 100 97
      vertex 0 194 3
      vertex 3 194 3
    endloop
  endfacet
  facet normal 0 0.707107 0.707107
    outer loop
      vertex 3 197 6
      vertex 0 103 100
      vertex 3 103 100
    endloop
  endfacet
  facet normal 0 0.707107 0.707107
    outer loop
      vertex 0 103 100
      vertex 3 197 6
      vertex 0 197 6
    endloop
  endfacet
  facet normal 0 0.707107 0.707107
    outer loop
      vertex 3 100 103
      vertex 0 6 197
      vertex 3 6 197
    endloop
  endfacet
  facet normal 0 0.707107 0.707107
    outer loop
      vertex 0 6 197
      vertex 3 100 103
      vertex 0 100 103
    endloop
  endfacet
  facet normal 0 0.707107 -0.707107
    outer loop
      vertex 100 103 100
      vertex 97 197 194
      vertex 100 197 194
    endloop
  endfacet
  facet normal 0 0.707107 -0.707107
    outer loop
      vertex 97 197 194
      vertex 100 103 100
      vertex 97 103 100
    endloop
  endfacet
  facet normal 0 0.707107 -0.707107
    outer loop
      vertex 100 6 3
      vertex 97 100 97
      vertex 100 100 97
    endloop
  endfacet
  facet normal 0 0.707107 -0.707107
    outer loop
      vertex 97 100 97
      vertex 100 6 3
      vertex 97 6 3
    endloop
  endfacet
  facet normal 0 -0.707107 0.707107
    outer loop
      vertex 97 3 6
      vertex 100 97 100
      vertex 97 97 100
    endloop
  endfacet
  facet normal 0 -0.707107 0.707107
    outer loop
      vertex 100 97 100
      vertex 97 3 6
      vertex 100 3 6
    endloop
  endfacet
  facet normal 0 -0.707107 0.707107
    outer loop
      vertex 97 100 103
      vertex 100 194 197
      vertex 97 194 197
    endloop
  endfacet
  facet normal 0 -0.707107 0.707107
    outer loop
      vertex 100 194 197
      vertex 97 100 103
      vertex 100 100 103
    endloop
  endfacet
  facet normal 0 -0.707107 -0.707107
    outer loop
      vertex 97 194 3
      vertex 100 100 97
      vertex 97 100 97
    endloop
  endfacet
  facet normal 0 -0.707107 -0.707107
    outer loop
      vertex 100 100 97
      vertex 97 194 3
      vertex 100 194 3
    endloop
  endfacet
  facet normal 0 -0.707107 -0.707107
    outer loop
      vertex 97 97 100
      vertex 100 3 194
      vertex 97 3 194
    endloop
  endfacet
  facet normal 0 -0.707107 -0.707107
    outer loop
      vertex 100 3 194
      vertex 97 97 100
      vertex 100 97 100
    endloop
  endfacet
  facet normal 0 0.707107 0.707107
    outer loop
      vertex 100 197 6
      vertex 97 103 100
      vertex 100 103 100
    endloop
  endfacet
  facet normal 0 0.707107 0.707107
    outer loop
      vertex 97 103 100
      vertex 100 197 6
      vertex 97 197 6
    endloop
  endfacet
  facet normal 0 0.707107 0.707107
    outer loop
      vertex 100 100 103
      vertex 97 6 197
      vertex 100 6 197
    endloop
  endfacet
  facet normal 0 0.707107 0.707107
    outer loop
      vertex 97 6 197
      vertex 100 100 103
      vertex 97 100 103
    endloop
  endfacet
  facet normal -0.897143 0 -0.44174
    outer loop
      vertex 95.5228 197 3
      vertex 50 200 95.4536
      vertex 95.5228 200 3
    endloop
  endfacet
  facet normal -0.897143 -0 -0.44174
    outer loop
      vertex 50 200 95.4536
      vertex 95.5228 197 3
      vertex 50 197 95.4536
    endloop
  endfacet
  facet normal -0.897143 0 -0.441741
    outer loop
      vertex 47.7614 197 100
      vertex 3 200 190.907
      vertex 47.7614 200 100
    endloop
  endfacet
  facet normal -0.897143 -0 -0.441741
    outer loop
      vertex 3 200 190.907
      vertex 47.7614 197 100
      vertex 3 197 190.907
    endloop
  endfacet
  facet normal 0.897143 -0 0.44174
    outer loop
      vertex 52.2386 197 100
      vertex 97 200 9.09278
      vertex 52.2386 200 100
    endloop
  endfacet
  facet normal 0.897143 0 0.44174
    outer loop
      vertex 97 200 9.09278
      vertex 52.2386 197 100
      vertex 97 197 9.09278
    endloop
  endfacet
  facet normal 0.897144 -0 0.441739
    outer loop
      vertex 4.47716 197 197
      vertex 50 200 104.546
      vertex 4.47716 200 197
    endloop
  endfacet
  facet normal 0.897144 0 0.441739
    outer loop
      vertex 50 200 104.546
      vertex 4.47716 197 197
      vertex 50 197 104.546
    endloop
  endfacet
  facet normal 0.897143 0 -0.44174
    outer loop
      vertex 50 197 95.4536
      vertex 4.47716 200 3
      vertex 50 200 95.4536
    endloop
  endfacet
  facet normal 0.897143 0 -0.44174
    outer loop
      vertex 4.47716 200 3
      vertex 50 197 95.4536
      vertex 4.47716 197 3
    endloop
  endfacet
  facet normal 0.897143 0 -0.441741
    outer loop
      vertex 97 197 190.907
      vertex 52.2386 200 100
      vertex 97 200 190.907
    endloop
  endfacet
  facet normal 0.897143 0 -0.441741
    outer loop
      vertex 52.2386 200 100
      vertex 97 197 190.907
      vertex 52.2386 197 100
    endloop
  endfacet
  facet normal -0.897144 0 0.441739
    outer loop
      vertex 50 197 104.546
      vertex 95.5228 200 197
      vertex 50 200 104.546
    endloop
  endfacet
  facet normal -0.897144 0 0.441739
    outer loop
      vertex 95.5228 200 197
      vertex 50 197 104.546
      vertex 95.5228 197 197
    endloop
  endfacet
  facet normal -0.897143 0 0.44174
    outer loop
      vertex 3 197 9.09278
      vertex 47.7614 200 100
      vertex 3 200 9.09278
    endloop
  endfacet
  facet normal -0.897143 0 0.44174
    outer loop
      vertex 47.7614 200 100
      vertex 3 197 9.09278
      vertex 47.7614 197 100
    endloop
  endfacet
endsolid OpenSCAD_Model
