solid OpenSCAD_Model
  facet normal 1 -0 0
    outer loop
      vertex 11 0 11
      vertex 11 11 0
      vertex 11 11 11
    endloop
  endfacet
  facet normal 1 0 0
    outer loop
      vertex 11 11 0
      vertex 11 0 11
      vertex 11 0 0
    endloop
  endfacet
  facet normal -0 0 1
    outer loop
      vertex 0 11 11
      vertex 11 0 11
      vertex 11 11 11
    endloop
  endfacet
  facet normal 0 0 1
    outer loop
      vertex 11 0 11
      vertex 0 11 11
      vertex 0 0 11
    endloop
  endfacet
  facet normal 0 0 -1
    outer loop
      vertex 0 0 0
      vertex 11 11 0
      vertex 11 0 0
    endloop
  endfacet
  facet normal -0 0 -1
    outer loop
      vertex 11 11 0
      vertex 0 0 0
      vertex 0 11 0
    endloop
  endfacet
  facet normal -1 0 0
    outer loop
      vertex 0 0 0
      vertex 0 11 11
      vertex 0 11 0
    endloop
  endfacet
  facet normal -1 -0 0
    outer loop
      vertex 0 11 11
      vertex 0 0 0
      vertex 0 0 11
    endloop
  endfacet
  facet normal 0 1 0
    outer loop
      vertex 11 11 11
      vertex 10.5 11 10.5
      vertex 0 11 11
    endloop
  endfacet
  facet normal 0 1 0
    outer loop
      vertex 11 11 11
      vertex 10.5 11 0.5
      vertex 10.5 11 10.5
    endloop
  endfacet
  facet normal 0 1 0
    outer loop
      vertex 10.5 11 0.5
      vertex 11 11 0
      vertex 0.5 11 0.5
    endloop
  endfacet
  facet normal 0 1 -0
    outer loop
      vertex 11 11 0
      vertex 10.5 11 0.5
      vertex 11 11 11
    endloop
  endfacet
  facet normal 0 1 -0
    outer loop
      vertex 0.5 11 10.5
      vertex 0 11 11
      vertex 10.5 11 10.5
    endloop
  endfacet
  facet normal 0 1 -0
    outer loop
      vertex 0.5 11 0.5
      vertex 0 11 11
      vertex 0.5 11 10.5
    endloop
  endfacet
  facet normal 0 1 0
    outer loop
      vertex 0.5 11 0.5
      vertex 0 11 0
      vertex 0 11 11
    endloop
  endfacet
  facet normal 0 1 0
    outer loop
      vertex 0 11 0
      vertex 0.5 11 0.5
      vertex 11 11 0
    endloop
  endfacet
  facet normal 0 -1 0
    outer loop
      vertex 0 0 11
      vertex 0.5 0 10.5
      vertex 11 0 11
    endloop
  endfacet
  facet normal 0 -1 0
    outer loop
      vertex 0 0 11
      vertex 0.5 0 0.5
      vertex 0.5 0 10.5
    endloop
  endfacet
  facet normal 0 -1 -0
    outer loop
      vertex 0.5 0 0.5
      vertex 0 0 0
      vertex 10.5 0 0.5
    endloop
  endfacet
  facet normal 0 -1 0
    outer loop
      vertex 0 0 0
      vertex 0.5 0 0.5
      vertex 0 0 11
    endloop
  endfacet
  facet normal 0 -1 0
    outer loop
      vertex 10.5 0 10.5
      vertex 11 0 11
      vertex 0.5 0 10.5
    endloop
  endfacet
  facet normal 0 -1 0
    outer loop
      vertex 10.5 0 0.5
      vertex 11 0 11
      vertex 10.5 0 10.5
    endloop
  endfacet
  facet normal 0 -1 0
    outer loop
      vertex 10.5 0 0.5
      vertex 11 0 0
      vertex 11 0 11
    endloop
  endfacet
  facet normal 0 -1 0
    outer loop
      vertex 11 0 0
      vertex 10.5 0 0.5
      vertex 0 0 0
    endloop
  endfacet
  facet normal -1 0 0
    outer loop
      vertex 10.5 0 0.5
      vertex 10.5 11 10.5
      vertex 10.5 11 0.5
    endloop
  endfacet
  facet normal -1 -0 0
    outer loop
      vertex 10.5 11 10.5
      vertex 10.5 0 0.5
      vertex 10.5 0 10.5
    endloop
  endfacet
  facet normal 0 0 -1
    outer loop
      vertex 0.5 0 10.5
      vertex 10.5 11 10.5
      vertex 10.5 0 10.5
    endloop
  endfacet
  facet normal -0 0 -1
    outer loop
      vertex 10.5 11 10.5
      vertex 0.5 0 10.5
      vertex 0.5 11 10.5
    endloop
  endfacet
  facet normal -0 0 1
    outer loop
      vertex 0.5 11 0.5
      vertex 10.5 0 0.5
      vertex 10.5 11 0.5
    endloop
  endfacet
  facet normal 0 0 1
    outer loop
      vertex 10.5 0 0.5
      vertex 0.5 11 0.5
      vertex 0.5 0 0.5
    endloop
  endfacet
  facet normal 1 -0 0
    outer loop
      vertex 0.5 0 10.5
      vertex 0.5 11 0.5
      vertex 0.5 11 10.5
    endloop
  endfacet
  facet normal 1 0 0
    outer loop
      vertex 0.5 11 0.5
      vertex 0.5 0 10.5
      vertex 0.5 0 0.5
    endloop
  endfacet
endsolid OpenSCAD_Model
