solid OpenSCAD_Model
  facet normal -1 0 0
    outer loop
      vertex 27 36 1
      vertex 27 15 7
      vertex 27 36 10
    endloop
  endfacet
  facet normal -1 0 0
    outer loop
      vertex 27 1 1
      vertex 27 15 7
      vertex 27 36 1
    endloop
  endfacet
  facet normal -1 -0 0
    outer loop
      vertex 27 15 7
      vertex 27 1 1
      vertex 27 7 7
    endloop
  endfacet
  facet normal -1 0 0
    outer loop
      vertex 27 1 10
      vertex 27 7 7
      vertex 27 1 1
    endloop
  endfacet
  facet normal -1 0 0
    outer loop
      vertex 27 7 7
      vertex 27 1 10
      vertex 27 7 10
    endloop
  endfacet
  facet normal -1 -0 0
    outer loop
      vertex 27 36 10
      vertex 27 15 7
      vertex 27 15 10
    endloop
  endfacet
  facet normal 0 0 1
    outer loop
      vertex 20 37 1
      vertex 10 37 1
      vertex 20 36 1
    endloop
  endfacet
  facet normal -0 0 1
    outer loop
      vertex 1 36 1
      vertex 5 26 1
      vertex 10 36 1
    endloop
  endfacet
  facet normal 0 0 1
    outer loop
      vertex 1 1 1
      vertex 4 26 1
      vertex 1 36 1
    endloop
  endfacet
  facet normal 0 0 1
    outer loop
      vertex 5 26 1
      vertex 1 36 1
      vertex 4 26 1
    endloop
  endfacet
  facet normal 0 0 1
    outer loop
      vertex 27 36 1
      vertex 23 26 1
      vertex 27 1 1
    endloop
  endfacet
  facet normal -0 0 1
    outer loop
      vertex 20 36 1
      vertex 23 26 1
      vertex 27 36 1
    endloop
  endfacet
  facet normal -0 0 1
    outer loop
      vertex 10 36 1
      vertex 22 26 1
      vertex 20 36 1
    endloop
  endfacet
  facet normal 0 0 1
    outer loop
      vertex 23 26 1
      vertex 20 36 1
      vertex 22 26 1
    endloop
  endfacet
  facet normal -0 0 1
    outer loop
      vertex 23 6 1
      vertex 27 1 1
      vertex 23 26 1
    endloop
  endfacet
  facet normal -0 0 1
    outer loop
      vertex 22 6 1
      vertex 27 1 1
      vertex 23 6 1
    endloop
  endfacet
  facet normal 0 0 1
    outer loop
      vertex 10 36 1
      vertex 20 36 1
      vertex 10 37 1
    endloop
  endfacet
  facet normal 0 0 1
    outer loop
      vertex 22 26 1
      vertex 10 36 1
      vertex 5 26 1
    endloop
  endfacet
  facet normal 0 0 1
    outer loop
      vertex 22 26 1
      vertex 5 26 1
      vertex 22 6 1
    endloop
  endfacet
  facet normal 0 0 1
    outer loop
      vertex 5 6 1
      vertex 22 6 1
      vertex 5 26 1
    endloop
  endfacet
  facet normal 0 0 1
    outer loop
      vertex 1 1 1
      vertex 22 6 1
      vertex 5 6 1
    endloop
  endfacet
  facet normal 0 0 1
    outer loop
      vertex 1 1 1
      vertex 5 6 1
      vertex 4 6 1
    endloop
  endfacet
  facet normal 0 0 1
    outer loop
      vertex 22 6 1
      vertex 1 1 1
      vertex 27 1 1
    endloop
  endfacet
  facet normal 0 0 1
    outer loop
      vertex 4 26 1
      vertex 1 1 1
      vertex 4 6 1
    endloop
  endfacet
  facet normal 1 -0 0
    outer loop
      vertex 1 1 10
      vertex 1 36 1
      vertex 1 36 10
    endloop
  endfacet
  facet normal 1 0 0
    outer loop
      vertex 1 36 1
      vertex 1 1 10
      vertex 1 1 1
    endloop
  endfacet
  facet normal 0 -1 0
    outer loop
      vertex 1 36 10
      vertex 10 36 6
      vertex 27 36 10
    endloop
  endfacet
  facet normal 0 -1 0
    outer loop
      vertex 1 36 1
      vertex 10 36 6
      vertex 1 36 10
    endloop
  endfacet
  facet normal 0 -1 -0
    outer loop
      vertex 10 36 6
      vertex 1 36 1
      vertex 10 36 1
    endloop
  endfacet
  facet normal 0 -1 0
    outer loop
      vertex 20 36 6
      vertex 27 36 10
      vertex 10 36 6
    endloop
  endfacet
  facet normal 0 -1 0
    outer loop
      vertex 27 36 1
      vertex 20 36 6
      vertex 20 36 1
    endloop
  endfacet
  facet normal 0 -1 0
    outer loop
      vertex 20 36 6
      vertex 27 36 1
      vertex 27 36 10
    endloop
  endfacet
  facet normal 0 1 -0
    outer loop
      vertex 27 1 1
      vertex 1 1 10
      vertex 27 1 10
    endloop
  endfacet
  facet normal 0 1 0
    outer loop
      vertex 1 1 10
      vertex 27 1 1
      vertex 1 1 1
    endloop
  endfacet
  facet normal -1 0 0
    outer loop
      vertex 20 36 1
      vertex 20 37 6
      vertex 20 37 1
    endloop
  endfacet
  facet normal -1 -0 0
    outer loop
      vertex 20 37 6
      vertex 20 36 1
      vertex 20 36 6
    endloop
  endfacet
  facet normal 0 0 -1
    outer loop
      vertex 10 36 6
      vertex 20 37 6
      vertex 20 36 6
    endloop
  endfacet
  facet normal -0 0 -1
    outer loop
      vertex 20 37 6
      vertex 10 36 6
      vertex 10 37 6
    endloop
  endfacet
  facet normal 1 -0 0
    outer loop
      vertex 10 36 6
      vertex 10 37 1
      vertex 10 37 6
    endloop
  endfacet
  facet normal 1 0 0
    outer loop
      vertex 10 37 1
      vertex 10 36 6
      vertex 10 36 1
    endloop
  endfacet
  facet normal 1 -0 0
    outer loop
      vertex 5 6 4
      vertex 5 26 1
      vertex 5 26 4
    endloop
  endfacet
  facet normal 1 0 0
    outer loop
      vertex 5 26 1
      vertex 5 6 4
      vertex 5 6 1
    endloop
  endfacet
  facet normal -0 0 1
    outer loop
      vertex 4 26 4
      vertex 5 6 4
      vertex 5 26 4
    endloop
  endfacet
  facet normal 0 0 1
    outer loop
      vertex 5 6 4
      vertex 4 26 4
      vertex 4 6 4
    endloop
  endfacet
  facet normal -1 0 0
    outer loop
      vertex 4 6 1
      vertex 4 26 4
      vertex 4 26 1
    endloop
  endfacet
  facet normal -1 -0 0
    outer loop
      vertex 4 26 4
      vertex 4 6 1
      vertex 4 6 4
    endloop
  endfacet
  facet normal 0 1 -0
    outer loop
      vertex 5 26 1
      vertex 4 26 4
      vertex 5 26 4
    endloop
  endfacet
  facet normal 0 1 0
    outer loop
      vertex 4 26 4
      vertex 5 26 1
      vertex 4 26 1
    endloop
  endfacet
  facet normal 0 -1 0
    outer loop
      vertex 4 6 1
      vertex 5 6 4
      vertex 4 6 4
    endloop
  endfacet
  facet normal 0 -1 -0
    outer loop
      vertex 5 6 4
      vertex 4 6 1
      vertex 5 6 1
    endloop
  endfacet
  facet normal 1 -0 0
    outer loop
      vertex 23 6 4
      vertex 23 26 1
      vertex 23 26 4
    endloop
  endfacet
  facet normal 1 0 0
    outer loop
      vertex 23 26 1
      vertex 23 6 4
      vertex 23 6 1
    endloop
  endfacet
  facet normal -0 0 1
    outer loop
      vertex 22 26 4
      vertex 23 6 4
      vertex 23 26 4
    endloop
  endfacet
  facet normal 0 0 1
    outer loop
      vertex 23 6 4
      vertex 22 26 4
      vertex 22 6 4
    endloop
  endfacet
  facet normal -1 0 0
    outer loop
      vertex 22 6 1
      vertex 22 26 4
      vertex 22 26 1
    endloop
  endfacet
  facet normal -1 -0 0
    outer loop
      vertex 22 26 4
      vertex 22 6 1
      vertex 22 6 4
    endloop
  endfacet
  facet normal 0 1 -0
    outer loop
      vertex 23 26 1
      vertex 22 26 4
      vertex 23 26 4
    endloop
  endfacet
  facet normal 0 1 0
    outer loop
      vertex 22 26 4
      vertex 23 26 1
      vertex 22 26 1
    endloop
  endfacet
  facet normal 0 -1 0
    outer loop
      vertex 22 6 1
      vertex 23 6 4
      vertex 22 6 4
    endloop
  endfacet
  facet normal 0 -1 -0
    outer loop
      vertex 23 6 4
      vertex 22 6 1
      vertex 23 6 1
    endloop
  endfacet
  facet normal -1 0 0
    outer loop
      vertex 42 17 1
      vertex 42 15 7
      vertex 42 17 10
    endloop
  endfacet
  facet normal -1 0 0
    outer loop
      vertex 42 17 1
      vertex 42 7 7
      vertex 42 15 7
    endloop
  endfacet
  facet normal -1 0 0
    outer loop
      vertex 42 1 1
      vertex 42 7 7
      vertex 42 17 1
    endloop
  endfacet
  facet normal -1 0 0
    outer loop
      vertex 42 1 10
      vertex 42 7 7
      vertex 42 1 1
    endloop
  endfacet
  facet normal -1 0 0
    outer loop
      vertex 42 7 7
      vertex 42 1 10
      vertex 42 7 10
    endloop
  endfacet
  facet normal -1 -0 0
    outer loop
      vertex 42 17 10
      vertex 42 15 7
      vertex 42 15 10
    endloop
  endfacet
  facet normal 0 0 1
    outer loop
      vertex 42 17 1
      vertex 39 14 1
      vertex 42 1 1
    endloop
  endfacet
  facet normal 0 0 1
    outer loop
      vertex 42 17 1
      vertex 31 14 1
      vertex 39 14 1
    endloop
  endfacet
  facet normal 0 0 1
    outer loop
      vertex 31 14 1
      vertex 28 17 1
      vertex 31 4 1
    endloop
  endfacet
  facet normal -0 0 1
    outer loop
      vertex 28 17 1
      vertex 31 14 1
      vertex 42 17 1
    endloop
  endfacet
  facet normal -0 0 1
    outer loop
      vertex 39 4 1
      vertex 42 1 1
      vertex 39 14 1
    endloop
  endfacet
  facet normal -0 0 1
    outer loop
      vertex 31 4 1
      vertex 42 1 1
      vertex 39 4 1
    endloop
  endfacet
  facet normal 0 0 1
    outer loop
      vertex 31 4 1
      vertex 28 1 1
      vertex 42 1 1
    endloop
  endfacet
  facet normal 0 0 1
    outer loop
      vertex 28 1 1
      vertex 31 4 1
      vertex 28 17 1
    endloop
  endfacet
  facet normal 1 0 0
    outer loop
      vertex 28 7 10
      vertex 28 1 10
      vertex 28 7 7
    endloop
  endfacet
  facet normal 1 0 0
    outer loop
      vertex 28 15 7
      vertex 28 17 10
      vertex 28 15 10
    endloop
  endfacet
  facet normal 1 0 0
    outer loop
      vertex 28 17 10
      vertex 28 15 7
      vertex 28 17 1
    endloop
  endfacet
  facet normal 1 -0 0
    outer loop
      vertex 28 7 7
      vertex 28 17 1
      vertex 28 15 7
    endloop
  endfacet
  facet normal 1 0 0
    outer loop
      vertex 28 1 1
      vertex 28 7 7
      vertex 28 1 10
    endloop
  endfacet
  facet normal 1 0 0
    outer loop
      vertex 28 7 7
      vertex 28 1 1
      vertex 28 17 1
    endloop
  endfacet
  facet normal 0 -1 0
    outer loop
      vertex 28 17 1
      vertex 42 17 10
      vertex 28 17 10
    endloop
  endfacet
  facet normal 0 -1 -0
    outer loop
      vertex 42 17 10
      vertex 28 17 1
      vertex 42 17 1
    endloop
  endfacet
  facet normal 0 1 -0
    outer loop
      vertex 42 1 1
      vertex 28 1 10
      vertex 42 1 10
    endloop
  endfacet
  facet normal 0 1 0
    outer loop
      vertex 28 1 10
      vertex 42 1 1
      vertex 28 1 1
    endloop
  endfacet
  facet normal 1 -0 0
    outer loop
      vertex 39 4 4
      vertex 39 14 1
      vertex 39 14 4
    endloop
  endfacet
  facet normal 1 0 0
    outer loop
      vertex 39 14 1
      vertex 39 4 4
      vertex 39 4 1
    endloop
  endfacet
  facet normal 0 0 1
    outer loop
      vertex 39 14 4
      vertex 38 13 4
      vertex 39 4 4
    endloop
  endfacet
  facet normal 0 0 1
    outer loop
      vertex 39 14 4
      vertex 32 13 4
      vertex 38 13 4
    endloop
  endfacet
  facet normal 0 0 1
    outer loop
      vertex 32 13 4
      vertex 31 14 4
      vertex 32 5 4
    endloop
  endfacet
  facet normal -0 0 1
    outer loop
      vertex 31 14 4
      vertex 32 13 4
      vertex 39 14 4
    endloop
  endfacet
  facet normal -0 0 1
    outer loop
      vertex 38 5 4
      vertex 39 4 4
      vertex 38 13 4
    endloop
  endfacet
  facet normal -0 0 1
    outer loop
      vertex 32 5 4
      vertex 39 4 4
      vertex 38 5 4
    endloop
  endfacet
  facet normal 0 0 1
    outer loop
      vertex 32 5 4
      vertex 31 4 4
      vertex 39 4 4
    endloop
  endfacet
  facet normal 0 0 1
    outer loop
      vertex 31 4 4
      vertex 32 5 4
      vertex 31 14 4
    endloop
  endfacet
  facet normal -1 0 0
    outer loop
      vertex 31 4 1
      vertex 31 14 4
      vertex 31 14 1
    endloop
  endfacet
  facet normal -1 -0 0
    outer loop
      vertex 31 14 4
      vertex 31 4 1
      vertex 31 4 4
    endloop
  endfacet
  facet normal 0 1 -0
    outer loop
      vertex 39 14 1
      vertex 31 14 4
      vertex 39 14 4
    endloop
  endfacet
  facet normal 0 1 0
    outer loop
      vertex 31 14 4
      vertex 39 14 1
      vertex 31 14 1
    endloop
  endfacet
  facet normal 0 -1 0
    outer loop
      vertex 31 4 1
      vertex 39 4 4
      vertex 31 4 4
    endloop
  endfacet
  facet normal 0 -1 -0
    outer loop
      vertex 39 4 4
      vertex 31 4 1
      vertex 39 4 1
    endloop
  endfacet
  facet normal -1 0 0
    outer loop
      vertex 38 5 1
      vertex 38 13 4
      vertex 38 13 1
    endloop
  endfacet
  facet normal -1 -0 0
    outer loop
      vertex 38 13 4
      vertex 38 5 1
      vertex 38 5 4
    endloop
  endfacet
  facet normal -0 0 1
    outer loop
      vertex 32 13 1
      vertex 38 5 1
      vertex 38 13 1
    endloop
  endfacet
  facet normal 0 0 1
    outer loop
      vertex 38 5 1
      vertex 32 13 1
      vertex 32 5 1
    endloop
  endfacet
  facet normal 1 -0 0
    outer loop
      vertex 32 5 4
      vertex 32 13 1
      vertex 32 13 4
    endloop
  endfacet
  facet normal 1 0 0
    outer loop
      vertex 32 13 1
      vertex 32 5 4
      vertex 32 5 1
    endloop
  endfacet
  facet normal 0 -1 0
    outer loop
      vertex 32 13 1
      vertex 38 13 4
      vertex 32 13 4
    endloop
  endfacet
  facet normal 0 -1 -0
    outer loop
      vertex 38 13 4
      vertex 32 13 1
      vertex 38 13 1
    endloop
  endfacet
  facet normal 0 1 -0
    outer loop
      vertex 38 5 1
      vertex 32 5 4
      vertex 38 5 4
    endloop
  endfacet
  facet normal 0 1 0
    outer loop
      vertex 32 5 4
      vertex 38 5 1
      vertex 32 5 1
    endloop
  endfacet
  facet normal -1 0 0
    outer loop
      vertex 62 1 1
      vertex 62 35 10
      vertex 62 35 1
    endloop
  endfacet
  facet normal -1 -0 0
    outer loop
      vertex 62 35 10
      vertex 62 1 1
      vertex 62 1 10
    endloop
  endfacet
  facet normal 0 0 1
    outer loop
      vertex 62 35 1
      vertex 59.5 31 1
      vertex 62 1 1
    endloop
  endfacet
  facet normal 0 0 1
    outer loop
      vertex 62 35 1
      vertex 45.5 31 1
      vertex 59.5 31 1
    endloop
  endfacet
  facet normal 0 0 1
    outer loop
      vertex 45.5 31 1
      vertex 43 35 1
      vertex 45.5 5 1
    endloop
  endfacet
  facet normal -0 0 1
    outer loop
      vertex 43 35 1
      vertex 45.5 31 1
      vertex 62 35 1
    endloop
  endfacet
  facet normal -0 0 1
    outer loop
      vertex 59.5 5 1
      vertex 62 1 1
      vertex 59.5 31 1
    endloop
  endfacet
  facet normal -0 0 1
    outer loop
      vertex 45.5 5 1
      vertex 62 1 1
      vertex 59.5 5 1
    endloop
  endfacet
  facet normal 0 0 1
    outer loop
      vertex 45.5 5 1
      vertex 43 1 1
      vertex 62 1 1
    endloop
  endfacet
  facet normal 0 0 1
    outer loop
      vertex 43 1 1
      vertex 45.5 5 1
      vertex 43 35 1
    endloop
  endfacet
  facet normal 1 0 0
    outer loop
      vertex 43 7 10
      vertex 43 1 10
      vertex 43 7 7
    endloop
  endfacet
  facet normal 1 0 0
    outer loop
      vertex 43 15 7
      vertex 43 35 10
      vertex 43 15 10
    endloop
  endfacet
  facet normal 1 0 0
    outer loop
      vertex 43 35 10
      vertex 43 15 7
      vertex 43 35 1
    endloop
  endfacet
  facet normal 1 0 0
    outer loop
      vertex 43 1 1
      vertex 43 15 7
      vertex 43 7 7
    endloop
  endfacet
  facet normal 1 0 0
    outer loop
      vertex 43 15 7
      vertex 43 1 1
      vertex 43 35 1
    endloop
  endfacet
  facet normal 1 0 0
    outer loop
      vertex 43 1 1
      vertex 43 7 7
      vertex 43 1 10
    endloop
  endfacet
  facet normal 0 -1 0
    outer loop
      vertex 43 35 1
      vertex 62 35 10
      vertex 43 35 10
    endloop
  endfacet
  facet normal 0 -1 -0
    outer loop
      vertex 62 35 10
      vertex 43 35 1
      vertex 62 35 1
    endloop
  endfacet
  facet normal 0 1 -0
    outer loop
      vertex 62 1 1
      vertex 43 1 10
      vertex 62 1 10
    endloop
  endfacet
  facet normal 0 1 0
    outer loop
      vertex 43 1 10
      vertex 62 1 1
      vertex 43 1 1
    endloop
  endfacet
  facet normal 1 -0 0
    outer loop
      vertex 59.5 5 4
      vertex 59.5 31 1
      vertex 59.5 31 4
    endloop
  endfacet
  facet normal 1 0 0
    outer loop
      vertex 59.5 31 1
      vertex 59.5 5 4
      vertex 59.5 5 1
    endloop
  endfacet
  facet normal 0 0 1
    outer loop
      vertex 59.5 31 4
      vertex 58.5 30 4
      vertex 59.5 5 4
    endloop
  endfacet
  facet normal 0 0 1
    outer loop
      vertex 59.5 31 4
      vertex 46.5 30 4
      vertex 58.5 30 4
    endloop
  endfacet
  facet normal 0 0 1
    outer loop
      vertex 46.5 30 4
      vertex 45.5 31 4
      vertex 46.5 6 4
    endloop
  endfacet
  facet normal -0 0 1
    outer loop
      vertex 45.5 31 4
      vertex 46.5 30 4
      vertex 59.5 31 4
    endloop
  endfacet
  facet normal -0 0 1
    outer loop
      vertex 58.5 6 4
      vertex 59.5 5 4
      vertex 58.5 30 4
    endloop
  endfacet
  facet normal -0 0 1
    outer loop
      vertex 46.5 6 4
      vertex 59.5 5 4
      vertex 58.5 6 4
    endloop
  endfacet
  facet normal 0 0 1
    outer loop
      vertex 46.5 6 4
      vertex 45.5 5 4
      vertex 59.5 5 4
    endloop
  endfacet
  facet normal 0 0 1
    outer loop
      vertex 45.5 5 4
      vertex 46.5 6 4
      vertex 45.5 31 4
    endloop
  endfacet
  facet normal -1 0 0
    outer loop
      vertex 45.5 5 1
      vertex 45.5 31 4
      vertex 45.5 31 1
    endloop
  endfacet
  facet normal -1 -0 0
    outer loop
      vertex 45.5 31 4
      vertex 45.5 5 1
      vertex 45.5 5 4
    endloop
  endfacet
  facet normal 0 1 -0
    outer loop
      vertex 59.5 31 1
      vertex 45.5 31 4
      vertex 59.5 31 4
    endloop
  endfacet
  facet normal 0 1 0
    outer loop
      vertex 45.5 31 4
      vertex 59.5 31 1
      vertex 45.5 31 1
    endloop
  endfacet
  facet normal 0 -1 0
    outer loop
      vertex 45.5 5 1
      vertex 59.5 5 4
      vertex 45.5 5 4
    endloop
  endfacet
  facet normal 0 -1 -0
    outer loop
      vertex 59.5 5 4
      vertex 45.5 5 1
      vertex 59.5 5 1
    endloop
  endfacet
  facet normal -1 0 0
    outer loop
      vertex 58.5 6 1
      vertex 58.5 30 4
      vertex 58.5 30 1
    endloop
  endfacet
  facet normal -1 -0 0
    outer loop
      vertex 58.5 30 4
      vertex 58.5 6 1
      vertex 58.5 6 4
    endloop
  endfacet
  facet normal -0 0 1
    outer loop
      vertex 46.5 30 1
      vertex 58.5 6 1
      vertex 58.5 30 1
    endloop
  endfacet
  facet normal 0 0 1
    outer loop
      vertex 58.5 6 1
      vertex 46.5 30 1
      vertex 46.5 6 1
    endloop
  endfacet
  facet normal 1 -0 0
    outer loop
      vertex 46.5 6 4
      vertex 46.5 30 1
      vertex 46.5 30 4
    endloop
  endfacet
  facet normal 1 0 0
    outer loop
      vertex 46.5 30 1
      vertex 46.5 6 4
      vertex 46.5 6 1
    endloop
  endfacet
  facet normal 0 -1 0
    outer loop
      vertex 46.5 30 1
      vertex 58.5 30 4
      vertex 46.5 30 4
    endloop
  endfacet
  facet normal 0 -1 -0
    outer loop
      vertex 58.5 30 4
      vertex 46.5 30 1
      vertex 58.5 30 1
    endloop
  endfacet
  facet normal 0 1 -0
    outer loop
      vertex 58.5 6 1
      vertex 46.5 6 4
      vertex 58.5 6 4
    endloop
  endfacet
  facet normal 0 1 0
    outer loop
      vertex 46.5 6 4
      vertex 58.5 6 1
      vertex 46.5 6 1
    endloop
  endfacet
  facet normal 1 -0 0
    outer loop
      vertex 63 0 10
      vertex 63 37 0
      vertex 63 37 10
    endloop
  endfacet
  facet normal 1 0 0
    outer loop
      vertex 63 37 0
      vertex 63 0 10
      vertex 63 0 0
    endloop
  endfacet
  facet normal 0 0 1
    outer loop
      vertex 28 7 10
      vertex 27 7 10
      vertex 28 1 10
    endloop
  endfacet
  facet normal 0 0 1
    outer loop
      vertex 43 7 10
      vertex 42 7 10
      vertex 43 1 10
    endloop
  endfacet
  facet normal 0 0 1
    outer loop
      vertex 63 37 10
      vertex 62 35 10
      vertex 63 0 10
    endloop
  endfacet
  facet normal 0 0 1
    outer loop
      vertex 63 37 10
      vertex 43 35 10
      vertex 62 35 10
    endloop
  endfacet
  facet normal 0 0 1
    outer loop
      vertex 42 18 10
      vertex 43 35 10
      vertex 42 36 10
    endloop
  endfacet
  facet normal 0 0 1
    outer loop
      vertex 63 37 10
      vertex 42 36 10
      vertex 43 35 10
    endloop
  endfacet
  facet normal 0 0 1
    outer loop
      vertex 63 37 10
      vertex 28 36 10
      vertex 42 36 10
    endloop
  endfacet
  facet normal -0 0 1
    outer loop
      vertex 27 36 10
      vertex 28 18 10
      vertex 28 36 10
    endloop
  endfacet
  facet normal 0 0 1
    outer loop
      vertex 27 15 10
      vertex 28 18 10
      vertex 27 36 10
    endloop
  endfacet
  facet normal 0 0 1
    outer loop
      vertex 28 18 10
      vertex 27 15 10
      vertex 28 17 10
    endloop
  endfacet
  facet normal 0 0 1
    outer loop
      vertex 63 37 10
      vertex 27 36 10
      vertex 28 36 10
    endloop
  endfacet
  facet normal -0 0 1
    outer loop
      vertex 0 37 10
      vertex 27 36 10
      vertex 63 37 10
    endloop
  endfacet
  facet normal 0 0 1
    outer loop
      vertex 1 36 10
      vertex 0 37 10
      vertex 1 1 10
    endloop
  endfacet
  facet normal 0 0 1
    outer loop
      vertex 27 36 10
      vertex 0 37 10
      vertex 1 36 10
    endloop
  endfacet
  facet normal -0 0 1
    outer loop
      vertex 62 1 10
      vertex 63 0 10
      vertex 62 35 10
    endloop
  endfacet
  facet normal -0 0 1
    outer loop
      vertex 43 1 10
      vertex 63 0 10
      vertex 62 1 10
    endloop
  endfacet
  facet normal 0 0 1
    outer loop
      vertex 42 1 10
      vertex 43 1 10
      vertex 42 7 10
    endloop
  endfacet
  facet normal -0 0 1
    outer loop
      vertex 42 1 10
      vertex 63 0 10
      vertex 43 1 10
    endloop
  endfacet
  facet normal -0 0 1
    outer loop
      vertex 28 1 10
      vertex 63 0 10
      vertex 42 1 10
    endloop
  endfacet
  facet normal 0 0 1
    outer loop
      vertex 27 1 10
      vertex 28 1 10
      vertex 27 7 10
    endloop
  endfacet
  facet normal -0 0 1
    outer loop
      vertex 27 1 10
      vertex 63 0 10
      vertex 28 1 10
    endloop
  endfacet
  facet normal 0 0 1
    outer loop
      vertex 0 0 10
      vertex 27 1 10
      vertex 1 1 10
    endloop
  endfacet
  facet normal 0 0 1
    outer loop
      vertex 27 1 10
      vertex 0 0 10
      vertex 63 0 10
    endloop
  endfacet
  facet normal 0 0 1
    outer loop
      vertex 0 0 10
      vertex 1 1 10
      vertex 0 37 10
    endloop
  endfacet
  facet normal -0 0 1
    outer loop
      vertex 28 18 10
      vertex 42 17 10
      vertex 42 18 10
    endloop
  endfacet
  facet normal 0 0 1
    outer loop
      vertex 42 17 10
      vertex 28 18 10
      vertex 28 17 10
    endloop
  endfacet
  facet normal 0 0 1
    outer loop
      vertex 43 35 10
      vertex 42 18 10
      vertex 43 15 10
    endloop
  endfacet
  facet normal -0 0 1
    outer loop
      vertex 42 17 10
      vertex 43 15 10
      vertex 42 18 10
    endloop
  endfacet
  facet normal 0 0 1
    outer loop
      vertex 43 15 10
      vertex 42 17 10
      vertex 42 15 10
    endloop
  endfacet
  facet normal 0 0 1
    outer loop
      vertex 28 17 10
      vertex 27 15 10
      vertex 28 15 10
    endloop
  endfacet
  facet normal 0 0 -1
    outer loop
      vertex 0 0 0
      vertex 63 37 0
      vertex 63 0 0
    endloop
  endfacet
  facet normal -0 0 -1
    outer loop
      vertex 63 37 0
      vertex 0 0 0
      vertex 0 37 0
    endloop
  endfacet
  facet normal -1 0 0
    outer loop
      vertex 0 0 0
      vertex 0 37 10
      vertex 0 37 0
    endloop
  endfacet
  facet normal -1 -0 0
    outer loop
      vertex 0 37 10
      vertex 0 0 0
      vertex 0 0 10
    endloop
  endfacet
  facet normal 0 1 0
    outer loop
      vertex 63 37 10
      vertex 20 37 6
      vertex 0 37 10
    endloop
  endfacet
  facet normal 0 1 -0
    outer loop
      vertex 63 37 0
      vertex 20 37 6
      vertex 63 37 10
    endloop
  endfacet
  facet normal 0 1 0
    outer loop
      vertex 0 37 0
      vertex 20 37 1
      vertex 63 37 0
    endloop
  endfacet
  facet normal 0 1 0
    outer loop
      vertex 20 37 6
      vertex 63 37 0
      vertex 20 37 1
    endloop
  endfacet
  facet normal 0 1 -0
    outer loop
      vertex 10 37 6
      vertex 0 37 10
      vertex 20 37 6
    endloop
  endfacet
  facet normal 0 1 0
    outer loop
      vertex 0 37 0
      vertex 10 37 6
      vertex 10 37 1
    endloop
  endfacet
  facet normal 0 1 0
    outer loop
      vertex 10 37 6
      vertex 0 37 0
      vertex 0 37 10
    endloop
  endfacet
  facet normal 0 1 0
    outer loop
      vertex 20 37 1
      vertex 0 37 0
      vertex 10 37 1
    endloop
  endfacet
  facet normal 0 -1 0
    outer loop
      vertex 0 0 0
      vertex 63 0 10
      vertex 0 0 10
    endloop
  endfacet
  facet normal 0 -1 -0
    outer loop
      vertex 63 0 10
      vertex 0 0 0
      vertex 63 0 0
    endloop
  endfacet
  facet normal -1 0 0
    outer loop
      vertex 42 18 1
      vertex 42 36 10
      vertex 42 36 1
    endloop
  endfacet
  facet normal -1 -0 0
    outer loop
      vertex 42 36 10
      vertex 42 18 1
      vertex 42 18 10
    endloop
  endfacet
  facet normal -0 0 1
    outer loop
      vertex 28 36 1
      vertex 42 18 1
      vertex 42 36 1
    endloop
  endfacet
  facet normal 0 0 1
    outer loop
      vertex 42 18 1
      vertex 28 36 1
      vertex 28 18 1
    endloop
  endfacet
  facet normal 1 -0 0
    outer loop
      vertex 28 18 10
      vertex 28 36 1
      vertex 28 36 10
    endloop
  endfacet
  facet normal 1 0 0
    outer loop
      vertex 28 36 1
      vertex 28 18 10
      vertex 28 18 1
    endloop
  endfacet
  facet normal 0 -1 0
    outer loop
      vertex 28 36 1
      vertex 42 36 10
      vertex 28 36 10
    endloop
  endfacet
  facet normal 0 -1 -0
    outer loop
      vertex 42 36 10
      vertex 28 36 1
      vertex 42 36 1
    endloop
  endfacet
  facet normal 0 1 -0
    outer loop
      vertex 42 18 1
      vertex 28 18 10
      vertex 42 18 10
    endloop
  endfacet
  facet normal 0 1 0
    outer loop
      vertex 28 18 10
      vertex 42 18 1
      vertex 28 18 1
    endloop
  endfacet
  facet normal -0 0 1
    outer loop
      vertex 27 15 7
      vertex 28 7 7
      vertex 28 15 7
    endloop
  endfacet
  facet normal 0 0 1
    outer loop
      vertex 28 7 7
      vertex 27 15 7
      vertex 27 7 7
    endloop
  endfacet
  facet normal -0 0 1
    outer loop
      vertex 42 15 7
      vertex 43 7 7
      vertex 43 15 7
    endloop
  endfacet
  facet normal 0 0 1
    outer loop
      vertex 43 7 7
      vertex 42 15 7
      vertex 42 7 7
    endloop
  endfacet
  facet normal 0 -1 0
    outer loop
      vertex 27 15 7
      vertex 28 15 10
      vertex 27 15 10
    endloop
  endfacet
  facet normal 0 -1 -0
    outer loop
      vertex 28 15 10
      vertex 27 15 7
      vertex 28 15 7
    endloop
  endfacet
  facet normal 0 -1 0
    outer loop
      vertex 42 15 7
      vertex 43 15 10
      vertex 42 15 10
    endloop
  endfacet
  facet normal 0 -1 -0
    outer loop
      vertex 43 15 10
      vertex 42 15 7
      vertex 43 15 7
    endloop
  endfacet
  facet normal 0 1 -0
    outer loop
      vertex 28 7 7
      vertex 27 7 10
      vertex 28 7 10
    endloop
  endfacet
  facet normal 0 1 0
    outer loop
      vertex 27 7 10
      vertex 28 7 7
      vertex 27 7 7
    endloop
  endfacet
  facet normal 0 1 -0
    outer loop
      vertex 43 7 7
      vertex 42 7 10
      vertex 43 7 10
    endloop
  endfacet
  facet normal 0 1 0
    outer loop
      vertex 42 7 10
      vertex 43 7 7
      vertex 42 7 7
    endloop
  endfacet
endsolid OpenSCAD_Model
