solid OpenSCAD_Model
  facet normal -0 0 1
    outer loop
      vertex -5 55 0
      vertex 53 -65 0
      vertex 53 55 0
    endloop
  endfacet
  facet normal 0 0 1
    outer loop
      vertex 53 -65 0
      vertex -5 55 0
      vertex -5 -65 0
    endloop
  endfacet
  facet normal -1 0 0
    outer loop
      vertex -5 -65 -2
      vertex -5 55 0
      vertex -5 55 -2
    endloop
  endfacet
  facet normal -1 -0 0
    outer loop
      vertex -5 55 0
      vertex -5 -65 -2
      vertex -5 -65 0
    endloop
  endfacet
  facet normal 1 -0 0
    outer loop
      vertex 53 -65 0
      vertex 53 55 -2
      vertex 53 55 0
    endloop
  endfacet
  facet normal 1 0 0
    outer loop
      vertex 53 55 -2
      vertex 53 -65 0
      vertex 53 -65 -2
    endloop
  endfacet
  facet normal 0 1 -0
    outer loop
      vertex 53 55 -2
      vertex -5 55 0
      vertex 53 55 0
    endloop
  endfacet
  facet normal 0 1 0
    outer loop
      vertex -5 55 0
      vertex 53 55 -2
      vertex -5 55 -2
    endloop
  endfacet
  facet normal 0 0 -1
    outer loop
      vertex -5 -65 -2
      vertex 53 55 -2
      vertex 53 -65 -2
    endloop
  endfacet
  facet normal -0 0 -1
    outer loop
      vertex 53 55 -2
      vertex -5 -65 -2
      vertex -5 55 -2
    endloop
  endfacet
  facet normal 0 -1 0
    outer loop
      vertex -5 -65 -2
      vertex 53 -65 0
      vertex -5 -65 0
    endloop
  endfacet
  facet normal 0 -1 -0
    outer loop
      vertex 53 -65 0
      vertex -5 -65 -2
      vertex 53 -65 -2
    endloop
  endfacet
endsolid OpenSCAD_Model
