solid OpenSCAD_Model
  facet normal 0 0 -1
    outer loop
      vertex -3.42752 -7.28386 0
      vertex -5.5106 -5.8682 0
      vertex -2.9634 -7.4847 0
    endloop
  endfacet
  facet normal -0 -0 1
    outer loop
      vertex -7.79709 -2.00195 0.5
      vertex -7.05427 -3.87812 0.5
      vertex -7.90741 -1.50842 0.5
    endloop
  endfacet
  facet normal -0.999506 -0.0314209 0
    outer loop
      vertex -8.05 -0 0.5
      vertex -8.03411 -0.505464 0
      vertex -8.03411 -0.505464 0.5
    endloop
  endfacet
  facet normal 0.790111 0.612964 -0
    outer loop
      vertex 110.513 4.73167 0
      vertex 110.203 5.13126 0
      vertex 110.513 4.73167 0.5
    endloop
  endfacet
  facet normal 0.960342 -0.278824 0
    outer loop
      vertex 111.656 -2.48759 0
      vertex 111.797 -2.00195 0.5
      vertex 111.656 -2.48759 0.5
    endloop
  endfacet
  facet normal 0 -0 -1
    outer loop
      vertex -7.98652 1.00893 0
      vertex -5.5106 -5.8682 0
      vertex -8.03411 0.505464 0
    endloop
  endfacet
  facet normal 0.217951 -0.97596 0
    outer loop
      vertex 105.508 -7.90741 0
      vertex 106.002 -7.79709 0
      vertex 105.508 -7.90741 0.5
    endloop
  endfacet
  facet normal -0.987689 -0.156432 -0
    outer loop
      vertex -7.98652 -1.00893 0.5
      vertex -7.98652 -1.00893 0
      vertex -7.90741 -1.50842 0.5
    endloop
  endfacet
  facet normal 0.509293 0.860593 -0
    outer loop
      vertex 107.878 7.05427 0
      vertex 107.878 7.05427 0.5
      vertex 108.313 6.79684 0
    endloop
  endfacet
  facet normal -0.612915 0.790149 0
    outer loop
      vertex -5.13126 6.20263 0
      vertex -4.73167 6.51259 0.5
      vertex -4.73167 6.51259 0
    endloop
  endfacet
  facet normal -0.917757 0.397143 0
    outer loop
      vertex -7.4847 2.9634 0
      vertex -7.28386 3.42752 0.5
      vertex -7.28386 3.42752 0
    endloop
  endfacet
  facet normal -0 0 -1
    outer loop
      vertex 112.05 0 0
      vertex -5.5106 -5.8682 0
      vertex 112.034 0.505464 0
    endloop
  endfacet
  facet normal 0 0 1
    outer loop
      vertex -2.00195 -7.79709 0.5
      vertex -7.05427 -3.87812 0.5
      vertex -2.48759 -7.656 0.5
    endloop
  endfacet
  facet normal 0 0 1
    outer loop
      vertex 111.284 3.42752 0.5
      vertex -7.05427 -3.87812 0.5
      vertex 111.485 2.9634 0.5
    endloop
  endfacet
  facet normal -0.612915 -0.790149 -0
    outer loop
      vertex -5.13126 -6.20263 0.5
      vertex -5.13126 -6.20263 0
      vertex -4.73167 -6.51259 0.5
    endloop
  endfacet
  facet normal 0.790111 -0.612964 0
    outer loop
      vertex 110.513 -4.73167 0
      vertex 110.203 -5.13126 0.5
      vertex 110.203 -5.13126 0
    endloop
  endfacet
  facet normal -0.987689 0.156432 0
    outer loop
      vertex -7.90741 1.50842 0
      vertex -7.98652 1.00893 0.5
      vertex -7.90741 1.50842 0.5
    endloop
  endfacet
  facet normal 0.749555 0.661942 -0
    outer loop
      vertex 110.203 5.13126 0
      vertex 109.868 5.5106 0
      vertex 110.203 5.13126 0.5
    endloop
  endfacet
  facet normal -0.0941053 -0.995562 -0
    outer loop
      vertex -1.00893 -7.98652 0.5
      vertex -1.00893 -7.98652 0
      vertex -0.505464 -8.03411 0.5
    endloop
  endfacet
  facet normal -0.975916 0.218149 0
    outer loop
      vertex -7.90741 1.50842 0.5
      vertex -7.79709 2.00195 0
      vertex -7.90741 1.50842 0
    endloop
  endfacet
  facet normal 0.39651 0.91803 0
    outer loop
      vertex 106.963 7.4847 0.5
      vertex 107.428 7.28386 0.5
      vertex 106.963 7.4847 0
    endloop
  endfacet
  facet normal 0.660661 -0.750684 0
    outer loop
      vertex 109.131 -6.20263 0
      vertex 109.511 -5.8682 0.5
      vertex 109.131 -6.20263 0.5
    endloop
  endfacet
  facet normal -0.940882 -0.338734 -0
    outer loop
      vertex -7.4847 -2.9634 0.5
      vertex -7.656 -2.48759 0
      vertex -7.4847 -2.9634 0
    endloop
  endfacet
  facet normal 0 0 1
    outer loop
      vertex 111.054 3.87812 0.5
      vertex -7.05427 -3.87812 0.5
      vertex 111.284 3.42752 0.5
    endloop
  endfacet
  facet normal -0.995562 -0.0941053 -0
    outer loop
      vertex -7.98652 -1.00893 0.5
      vertex -8.03411 -0.505464 0
      vertex -7.98652 -1.00893 0
    endloop
  endfacet
  facet normal 0 1 0
    outer loop
      vertex 104 8.05 0.5
      vertex 104 8.05 0
      vertex 0 8.05 0.5
    endloop
  endfacet
  facet normal -0.995562 -0.0941053 -0
    outer loop
      vertex -8.03411 -0.505464 0.5
      vertex -8.03411 -0.505464 0
      vertex -7.98652 -1.00893 0.5
    endloop
  endfacet
  facet normal 0.987415 0.158148 0
    outer loop
      vertex 111.987 1.00893 0.5
      vertex 111.907 1.50842 0
      vertex 111.907 1.50842 0.5
    endloop
  endfacet
  facet normal 0.749555 -0.661942 0
    outer loop
      vertex 109.868 -5.5106 0
      vertex 110.203 -5.13126 0.5
      vertex 109.868 -5.5106 0.5
    endloop
  endfacet
  facet normal 0.660661 0.750684 -0
    outer loop
      vertex 109.511 5.8682 0
      vertex 109.131 6.20263 0
      vertex 109.511 5.8682 0.5
    endloop
  endfacet
  facet normal -0 0 -1
    outer loop
      vertex 111.485 -2.9634 0
      vertex -5.5106 -5.8682 0
      vertex 111.656 -2.48759 0
    endloop
  endfacet
  facet normal -0 -1 -0
    outer loop
      vertex 104 -8.05 0.5
      vertex -0 -8.05 0.5
      vertex 104 -8.05 0
    endloop
  endfacet
  facet normal 0.960342 -0.278824 0
    outer loop
      vertex 111.797 -2.00195 0
      vertex 111.797 -2.00195 0.5
      vertex 111.656 -2.48759 0
    endloop
  endfacet
  facet normal -0 0 1
    outer loop
      vertex -5.8682 5.5106 0.5
      vertex -7.05427 -3.87812 0.5
      vertex -5.5106 5.8682 0.5
    endloop
  endfacet
  facet normal 0 0 1
    outer loop
      vertex 105.508 7.90741 0.5
      vertex -7.05427 -3.87812 0.5
      vertex 106.002 7.79709 0.5
    endloop
  endfacet
  facet normal -0 0 -1
    outer loop
      vertex 111.987 -1.00893 0
      vertex -5.5106 -5.8682 0
      vertex 112.034 -0.505464 0
    endloop
  endfacet
  facet normal -0 -0 1
    outer loop
      vertex -7.28386 -3.42752 0.5
      vertex -7.05427 -3.87812 0.5
      vertex -7.4847 -2.9634 0.5
    endloop
  endfacet
  facet normal 0.995671 -0.0929487 0
    outer loop
      vertex 111.987 -1.00893 0
      vertex 112.034 -0.505464 0.5
      vertex 111.987 -1.00893 0.5
    endloop
  endfacet
  facet normal -0.218149 0.975916 0
    outer loop
      vertex -2.00195 7.79709 0
      vertex -2.00195 7.79709 0.5
      vertex -1.50842 7.90741 0
    endloop
  endfacet
  facet normal 0.999499 0.0316382 0
    outer loop
      vertex 112.034 0.505464 0.5
      vertex 112.05 0 0.5
      vertex 112.034 0.505464 0
    endloop
  endfacet
  facet normal -0 0 1
    outer loop
      vertex -7.98652 1.00893 0.5
      vertex -7.05427 -3.87812 0.5
      vertex -7.90741 1.50842 0.5
    endloop
  endfacet
  facet normal 0 0 -1
    outer loop
      vertex -2.00195 7.79709 0
      vertex -5.5106 -5.8682 0
      vertex -2.48759 7.656 0
    endloop
  endfacet
  facet normal -0.397143 0.917757 0
    outer loop
      vertex -2.9634 7.4847 0
      vertex -3.42752 7.28386 0.5
      vertex -2.9634 7.4847 0.5
    endloop
  endfacet
  facet normal 0.861114 -0.508411 0
    outer loop
      vertex 111.054 -3.87812 0.5
      vertex 110.797 -4.31341 0
      vertex 111.054 -3.87812 0
    endloop
  endfacet
  facet normal -0.562084 0.82708 0
    outer loop
      vertex -4.31341 6.79684 0
      vertex -4.73167 6.51259 0.5
      vertex -4.31341 6.79684 0.5
    endloop
  endfacet
  facet normal 0.0314498 0.999505 0
    outer loop
      vertex 104.505 8.03411 0.5
      vertex 104 8.05 0
      vertex 104 8.05 0.5
    endloop
  endfacet
  facet normal -0.0314209 -0.999506 0
    outer loop
      vertex -0 -8.05 0
      vertex -0 -8.05 0.5
      vertex -0.505464 -8.03411 0
    endloop
  endfacet
  facet normal 0.89068 -0.45463 0
    outer loop
      vertex 111.054 -3.87812 0
      vertex 111.284 -3.42752 0
      vertex 111.054 -3.87812 0.5
    endloop
  endfacet
  facet normal 0.790111 -0.612964 0
    outer loop
      vertex 110.513 -4.73167 0.5
      vertex 110.203 -5.13126 0.5
      vertex 110.513 -4.73167 0
    endloop
  endfacet
  facet normal 0 -0 -1
    outer loop
      vertex -5.5106 5.8682 0
      vertex -5.5106 -5.8682 0
      vertex -5.8682 5.5106 0
    endloop
  endfacet
  facet normal -0.218149 0.975916 0
    outer loop
      vertex -1.50842 7.90741 0
      vertex -2.00195 7.79709 0.5
      vertex -1.50842 7.90741 0.5
    endloop
  endfacet
  facet normal 0.995671 -0.0929487 0
    outer loop
      vertex 112.034 -0.505464 0
      vertex 112.034 -0.505464 0.5
      vertex 111.987 -1.00893 0
    endloop
  endfacet
  facet normal -0.397143 -0.917757 0
    outer loop
      vertex -3.42752 -7.28386 0
      vertex -2.9634 -7.4847 0.5
      vertex -3.42752 -7.28386 0.5
    endloop
  endfacet
  facet normal 0 -0 -1
    outer loop
      vertex -5.8682 5.5106 0
      vertex -5.5106 -5.8682 0
      vertex -6.20263 5.13126 0
    endloop
  endfacet
  facet normal -0 0 -1
    outer loop
      vertex 111.284 3.42752 0
      vertex -5.5106 -5.8682 0
      vertex 111.054 3.87812 0
    endloop
  endfacet
  facet normal -0.509042 0.860742 0
    outer loop
      vertex -3.87812 7.05427 0.5
      vertex -3.87812 7.05427 0
      vertex -4.31341 6.79684 0.5
    endloop
  endfacet
  facet normal 0 -0 -1
    outer loop
      vertex -8.03411 0.505464 0
      vertex -5.5106 -5.8682 0
      vertex -8.05 -0 0
    endloop
  endfacet
  facet normal -0 0 1
    outer loop
      vertex -7.4847 2.9634 0.5
      vertex -7.05427 -3.87812 0.5
      vertex -7.28386 3.42752 0.5
    endloop
  endfacet
  facet normal -0.891008 0.453987 0
    outer loop
      vertex -7.28386 3.42752 0
      vertex -7.28386 3.42752 0.5
      vertex -7.05427 3.87812 0
    endloop
  endfacet
  facet normal 0.61348 -0.78971 0
    outer loop
      vertex 109.131 -6.20263 0.5
      vertex 108.732 -6.51259 0
      vertex 109.131 -6.20263 0
    endloop
  endfacet
  facet normal 0.0314498 0.999505 -0
    outer loop
      vertex 104.505 8.03411 0
      vertex 104 8.05 0
      vertex 104.505 8.03411 0.5
    endloop
  endfacet
  facet normal 0 0 1
    outer loop
      vertex 110.203 -5.13126 0.5
      vertex -7.05427 -3.87812 0.5
      vertex 109.868 -5.5106 0.5
    endloop
  endfacet
  facet normal 0.7077 -0.706513 0
    outer loop
      vertex 109.868 -5.5106 0.5
      vertex 109.511 -5.8682 0.5
      vertex 109.868 -5.5106 0
    endloop
  endfacet
  facet normal -0.707107 -0.707107 0
    outer loop
      vertex -5.8682 -5.5106 0
      vertex -5.5106 -5.8682 0
      vertex -5.8682 -5.5106 0.5
    endloop
  endfacet
  facet normal -0.975916 -0.218149 0
    outer loop
      vertex -7.90741 -1.50842 0.5
      vertex -7.79709 -2.00195 0
      vertex -7.79709 -2.00195 0.5
    endloop
  endfacet
  facet normal 0 1 0
    outer loop
      vertex 0 8.05 0.5
      vertex 104 8.05 0
      vertex 0 8.05 0
    endloop
  endfacet
  facet normal -0.397143 -0.917757 0
    outer loop
      vertex -2.9634 -7.4847 0
      vertex -2.9634 -7.4847 0.5
      vertex -3.42752 -7.28386 0
    endloop
  endfacet
  facet normal -0.790149 0.612915 0
    outer loop
      vertex -6.51259 4.73167 0.5
      vertex -6.20263 5.13126 0.5
      vertex -6.51259 4.73167 0
    endloop
  endfacet
  facet normal 0 0 1
    outer loop
      vertex 111.284 -3.42752 0.5
      vertex -7.05427 -3.87812 0.5
      vertex 111.054 -3.87812 0.5
    endloop
  endfacet
  facet normal 0.987415 0.158148 -0
    outer loop
      vertex 111.987 1.00893 0
      vertex 111.907 1.50842 0
      vertex 111.987 1.00893 0.5
    endloop
  endfacet
  facet normal -0.999506 0.0314209 0
    outer loop
      vertex -8.05 -0 0
      vertex -8.03411 0.505464 0.5
      vertex -8.03411 0.505464 0
    endloop
  endfacet
  facet normal 0.339245 0.940698 -0
    outer loop
      vertex 106.488 7.656 0
      vertex 106.488 7.656 0.5
      vertex 106.963 7.4847 0
    endloop
  endfacet
  facet normal -0.750114 -0.661308 -0
    outer loop
      vertex -6.20263 -5.13126 0.5
      vertex -6.20263 -5.13126 0
      vertex -5.8682 -5.5106 0.5
    endloop
  endfacet
  facet normal -0.750114 -0.661308 -0
    outer loop
      vertex -5.8682 -5.5106 0.5
      vertex -6.20263 -5.13126 0
      vertex -5.8682 -5.5106 0
    endloop
  endfacet
  facet normal 0 0 1
    outer loop
      vertex 107.428 7.28386 0.5
      vertex -7.05427 -3.87812 0.5
      vertex 107.878 7.05427 0.5
    endloop
  endfacet
  facet normal -0 0 1
    outer loop
      vertex -8.05 -0 0.5
      vertex -7.05427 -3.87812 0.5
      vertex -8.03411 0.505464 0.5
    endloop
  endfacet
  facet normal -0.156432 0.987689 0
    outer loop
      vertex -1.00893 7.98652 0.5
      vertex -1.00893 7.98652 0
      vertex -1.50842 7.90741 0.5
    endloop
  endfacet
  facet normal 0.278798 -0.96035 0
    outer loop
      vertex 106.488 -7.656 0.5
      vertex 106.002 -7.79709 0
      vertex 106.488 -7.656 0
    endloop
  endfacet
  facet normal 0.0314498 -0.999505 0
    outer loop
      vertex 104.505 -8.03411 0
      vertex 104.505 -8.03411 0.5
      vertex 104 -8.05 0
    endloop
  endfacet
  facet normal -0.218149 -0.975916 0
    outer loop
      vertex -1.50842 -7.90741 0
      vertex -1.50842 -7.90741 0.5
      vertex -2.00195 -7.79709 0
    endloop
  endfacet
  facet normal 0.89068 0.45463 -0
    outer loop
      vertex 111.054 3.87812 0
      vertex 111.054 3.87812 0.5
      vertex 111.284 3.42752 0
    endloop
  endfacet
  facet normal 0.0940065 -0.995572 0
    outer loop
      vertex 105.009 -7.98652 0.5
      vertex 104.505 -8.03411 0.5
      vertex 105.009 -7.98652 0
    endloop
  endfacet
  facet normal 0 -1 0
    outer loop
      vertex 104 -8.05 0
      vertex -0 -8.05 0.5
      vertex -0 -8.05 0
    endloop
  endfacet
  facet normal -0.0314209 -0.999506 0
    outer loop
      vertex -0.505464 -8.03411 0
      vertex -0 -8.05 0.5
      vertex -0.505464 -8.03411 0.5
    endloop
  endfacet
  facet normal 0 0 -1
    outer loop
      vertex 106.002 -7.79709 0
      vertex -5.5106 -5.8682 0
      vertex 106.488 -7.656 0
    endloop
  endfacet
  facet normal 0.97605 0.217546 0
    outer loop
      vertex 111.797 2.00195 0.5
      vertex 111.907 1.50842 0
      vertex 111.797 2.00195 0
    endloop
  endfacet
  facet normal -0.940882 -0.338734 -0
    outer loop
      vertex -7.656 -2.48759 0.5
      vertex -7.656 -2.48759 0
      vertex -7.4847 -2.9634 0.5
    endloop
  endfacet
  facet normal -0 0 1
    outer loop
      vertex -7.05427 3.87812 0.5
      vertex -7.05427 -3.87812 0.5
      vertex -6.79684 4.31341 0.5
    endloop
  endfacet
  facet normal 0.278798 0.96035 -0
    outer loop
      vertex 106.488 7.656 0
      vertex 106.002 7.79709 0.5
      vertex 106.488 7.656 0.5
    endloop
  endfacet
  facet normal 0.97605 -0.217546 0
    outer loop
      vertex 111.797 -2.00195 0.5
      vertex 111.907 -1.50842 0
      vertex 111.907 -1.50842 0.5
    endloop
  endfacet
  facet normal -0.790149 -0.612915 -0
    outer loop
      vertex -6.20263 -5.13126 0.5
      vertex -6.51259 -4.73167 0.5
      vertex -6.20263 -5.13126 0
    endloop
  endfacet
  facet normal 0 0 1
    outer loop
      vertex 106.488 -7.656 0.5
      vertex -7.05427 -3.87812 0.5
      vertex 106.002 -7.79709 0.5
    endloop
  endfacet
  facet normal 0.217951 -0.97596 0
    outer loop
      vertex 105.508 -7.90741 0.5
      vertex 106.002 -7.79709 0
      vertex 106.002 -7.79709 0.5
    endloop
  endfacet
  facet normal -0.453987 0.891008 0
    outer loop
      vertex -3.42752 7.28386 0
      vertex -3.87812 7.05427 0
      vertex -3.42752 7.28386 0.5
    endloop
  endfacet
  facet normal 0 -0 -1
    outer loop
      vertex -7.4847 2.9634 0
      vertex -5.5106 -5.8682 0
      vertex -7.656 2.48759 0
    endloop
  endfacet
  facet normal -0 0 -1
    outer loop
      vertex 109.868 -5.5106 0
      vertex -5.5106 -5.8682 0
      vertex 110.203 -5.13126 0
    endloop
  endfacet
  facet normal 0.339245 -0.940698 0
    outer loop
      vertex 106.488 -7.656 0.5
      vertex 106.488 -7.656 0
      vertex 106.963 -7.4847 0.5
    endloop
  endfacet
  facet normal -0.987689 0.156432 0
    outer loop
      vertex -7.98652 1.00893 0
      vertex -7.98652 1.00893 0.5
      vertex -7.90741 1.50842 0
    endloop
  endfacet
  facet normal -0 0 1
    outer loop
      vertex -7.656 2.48759 0.5
      vertex -7.05427 -3.87812 0.5
      vertex -7.4847 2.9634 0.5
    endloop
  endfacet
  facet normal 0 0 1
    outer loop
      vertex 108.732 6.51259 0.5
      vertex -7.05427 -3.87812 0.5
      vertex 109.131 6.20263 0.5
    endloop
  endfacet
  facet normal -0 0 -1
    outer loop
      vertex 112.034 0.505464 0
      vertex -5.5106 -5.8682 0
      vertex 111.987 1.00893 0
    endloop
  endfacet
  facet normal 0.917641 -0.39741 0
    outer loop
      vertex 111.284 -3.42752 0.5
      vertex 111.284 -3.42752 0
      vertex 111.485 -2.9634 0.5
    endloop
  endfacet
  facet normal -0.790149 0.612915 0
    outer loop
      vertex -6.51259 4.73167 0
      vertex -6.20263 5.13126 0.5
      vertex -6.20263 5.13126 0
    endloop
  endfacet
  facet normal -0.612915 -0.790149 -0
    outer loop
      vertex -4.73167 -6.51259 0.5
      vertex -5.13126 -6.20263 0
      vertex -4.73167 -6.51259 0
    endloop
  endfacet
  facet normal 0 0 1
    outer loop
      vertex 110.513 -4.73167 0.5
      vertex -7.05427 -3.87812 0.5
      vertex 110.203 -5.13126 0.5
    endloop
  endfacet
  facet normal -0 0 1
    outer loop
      vertex -0.505464 8.03411 0.5
      vertex -7.05427 -3.87812 0.5
      vertex 0 8.05 0.5
    endloop
  endfacet
  facet normal -0 0 -1
    outer loop
      vertex 110.203 5.13126 0
      vertex -5.5106 -5.8682 0
      vertex 109.868 5.5106 0
    endloop
  endfacet
  facet normal 0 0 1
    outer loop
      vertex 110.797 -4.31341 0.5
      vertex -7.05427 -3.87812 0.5
      vertex 110.513 -4.73167 0.5
    endloop
  endfacet
  facet normal 0.82731 0.561746 0
    outer loop
      vertex 110.513 4.73167 0.5
      vertex 110.797 4.31341 0.5
      vertex 110.513 4.73167 0
    endloop
  endfacet
  facet normal -0.860742 0.509042 0
    outer loop
      vertex -6.79684 4.31341 0.5
      vertex -6.79684 4.31341 0
      vertex -7.05427 3.87812 0.5
    endloop
  endfacet
  facet normal 0.0314498 -0.999505 0
    outer loop
      vertex 104 -8.05 0
      vertex 104.505 -8.03411 0.5
      vertex 104 -8.05 0.5
    endloop
  endfacet
  facet normal 0.339245 -0.940698 0
    outer loop
      vertex 106.963 -7.4847 0.5
      vertex 106.488 -7.656 0
      vertex 106.963 -7.4847 0
    endloop
  endfacet
  facet normal 0 0 -1
    outer loop
      vertex 104.505 -8.03411 0
      vertex -5.5106 -5.8682 0
      vertex 105.009 -7.98652 0
    endloop
  endfacet
  facet normal -0.960294 -0.278988 0
    outer loop
      vertex -7.79709 -2.00195 0.5
      vertex -7.656 -2.48759 0
      vertex -7.656 -2.48759 0.5
    endloop
  endfacet
  facet normal 0 0 -1
    outer loop
      vertex -6.51259 -4.73167 0
      vertex -5.5106 -5.8682 0
      vertex -6.20263 -5.13126 0
    endloop
  endfacet
  facet normal 0 0 1
    outer loop
      vertex -4.73167 -6.51259 0.5
      vertex -7.05427 -3.87812 0.5
      vertex -5.13126 -6.20263 0.5
    endloop
  endfacet
  facet normal -0.940882 0.338734 0
    outer loop
      vertex -7.4847 2.9634 0.5
      vertex -7.656 2.48759 0
      vertex -7.656 2.48759 0.5
    endloop
  endfacet
  facet normal 0.156582 -0.987665 0
    outer loop
      vertex 105.508 -7.90741 0.5
      vertex 105.009 -7.98652 0.5
      vertex 105.508 -7.90741 0
    endloop
  endfacet
  facet normal 0 0 1
    outer loop
      vertex -5.8682 -5.5106 0.5
      vertex -7.05427 -3.87812 0.5
      vertex -6.20263 -5.13126 0.5
    endloop
  endfacet
  facet normal 0 0 -1
    outer loop
      vertex 104 -8.05 0
      vertex -5.5106 -5.8682 0
      vertex 104.505 -8.03411 0
    endloop
  endfacet
  facet normal -0.917757 0.397143 0
    outer loop
      vertex -7.4847 2.9634 0.5
      vertex -7.28386 3.42752 0.5
      vertex -7.4847 2.9634 0
    endloop
  endfacet
  facet normal -0 0 1
    outer loop
      vertex -7.28386 3.42752 0.5
      vertex -7.05427 -3.87812 0.5
      vertex -7.05427 3.87812 0.5
    endloop
  endfacet
  facet normal -0.960294 0.278988 0
    outer loop
      vertex -7.656 2.48759 0.5
      vertex -7.656 2.48759 0
      vertex -7.79709 2.00195 0.5
    endloop
  endfacet
  facet normal 0 0 1
    outer loop
      vertex 106.963 -7.4847 0.5
      vertex -7.05427 -3.87812 0.5
      vertex 106.488 -7.656 0.5
    endloop
  endfacet
  facet normal 0 0 -1
    outer loop
      vertex -7.656 -2.48759 0
      vertex -5.5106 -5.8682 0
      vertex -7.4847 -2.9634 0
    endloop
  endfacet
  facet normal -0 0 -1
    outer loop
      vertex 111.797 -2.00195 0
      vertex -5.5106 -5.8682 0
      vertex 111.907 -1.50842 0
    endloop
  endfacet
  facet normal 0.0940065 0.995572 0
    outer loop
      vertex 104.505 8.03411 0.5
      vertex 105.009 7.98652 0
      vertex 104.505 8.03411 0
    endloop
  endfacet
  facet normal 0.7077 0.706513 0
    outer loop
      vertex 109.868 5.5106 0.5
      vertex 109.868 5.5106 0
      vertex 109.511 5.8682 0.5
    endloop
  endfacet
  facet normal 0.82731 -0.561746 0
    outer loop
      vertex 110.513 -4.73167 0
      vertex 110.797 -4.31341 0
      vertex 110.513 -4.73167 0.5
    endloop
  endfacet
  facet normal 0.561405 0.827541 0
    outer loop
      vertex 108.313 6.79684 0.5
      vertex 108.732 6.51259 0
      vertex 108.313 6.79684 0
    endloop
  endfacet
  facet normal -0 0 -1
    outer loop
      vertex 104 8.05 0
      vertex -5.5106 -5.8682 0
      vertex 0 8.05 0
    endloop
  endfacet
  facet normal 0 0 -1
    outer loop
      vertex -2.48759 7.656 0
      vertex -5.5106 -5.8682 0
      vertex -2.9634 7.4847 0
    endloop
  endfacet
  facet normal -0 0 1
    outer loop
      vertex -6.20263 5.13126 0.5
      vertex -7.05427 -3.87812 0.5
      vertex -5.8682 5.5106 0.5
    endloop
  endfacet
  facet normal 0.156582 -0.987665 0
    outer loop
      vertex 105.508 -7.90741 0
      vertex 105.009 -7.98652 0.5
      vertex 105.009 -7.98652 0
    endloop
  endfacet
  facet normal -0.612915 0.790149 0
    outer loop
      vertex -5.13126 6.20263 0.5
      vertex -4.73167 6.51259 0.5
      vertex -5.13126 6.20263 0
    endloop
  endfacet
  facet normal -0.860742 -0.509042 -0
    outer loop
      vertex -6.79684 -4.31341 0.5
      vertex -7.05427 -3.87812 0.5
      vertex -6.79684 -4.31341 0
    endloop
  endfacet
  facet normal 0.660661 0.750684 0
    outer loop
      vertex 109.511 5.8682 0.5
      vertex 109.131 6.20263 0
      vertex 109.131 6.20263 0.5
    endloop
  endfacet
  facet normal 0.454467 0.890763 -0
    outer loop
      vertex 107.878 7.05427 0
      vertex 107.428 7.28386 0.5
      vertex 107.878 7.05427 0.5
    endloop
  endfacet
  facet normal 0 0 -1
    outer loop
      vertex -2.9634 -7.4847 0
      vertex -5.5106 -5.8682 0
      vertex -2.48759 -7.656 0
    endloop
  endfacet
  facet normal -0 0 -1
    outer loop
      vertex 110.797 4.31341 0
      vertex -5.5106 -5.8682 0
      vertex 110.513 4.73167 0
    endloop
  endfacet
  facet normal -0.975916 0.218149 0
    outer loop
      vertex -7.79709 2.00195 0.5
      vertex -7.79709 2.00195 0
      vertex -7.90741 1.50842 0.5
    endloop
  endfacet
  facet normal 0.917641 0.39741 0
    outer loop
      vertex 111.485 2.9634 0.5
      vertex 111.485 2.9634 0
      vertex 111.284 3.42752 0.5
    endloop
  endfacet
  facet normal 0.960342 0.278824 0
    outer loop
      vertex 111.797 2.00195 0.5
      vertex 111.656 2.48759 0
      vertex 111.656 2.48759 0.5
    endloop
  endfacet
  facet normal -0 0 1
    outer loop
      vertex -5.5106 5.8682 0.5
      vertex -7.05427 -3.87812 0.5
      vertex -5.13126 6.20263 0.5
    endloop
  endfacet
  facet normal -0 0 1
    outer loop
      vertex -5.13126 6.20263 0.5
      vertex -7.05427 -3.87812 0.5
      vertex -4.73167 6.51259 0.5
    endloop
  endfacet
  facet normal -0.995562 0.0941053 0
    outer loop
      vertex -7.98652 1.00893 0
      vertex -8.03411 0.505464 0.5
      vertex -7.98652 1.00893 0.5
    endloop
  endfacet
  facet normal -0.278988 0.960294 0
    outer loop
      vertex -2.48759 7.656 0
      vertex -2.48759 7.656 0.5
      vertex -2.00195 7.79709 0
    endloop
  endfacet
  facet normal 0 0 -1
    outer loop
      vertex -3.87812 -7.05427 0
      vertex -5.5106 -5.8682 0
      vertex -3.42752 -7.28386 0
    endloop
  endfacet
  facet normal -0 0 -1
    outer loop
      vertex 109.131 6.20263 0
      vertex -5.5106 -5.8682 0
      vertex 108.732 6.51259 0
    endloop
  endfacet
  facet normal -0.940882 0.338734 0
    outer loop
      vertex -7.4847 2.9634 0
      vertex -7.656 2.48759 0
      vertex -7.4847 2.9634 0.5
    endloop
  endfacet
  facet normal -0 0 1
    outer loop
      vertex -2.00195 7.79709 0.5
      vertex -7.05427 -3.87812 0.5
      vertex -1.50842 7.90741 0.5
    endloop
  endfacet
  facet normal -0 0 -1
    outer loop
      vertex 105.508 7.90741 0
      vertex -5.5106 -5.8682 0
      vertex 105.009 7.98652 0
    endloop
  endfacet
  facet normal 0.999499 -0.0316382 0
    outer loop
      vertex 112.034 -0.505464 0
      vertex 112.05 0 0.5
      vertex 112.034 -0.505464 0.5
    endloop
  endfacet
  facet normal 0 0 1
    outer loop
      vertex 107.428 -7.28386 0.5
      vertex -7.05427 -3.87812 0.5
      vertex 106.963 -7.4847 0.5
    endloop
  endfacet
  facet normal -0.999506 0.0314209 0
    outer loop
      vertex -8.05 -0 0.5
      vertex -8.03411 0.505464 0.5
      vertex -8.05 -0 0
    endloop
  endfacet
  facet normal -0.995562 0.0941053 0
    outer loop
      vertex -8.03411 0.505464 0
      vertex -8.03411 0.505464 0.5
      vertex -7.98652 1.00893 0
    endloop
  endfacet
  facet normal -0.860742 0.509042 0
    outer loop
      vertex -7.05427 3.87812 0.5
      vertex -6.79684 4.31341 0
      vertex -7.05427 3.87812 0
    endloop
  endfacet
  facet normal 0.995671 0.0929487 -0
    outer loop
      vertex 112.034 0.505464 0
      vertex 111.987 1.00893 0
      vertex 112.034 0.505464 0.5
    endloop
  endfacet
  facet normal 0 0 1
    outer loop
      vertex 111.907 1.50842 0.5
      vertex -7.05427 -3.87812 0.5
      vertex 111.987 1.00893 0.5
    endloop
  endfacet
  facet normal 0 0 1
    outer loop
      vertex 108.732 -6.51259 0.5
      vertex -7.05427 -3.87812 0.5
      vertex 108.313 -6.79684 0.5
    endloop
  endfacet
  facet normal -0 0 -1
    outer loop
      vertex 104.505 8.03411 0
      vertex -5.5106 -5.8682 0
      vertex 104 8.05 0
    endloop
  endfacet
  facet normal 0 0 -1
    outer loop
      vertex -0 -8.05 0
      vertex -5.5106 -5.8682 0
      vertex 104 -8.05 0
    endloop
  endfacet
  facet normal 0.749555 -0.661942 0
    outer loop
      vertex 110.203 -5.13126 0
      vertex 110.203 -5.13126 0.5
      vertex 109.868 -5.5106 0
    endloop
  endfacet
  facet normal -0.397143 0.917757 0
    outer loop
      vertex -3.42752 7.28386 0
      vertex -3.42752 7.28386 0.5
      vertex -2.9634 7.4847 0
    endloop
  endfacet
  facet normal -0 0 1
    outer loop
      vertex -3.87812 7.05427 0.5
      vertex -7.05427 -3.87812 0.5
      vertex -3.42752 7.28386 0.5
    endloop
  endfacet
  facet normal -0.891008 -0.453987 0
    outer loop
      vertex -7.28386 -3.42752 0
      vertex -7.05427 -3.87812 0.5
      vertex -7.28386 -3.42752 0.5
    endloop
  endfacet
  facet normal -0 0 1
    outer loop
      vertex -6.51259 4.73167 0.5
      vertex -7.05427 -3.87812 0.5
      vertex -6.20263 5.13126 0.5
    endloop
  endfacet
  facet normal 0 0 1
    outer loop
      vertex 106.963 7.4847 0.5
      vertex -7.05427 -3.87812 0.5
      vertex 107.428 7.28386 0.5
    endloop
  endfacet
  facet normal -0 0 1
    outer loop
      vertex -6.79684 4.31341 0.5
      vertex -7.05427 -3.87812 0.5
      vertex -6.51259 4.73167 0.5
    endloop
  endfacet
  facet normal 0.156582 0.987665 0
    outer loop
      vertex 105.508 7.90741 0.5
      vertex 105.009 7.98652 0
      vertex 105.009 7.98652 0.5
    endloop
  endfacet
  facet normal 0.861114 -0.508411 0
    outer loop
      vertex 110.797 -4.31341 0.5
      vertex 110.797 -4.31341 0
      vertex 111.054 -3.87812 0.5
    endloop
  endfacet
  facet normal 0.61348 0.78971 0
    outer loop
      vertex 108.732 6.51259 0.5
      vertex 109.131 6.20263 0
      vertex 108.732 6.51259 0
    endloop
  endfacet
  facet normal 0 0 1
    outer loop
      vertex 109.131 -6.20263 0.5
      vertex -7.05427 -3.87812 0.5
      vertex 108.732 -6.51259 0.5
    endloop
  endfacet
  facet normal -0 -0 1
    outer loop
      vertex -7.90741 -1.50842 0.5
      vertex -7.05427 -3.87812 0.5
      vertex -7.98652 -1.00893 0.5
    endloop
  endfacet
  facet normal -0 0 1
    outer loop
      vertex -8.03411 0.505464 0.5
      vertex -7.05427 -3.87812 0.5
      vertex -7.98652 1.00893 0.5
    endloop
  endfacet
  facet normal 0.339245 0.940698 -0
    outer loop
      vertex 106.963 7.4847 0
      vertex 106.488 7.656 0.5
      vertex 106.963 7.4847 0.5
    endloop
  endfacet
  facet normal -0 0 -1
    outer loop
      vertex 106.488 7.656 0
      vertex -5.5106 -5.8682 0
      vertex 106.002 7.79709 0
    endloop
  endfacet
  facet normal 0.89068 -0.45463 0
    outer loop
      vertex 111.054 -3.87812 0.5
      vertex 111.284 -3.42752 0
      vertex 111.284 -3.42752 0.5
    endloop
  endfacet
  facet normal 0.0940065 -0.995572 0
    outer loop
      vertex 105.009 -7.98652 0
      vertex 104.505 -8.03411 0.5
      vertex 104.505 -8.03411 0
    endloop
  endfacet
  facet normal -0.509042 0.860742 0
    outer loop
      vertex -4.31341 6.79684 0.5
      vertex -3.87812 7.05427 0
      vertex -4.31341 6.79684 0
    endloop
  endfacet
  facet normal 0.561405 0.827541 0
    outer loop
      vertex 108.732 6.51259 0.5
      vertex 108.732 6.51259 0
      vertex 108.313 6.79684 0.5
    endloop
  endfacet
  facet normal 0 0 -1
    outer loop
      vertex -1.00893 -7.98652 0
      vertex -5.5106 -5.8682 0
      vertex -0.505464 -8.03411 0
    endloop
  endfacet
  facet normal 0.941071 -0.338209 0
    outer loop
      vertex 111.656 -2.48759 0.5
      vertex 111.485 -2.9634 0
      vertex 111.656 -2.48759 0
    endloop
  endfacet
  facet normal 0.941071 0.338209 0
    outer loop
      vertex 111.656 2.48759 0.5
      vertex 111.485 2.9634 0
      vertex 111.485 2.9634 0.5
    endloop
  endfacet
  facet normal 0.861114 0.508411 -0
    outer loop
      vertex 111.054 3.87812 0
      vertex 110.797 4.31341 0.5
      vertex 111.054 3.87812 0.5
    endloop
  endfacet
  facet normal -0.278988 0.960294 0
    outer loop
      vertex -2.00195 7.79709 0
      vertex -2.48759 7.656 0.5
      vertex -2.00195 7.79709 0.5
    endloop
  endfacet
  facet normal 0.917641 -0.39741 0
    outer loop
      vertex 111.485 -2.9634 0.5
      vertex 111.284 -3.42752 0
      vertex 111.485 -2.9634 0
    endloop
  endfacet
  facet normal 0.454467 0.890763 -0
    outer loop
      vertex 107.428 7.28386 0
      vertex 107.428 7.28386 0.5
      vertex 107.878 7.05427 0
    endloop
  endfacet
  facet normal 0.97605 0.217546 0
    outer loop
      vertex 111.907 1.50842 0.5
      vertex 111.907 1.50842 0
      vertex 111.797 2.00195 0.5
    endloop
  endfacet
  facet normal -0.661308 0.750114 0
    outer loop
      vertex -5.13126 6.20263 0
      vertex -5.5106 5.8682 0.5
      vertex -5.13126 6.20263 0.5
    endloop
  endfacet
  facet normal -0.278988 -0.960294 0
    outer loop
      vertex -2.00195 -7.79709 0
      vertex -2.48759 -7.656 0.5
      vertex -2.48759 -7.656 0
    endloop
  endfacet
  facet normal 0 0 1
    outer loop
      vertex 110.513 4.73167 0.5
      vertex -7.05427 -3.87812 0.5
      vertex 110.797 4.31341 0.5
    endloop
  endfacet
  facet normal 0.790111 0.612964 0
    outer loop
      vertex 110.513 4.73167 0.5
      vertex 110.203 5.13126 0
      vertex 110.203 5.13126 0.5
    endloop
  endfacet
  facet normal -0 0 1
    outer loop
      vertex -4.73167 6.51259 0.5
      vertex -7.05427 -3.87812 0.5
      vertex -4.31341 6.79684 0.5
    endloop
  endfacet
  facet normal -0.0314209 0.999506 0
    outer loop
      vertex 0 8.05 0
      vertex -0.505464 8.03411 0
      vertex 0 8.05 0.5
    endloop
  endfacet
  facet normal 0 0 -1
    outer loop
      vertex -2.48759 -7.656 0
      vertex -5.5106 -5.8682 0
      vertex -2.00195 -7.79709 0
    endloop
  endfacet
  facet normal -0.562084 -0.82708 0
    outer loop
      vertex -4.31341 -6.79684 0
      vertex -4.31341 -6.79684 0.5
      vertex -4.73167 -6.51259 0
    endloop
  endfacet
  facet normal 0 -0 -1
    outer loop
      vertex -6.79684 4.31341 0
      vertex -5.5106 -5.8682 0
      vertex -7.05427 3.87812 0
    endloop
  endfacet
  facet normal 0.995671 0.0929487 0
    outer loop
      vertex 112.034 0.505464 0.5
      vertex 111.987 1.00893 0
      vertex 111.987 1.00893 0.5
    endloop
  endfacet
  facet normal -0.707107 0.707107 0
    outer loop
      vertex -5.5106 5.8682 0.5
      vertex -5.8682 5.5106 0
      vertex -5.8682 5.5106 0.5
    endloop
  endfacet
  facet normal 0 0 1
    outer loop
      vertex 111.797 2.00195 0.5
      vertex -7.05427 -3.87812 0.5
      vertex 111.907 1.50842 0.5
    endloop
  endfacet
  facet normal 0 0 1
    outer loop
      vertex 111.987 1.00893 0.5
      vertex -7.05427 -3.87812 0.5
      vertex 112.034 0.505464 0.5
    endloop
  endfacet
  facet normal 0.156582 0.987665 -0
    outer loop
      vertex 105.508 7.90741 0
      vertex 105.009 7.98652 0
      vertex 105.508 7.90741 0.5
    endloop
  endfacet
  facet normal -0 0 1
    outer loop
      vertex -7.79709 2.00195 0.5
      vertex -7.05427 -3.87812 0.5
      vertex -7.656 2.48759 0.5
    endloop
  endfacet
  facet normal 0.278798 -0.96035 0
    outer loop
      vertex 106.002 -7.79709 0.5
      vertex 106.002 -7.79709 0
      vertex 106.488 -7.656 0.5
    endloop
  endfacet
  facet normal -0.338734 0.940882 0
    outer loop
      vertex -2.9634 7.4847 0
      vertex -2.48759 7.656 0.5
      vertex -2.48759 7.656 0
    endloop
  endfacet
  facet normal -0.0941053 0.995562 0
    outer loop
      vertex -1.00893 7.98652 0.5
      vertex -0.505464 8.03411 0
      vertex -1.00893 7.98652 0
    endloop
  endfacet
  facet normal 0.82731 -0.561746 0
    outer loop
      vertex 110.513 -4.73167 0.5
      vertex 110.797 -4.31341 0
      vertex 110.797 -4.31341 0.5
    endloop
  endfacet
  facet normal 0 0 1
    outer loop
      vertex 106.488 7.656 0.5
      vertex -7.05427 -3.87812 0.5
      vertex 106.963 7.4847 0.5
    endloop
  endfacet
  facet normal 0 0 1
    outer loop
      vertex 109.131 6.20263 0.5
      vertex -7.05427 -3.87812 0.5
      vertex 109.511 5.8682 0.5
    endloop
  endfacet
  facet normal -0.562084 0.82708 0
    outer loop
      vertex -4.73167 6.51259 0
      vertex -4.73167 6.51259 0.5
      vertex -4.31341 6.79684 0
    endloop
  endfacet
  facet normal -0 0 1
    outer loop
      vertex -2.9634 7.4847 0.5
      vertex -7.05427 -3.87812 0.5
      vertex -2.48759 7.656 0.5
    endloop
  endfacet
  facet normal 0.97605 -0.217546 0
    outer loop
      vertex 111.797 -2.00195 0
      vertex 111.907 -1.50842 0
      vertex 111.797 -2.00195 0.5
    endloop
  endfacet
  facet normal 0.941071 -0.338209 0
    outer loop
      vertex 111.485 -2.9634 0.5
      vertex 111.485 -2.9634 0
      vertex 111.656 -2.48759 0.5
    endloop
  endfacet
  facet normal 0 0 1
    outer loop
      vertex -2.48759 -7.656 0.5
      vertex -7.05427 -3.87812 0.5
      vertex -2.9634 -7.4847 0.5
    endloop
  endfacet
  facet normal 0 0 -1
    outer loop
      vertex -0.505464 -8.03411 0
      vertex -5.5106 -5.8682 0
      vertex -0 -8.05 0
    endloop
  endfacet
  facet normal 0 0 1
    outer loop
      vertex 111.054 -3.87812 0.5
      vertex -7.05427 -3.87812 0.5
      vertex 110.797 -4.31341 0.5
    endloop
  endfacet
  facet normal -0.338734 0.940882 0
    outer loop
      vertex -2.9634 7.4847 0.5
      vertex -2.48759 7.656 0.5
      vertex -2.9634 7.4847 0
    endloop
  endfacet
  facet normal 0.39651 -0.91803 0
    outer loop
      vertex 106.963 -7.4847 0.5
      vertex 107.428 -7.28386 0
      vertex 107.428 -7.28386 0.5
    endloop
  endfacet
  facet normal 0.39651 -0.91803 0
    outer loop
      vertex 106.963 -7.4847 0
      vertex 107.428 -7.28386 0
      vertex 106.963 -7.4847 0.5
    endloop
  endfacet
  facet normal 0 0 1
    outer loop
      vertex 109.511 5.8682 0.5
      vertex -7.05427 -3.87812 0.5
      vertex 109.868 5.5106 0.5
    endloop
  endfacet
  facet normal -0 0 -1
    outer loop
      vertex 111.987 1.00893 0
      vertex -5.5106 -5.8682 0
      vertex 111.907 1.50842 0
    endloop
  endfacet
  facet normal -0 -0 1
    outer loop
      vertex -7.4847 -2.9634 0.5
      vertex -7.05427 -3.87812 0.5
      vertex -7.656 -2.48759 0.5
    endloop
  endfacet
  facet normal 0 0 1
    outer loop
      vertex 112.05 0 0.5
      vertex -7.05427 -3.87812 0.5
      vertex 112.034 -0.505464 0.5
    endloop
  endfacet
  facet normal 0.999499 -0.0316382 0
    outer loop
      vertex 112.05 0 0
      vertex 112.05 0 0.5
      vertex 112.034 -0.505464 0
    endloop
  endfacet
  facet normal 0.999499 0.0316382 0
    outer loop
      vertex 112.034 0.505464 0
      vertex 112.05 0 0.5
      vertex 112.05 0 0
    endloop
  endfacet
  facet normal 0 -0 -1
    outer loop
      vertex -7.656 2.48759 0
      vertex -5.5106 -5.8682 0
      vertex -7.79709 2.00195 0
    endloop
  endfacet
  facet normal 0 0 -1
    outer loop
      vertex -5.13126 -6.20263 0
      vertex -5.5106 -5.8682 0
      vertex -4.73167 -6.51259 0
    endloop
  endfacet
  facet normal -0.960294 -0.278988 0
    outer loop
      vertex -7.79709 -2.00195 0
      vertex -7.656 -2.48759 0
      vertex -7.79709 -2.00195 0.5
    endloop
  endfacet
  facet normal -0 0 1
    outer loop
      vertex -3.42752 7.28386 0.5
      vertex -7.05427 -3.87812 0.5
      vertex -2.9634 7.4847 0.5
    endloop
  endfacet
  facet normal -0 0 -1
    outer loop
      vertex 111.054 -3.87812 0
      vertex -5.5106 -5.8682 0
      vertex 111.284 -3.42752 0
    endloop
  endfacet
  facet normal 0 0 -1
    outer loop
      vertex -1.50842 7.90741 0
      vertex -5.5106 -5.8682 0
      vertex -2.00195 7.79709 0
    endloop
  endfacet
  facet normal 0 0 1
    outer loop
      vertex 111.656 -2.48759 0.5
      vertex -7.05427 -3.87812 0.5
      vertex 111.485 -2.9634 0.5
    endloop
  endfacet
  facet normal 0.861114 0.508411 -0
    outer loop
      vertex 110.797 4.31341 0
      vertex 110.797 4.31341 0.5
      vertex 111.054 3.87812 0
    endloop
  endfacet
  facet normal 0.987415 -0.158148 0
    outer loop
      vertex 111.987 -1.00893 0.5
      vertex 111.907 -1.50842 0
      vertex 111.987 -1.00893 0
    endloop
  endfacet
  facet normal -0 0 -1
    outer loop
      vertex 111.907 -1.50842 0
      vertex -5.5106 -5.8682 0
      vertex 111.987 -1.00893 0
    endloop
  endfacet
  facet normal -0.661308 0.750114 0
    outer loop
      vertex -5.5106 5.8682 0
      vertex -5.5106 5.8682 0.5
      vertex -5.13126 6.20263 0
    endloop
  endfacet
  facet normal 0.0940065 0.995572 0
    outer loop
      vertex 105.009 7.98652 0.5
      vertex 105.009 7.98652 0
      vertex 104.505 8.03411 0.5
    endloop
  endfacet
  facet normal -0.707107 0.707107 0
    outer loop
      vertex -5.5106 5.8682 0
      vertex -5.8682 5.5106 0
      vertex -5.5106 5.8682 0.5
    endloop
  endfacet
  facet normal 0 0 1
    outer loop
      vertex 112.034 -0.505464 0.5
      vertex -7.05427 -3.87812 0.5
      vertex 111.987 -1.00893 0.5
    endloop
  endfacet
  facet normal 0 0 1
    outer loop
      vertex 107.878 7.05427 0.5
      vertex -7.05427 -3.87812 0.5
      vertex 108.313 6.79684 0.5
    endloop
  endfacet
  facet normal 0 0 1
    outer loop
      vertex 111.485 -2.9634 0.5
      vertex -7.05427 -3.87812 0.5
      vertex 111.284 -3.42752 0.5
    endloop
  endfacet
  facet normal 0.941071 0.338209 -0
    outer loop
      vertex 111.656 2.48759 0
      vertex 111.485 2.9634 0
      vertex 111.656 2.48759 0.5
    endloop
  endfacet
  facet normal -0.156432 0.987689 0
    outer loop
      vertex -1.50842 7.90741 0.5
      vertex -1.00893 7.98652 0
      vertex -1.50842 7.90741 0
    endloop
  endfacet
  facet normal 0.89068 0.45463 -0
    outer loop
      vertex 111.284 3.42752 0
      vertex 111.054 3.87812 0.5
      vertex 111.284 3.42752 0.5
    endloop
  endfacet
  facet normal 0.278798 0.96035 -0
    outer loop
      vertex 106.002 7.79709 0
      vertex 106.002 7.79709 0.5
      vertex 106.488 7.656 0
    endloop
  endfacet
  facet normal 0.960342 0.278824 -0
    outer loop
      vertex 111.797 2.00195 0
      vertex 111.656 2.48759 0
      vertex 111.797 2.00195 0.5
    endloop
  endfacet
  facet normal 0.509293 -0.860593 0
    outer loop
      vertex 108.313 -6.79684 0.5
      vertex 107.878 -7.05427 0
      vertex 108.313 -6.79684 0
    endloop
  endfacet
  facet normal -0.750114 0.661308 0
    outer loop
      vertex -5.8682 5.5106 0
      vertex -6.20263 5.13126 0.5
      vertex -5.8682 5.5106 0.5
    endloop
  endfacet
  facet normal -0.750114 0.661308 0
    outer loop
      vertex -6.20263 5.13126 0
      vertex -6.20263 5.13126 0.5
      vertex -5.8682 5.5106 0
    endloop
  endfacet
  facet normal 0 0 1
    outer loop
      vertex 105.009 7.98652 0.5
      vertex -7.05427 -3.87812 0.5
      vertex 105.508 7.90741 0.5
    endloop
  endfacet
  facet normal -0.562084 -0.82708 0
    outer loop
      vertex -4.73167 -6.51259 0
      vertex -4.31341 -6.79684 0.5
      vertex -4.73167 -6.51259 0.5
    endloop
  endfacet
  facet normal 0 0 1
    outer loop
      vertex 111.907 -1.50842 0.5
      vertex -7.05427 -3.87812 0.5
      vertex 111.797 -2.00195 0.5
    endloop
  endfacet
  facet normal 0 0 -1
    outer loop
      vertex 108.313 -6.79684 0
      vertex -5.5106 -5.8682 0
      vertex 108.732 -6.51259 0
    endloop
  endfacet
  facet normal -0 0 1
    outer loop
      vertex -4.31341 6.79684 0.5
      vertex -7.05427 -3.87812 0.5
      vertex -3.87812 7.05427 0.5
    endloop
  endfacet
  facet normal 0 0 -1
    outer loop
      vertex -3.87812 7.05427 0
      vertex -5.5106 -5.8682 0
      vertex -4.31341 6.79684 0
    endloop
  endfacet
  facet normal 0 0 -1
    outer loop
      vertex 105.009 -7.98652 0
      vertex -5.5106 -5.8682 0
      vertex 105.508 -7.90741 0
    endloop
  endfacet
  facet normal -0.82708 0.562084 0
    outer loop
      vertex -6.51259 4.73167 0
      vertex -6.79684 4.31341 0
      vertex -6.51259 4.73167 0.5
    endloop
  endfacet
  facet normal 0 0 -1
    outer loop
      vertex 109.511 -5.8682 0
      vertex -5.5106 -5.8682 0
      vertex 109.868 -5.5106 0
    endloop
  endfacet
  facet normal -0.999506 -0.0314209 0
    outer loop
      vertex -8.05 -0 0
      vertex -8.03411 -0.505464 0
      vertex -8.05 -0 0.5
    endloop
  endfacet
  facet normal -0.975916 -0.218149 0
    outer loop
      vertex -7.90741 -1.50842 0
      vertex -7.79709 -2.00195 0
      vertex -7.90741 -1.50842 0.5
    endloop
  endfacet
  facet normal 0.454467 -0.890763 0
    outer loop
      vertex 107.428 -7.28386 0.5
      vertex 107.878 -7.05427 0
      vertex 107.878 -7.05427 0.5
    endloop
  endfacet
  facet normal -0.218149 -0.975916 0
    outer loop
      vertex -2.00195 -7.79709 0
      vertex -1.50842 -7.90741 0.5
      vertex -2.00195 -7.79709 0.5
    endloop
  endfacet
  facet normal -0.453987 -0.891008 0
    outer loop
      vertex -3.42752 -7.28386 0
      vertex -3.87812 -7.05427 0.5
      vertex -3.87812 -7.05427 0
    endloop
  endfacet
  facet normal -0 0 1
    outer loop
      vertex -7.90741 1.50842 0.5
      vertex -7.05427 -3.87812 0.5
      vertex -7.79709 2.00195 0.5
    endloop
  endfacet
  facet normal 0.217951 0.97596 0
    outer loop
      vertex 105.508 7.90741 0.5
      vertex 106.002 7.79709 0.5
      vertex 105.508 7.90741 0
    endloop
  endfacet
  facet normal -0.960294 0.278988 0
    outer loop
      vertex -7.79709 2.00195 0.5
      vertex -7.656 2.48759 0
      vertex -7.79709 2.00195 0
    endloop
  endfacet
  facet normal 0.917641 0.39741 0
    outer loop
      vertex 111.284 3.42752 0.5
      vertex 111.485 2.9634 0
      vertex 111.284 3.42752 0
    endloop
  endfacet
  facet normal 0 0 -1
    outer loop
      vertex 107.878 -7.05427 0
      vertex -5.5106 -5.8682 0
      vertex 108.313 -6.79684 0
    endloop
  endfacet
  facet normal -0 0 -1
    outer loop
      vertex 111.797 2.00195 0
      vertex -5.5106 -5.8682 0
      vertex 111.656 2.48759 0
    endloop
  endfacet
  facet normal -0 0 1
    outer loop
      vertex -2.48759 7.656 0.5
      vertex -7.05427 -3.87812 0.5
      vertex -2.00195 7.79709 0.5
    endloop
  endfacet
  facet normal -0 -0 1
    outer loop
      vertex -7.98652 -1.00893 0.5
      vertex -7.05427 -3.87812 0.5
      vertex -8.03411 -0.505464 0.5
    endloop
  endfacet
  facet normal -0.338734 -0.940882 0
    outer loop
      vertex -2.48759 -7.656 0
      vertex -2.48759 -7.656 0.5
      vertex -2.9634 -7.4847 0
    endloop
  endfacet
  facet normal -0 0 -1
    outer loop
      vertex 106.963 7.4847 0
      vertex -5.5106 -5.8682 0
      vertex 106.488 7.656 0
    endloop
  endfacet
  facet normal 0 0 1
    outer loop
      vertex 109.511 -5.8682 0.5
      vertex -7.05427 -3.87812 0.5
      vertex 109.131 -6.20263 0.5
    endloop
  endfacet
  facet normal 0 0 1
    outer loop
      vertex 110.203 5.13126 0.5
      vertex -7.05427 -3.87812 0.5
      vertex 110.513 4.73167 0.5
    endloop
  endfacet
  facet normal 0 0 -1
    outer loop
      vertex -3.42752 7.28386 0
      vertex -5.5106 -5.8682 0
      vertex -3.87812 7.05427 0
    endloop
  endfacet
  facet normal -0 0 -1
    outer loop
      vertex 110.203 -5.13126 0
      vertex -5.5106 -5.8682 0
      vertex 110.513 -4.73167 0
    endloop
  endfacet
  facet normal 0 0 -1
    outer loop
      vertex -4.73167 6.51259 0
      vertex -5.5106 -5.8682 0
      vertex -5.13126 6.20263 0
    endloop
  endfacet
  facet normal 0.660661 -0.750684 0
    outer loop
      vertex 109.511 -5.8682 0
      vertex 109.511 -5.8682 0.5
      vertex 109.131 -6.20263 0
    endloop
  endfacet
  facet normal 0 -0 -1
    outer loop
      vertex -6.20263 5.13126 0
      vertex -5.5106 -5.8682 0
      vertex -6.51259 4.73167 0
    endloop
  endfacet
  facet normal -0.0941053 -0.995562 -0
    outer loop
      vertex -0.505464 -8.03411 0.5
      vertex -1.00893 -7.98652 0
      vertex -0.505464 -8.03411 0
    endloop
  endfacet
  facet normal -0.891008 -0.453987 0
    outer loop
      vertex -7.05427 -3.87812 0
      vertex -7.05427 -3.87812 0.5
      vertex -7.28386 -3.42752 0
    endloop
  endfacet
  facet normal 0 0 1
    outer loop
      vertex -2.9634 -7.4847 0.5
      vertex -7.05427 -3.87812 0.5
      vertex -3.42752 -7.28386 0.5
    endloop
  endfacet
  facet normal 0 0 -1
    outer loop
      vertex -7.79709 -2.00195 0
      vertex -5.5106 -5.8682 0
      vertex -7.656 -2.48759 0
    endloop
  endfacet
  facet normal -0 0 -1
    outer loop
      vertex 110.797 -4.31341 0
      vertex -5.5106 -5.8682 0
      vertex 111.054 -3.87812 0
    endloop
  endfacet
  facet normal 0 0 1
    outer loop
      vertex 104.505 8.03411 0.5
      vertex -7.05427 -3.87812 0.5
      vertex 105.009 7.98652 0.5
    endloop
  endfacet
  facet normal 0 0 -1
    outer loop
      vertex -8.05 -0 0
      vertex -5.5106 -5.8682 0
      vertex -8.03411 -0.505464 0
    endloop
  endfacet
  facet normal -0 0 -1
    outer loop
      vertex 108.732 6.51259 0
      vertex -5.5106 -5.8682 0
      vertex 108.313 6.79684 0
    endloop
  endfacet
  facet normal -0.987689 -0.156432 -0
    outer loop
      vertex -7.90741 -1.50842 0.5
      vertex -7.98652 -1.00893 0
      vertex -7.90741 -1.50842 0
    endloop
  endfacet
  facet normal -0.860742 -0.509042 0
    outer loop
      vertex -6.79684 -4.31341 0
      vertex -7.05427 -3.87812 0.5
      vertex -7.05427 -3.87812 0
    endloop
  endfacet
  facet normal -0 0 -1
    outer loop
      vertex 112.034 -0.505464 0
      vertex -5.5106 -5.8682 0
      vertex 112.05 0 0
    endloop
  endfacet
  facet normal 0 0 1
    outer loop
      vertex 109.868 5.5106 0.5
      vertex -7.05427 -3.87812 0.5
      vertex 110.203 5.13126 0.5
    endloop
  endfacet
  facet normal 0 0 -1
    outer loop
      vertex -1.00893 7.98652 0
      vertex -5.5106 -5.8682 0
      vertex -1.50842 7.90741 0
    endloop
  endfacet
  facet normal 0 0 -1
    outer loop
      vertex 105.508 -7.90741 0
      vertex -5.5106 -5.8682 0
      vertex 106.002 -7.79709 0
    endloop
  endfacet
  facet normal 0 0 -1
    outer loop
      vertex 108.732 -6.51259 0
      vertex -5.5106 -5.8682 0
      vertex 109.131 -6.20263 0
    endloop
  endfacet
  facet normal 0.509293 -0.860593 0
    outer loop
      vertex 107.878 -7.05427 0.5
      vertex 107.878 -7.05427 0
      vertex 108.313 -6.79684 0.5
    endloop
  endfacet
  facet normal -0 0 1
    outer loop
      vertex -1.00893 7.98652 0.5
      vertex -7.05427 -3.87812 0.5
      vertex -0.505464 8.03411 0.5
    endloop
  endfacet
  facet normal 0.987415 -0.158148 0
    outer loop
      vertex 111.907 -1.50842 0.5
      vertex 111.907 -1.50842 0
      vertex 111.987 -1.00893 0.5
    endloop
  endfacet
  facet normal -0.0941053 0.995562 0
    outer loop
      vertex -0.505464 8.03411 0.5
      vertex -0.505464 8.03411 0
      vertex -1.00893 7.98652 0.5
    endloop
  endfacet
  facet normal 0.749555 0.661942 0
    outer loop
      vertex 110.203 5.13126 0.5
      vertex 109.868 5.5106 0
      vertex 109.868 5.5106 0.5
    endloop
  endfacet
  facet normal 0.7077 0.706513 0
    outer loop
      vertex 109.511 5.8682 0.5
      vertex 109.868 5.5106 0
      vertex 109.511 5.8682 0
    endloop
  endfacet
  facet normal 0.509293 0.860593 -0
    outer loop
      vertex 108.313 6.79684 0
      vertex 107.878 7.05427 0.5
      vertex 108.313 6.79684 0.5
    endloop
  endfacet
  facet normal -0 0 -1
    outer loop
      vertex 111.656 2.48759 0
      vertex -5.5106 -5.8682 0
      vertex 111.485 2.9634 0
    endloop
  endfacet
  facet normal 0.454467 -0.890763 0
    outer loop
      vertex 107.428 -7.28386 0
      vertex 107.878 -7.05427 0
      vertex 107.428 -7.28386 0.5
    endloop
  endfacet
  facet normal -0.0314209 0.999506 0
    outer loop
      vertex 0 8.05 0.5
      vertex -0.505464 8.03411 0
      vertex -0.505464 8.03411 0.5
    endloop
  endfacet
  facet normal 0 0 -1
    outer loop
      vertex -7.90741 -1.50842 0
      vertex -5.5106 -5.8682 0
      vertex -7.79709 -2.00195 0
    endloop
  endfacet
  facet normal 0 0 -1
    outer loop
      vertex -2.00195 -7.79709 0
      vertex -5.5106 -5.8682 0
      vertex -1.50842 -7.90741 0
    endloop
  endfacet
  facet normal 0 0 -1
    outer loop
      vertex -2.9634 7.4847 0
      vertex -5.5106 -5.8682 0
      vertex -3.42752 7.28386 0
    endloop
  endfacet
  facet normal -0 0 -1
    outer loop
      vertex 108.313 6.79684 0
      vertex -5.5106 -5.8682 0
      vertex 107.878 7.05427 0
    endloop
  endfacet
  facet normal 0 -0 -1
    outer loop
      vertex -7.79709 2.00195 0
      vertex -5.5106 -5.8682 0
      vertex -7.90741 1.50842 0
    endloop
  endfacet
  facet normal -0.82708 0.562084 0
    outer loop
      vertex -6.51259 4.73167 0.5
      vertex -6.79684 4.31341 0
      vertex -6.79684 4.31341 0.5
    endloop
  endfacet
  facet normal -0 0 -1
    outer loop
      vertex 111.656 -2.48759 0
      vertex -5.5106 -5.8682 0
      vertex 111.797 -2.00195 0
    endloop
  endfacet
  facet normal 0 0 -1
    outer loop
      vertex -0.505464 8.03411 0
      vertex -5.5106 -5.8682 0
      vertex -1.00893 7.98652 0
    endloop
  endfacet
  facet normal 0.61348 0.78971 0
    outer loop
      vertex 109.131 6.20263 0.5
      vertex 109.131 6.20263 0
      vertex 108.732 6.51259 0.5
    endloop
  endfacet
  facet normal -0 0 -1
    outer loop
      vertex 105.009 7.98652 0
      vertex -5.5106 -5.8682 0
      vertex 104.505 8.03411 0
    endloop
  endfacet
  facet normal 0 0 1
    outer loop
      vertex 105.009 -7.98652 0.5
      vertex -7.05427 -3.87812 0.5
      vertex 104.505 -8.03411 0.5
    endloop
  endfacet
  facet normal -0.453987 0.891008 0
    outer loop
      vertex -3.42752 7.28386 0.5
      vertex -3.87812 7.05427 0
      vertex -3.87812 7.05427 0.5
    endloop
  endfacet
  facet normal -0 -0 1
    outer loop
      vertex -8.03411 -0.505464 0.5
      vertex -7.05427 -3.87812 0.5
      vertex -8.05 -0 0.5
    endloop
  endfacet
  facet normal -0.509042 -0.860742 0
    outer loop
      vertex -3.87812 -7.05427 0
      vertex -3.87812 -7.05427 0.5
      vertex -4.31341 -6.79684 0
    endloop
  endfacet
  facet normal -0 0 1
    outer loop
      vertex 0 8.05 0.5
      vertex -7.05427 -3.87812 0.5
      vertex 104 8.05 0.5
    endloop
  endfacet
  facet normal -0.891008 0.453987 0
    outer loop
      vertex -7.05427 3.87812 0
      vertex -7.28386 3.42752 0.5
      vertex -7.05427 3.87812 0.5
    endloop
  endfacet
  facet normal -0.278988 -0.960294 -0
    outer loop
      vertex -2.00195 -7.79709 0.5
      vertex -2.48759 -7.656 0.5
      vertex -2.00195 -7.79709 0
    endloop
  endfacet
  facet normal -0 0 -1
    outer loop
      vertex 111.284 -3.42752 0
      vertex -5.5106 -5.8682 0
      vertex 111.485 -2.9634 0
    endloop
  endfacet
  facet normal 0 0 -1
    outer loop
      vertex -7.05427 -3.87812 0
      vertex -5.5106 -5.8682 0
      vertex -6.79684 -4.31341 0
    endloop
  endfacet
  facet normal 0 0 -1
    outer loop
      vertex -1.50842 -7.90741 0
      vertex -5.5106 -5.8682 0
      vertex -1.00893 -7.98652 0
    endloop
  endfacet
  facet normal 0 0 1
    outer loop
      vertex 108.313 -6.79684 0.5
      vertex -7.05427 -3.87812 0.5
      vertex 107.878 -7.05427 0.5
    endloop
  endfacet
  facet normal 0 0 1
    outer loop
      vertex -1.50842 -7.90741 0.5
      vertex -7.05427 -3.87812 0.5
      vertex -2.00195 -7.79709 0.5
    endloop
  endfacet
  facet normal -0 0 -1
    outer loop
      vertex 109.868 5.5106 0
      vertex -5.5106 -5.8682 0
      vertex 109.511 5.8682 0
    endloop
  endfacet
  facet normal -0 0 -1
    outer loop
      vertex 109.511 5.8682 0
      vertex -5.5106 -5.8682 0
      vertex 109.131 6.20263 0
    endloop
  endfacet
  facet normal -0.453987 -0.891008 -0
    outer loop
      vertex -3.42752 -7.28386 0.5
      vertex -3.87812 -7.05427 0.5
      vertex -3.42752 -7.28386 0
    endloop
  endfacet
  facet normal 0 0 1
    outer loop
      vertex 111.485 2.9634 0.5
      vertex -7.05427 -3.87812 0.5
      vertex 111.656 2.48759 0.5
    endloop
  endfacet
  facet normal 0.39651 0.91803 0
    outer loop
      vertex 106.963 7.4847 0
      vertex 107.428 7.28386 0.5
      vertex 107.428 7.28386 0
    endloop
  endfacet
  facet normal 0 0 1
    outer loop
      vertex 107.878 -7.05427 0.5
      vertex -7.05427 -3.87812 0.5
      vertex 107.428 -7.28386 0.5
    endloop
  endfacet
  facet normal -0 0 -1
    outer loop
      vertex 111.907 1.50842 0
      vertex -5.5106 -5.8682 0
      vertex 111.797 2.00195 0
    endloop
  endfacet
  facet normal 0 0 -1
    outer loop
      vertex 109.131 -6.20263 0
      vertex -5.5106 -5.8682 0
      vertex 109.511 -5.8682 0
    endloop
  endfacet
  facet normal 0 -0 -1
    outer loop
      vertex -7.90741 1.50842 0
      vertex -5.5106 -5.8682 0
      vertex -7.98652 1.00893 0
    endloop
  endfacet
  facet normal -0.707107 -0.707107 0
    outer loop
      vertex -5.8682 -5.5106 0.5
      vertex -5.5106 -5.8682 0
      vertex -5.5106 -5.8682 0.5
    endloop
  endfacet
  facet normal 0 0 1
    outer loop
      vertex 106.002 7.79709 0.5
      vertex -7.05427 -3.87812 0.5
      vertex 106.488 7.656 0.5
    endloop
  endfacet
  facet normal 0 0 1
    outer loop
      vertex -3.42752 -7.28386 0.5
      vertex -7.05427 -3.87812 0.5
      vertex -3.87812 -7.05427 0.5
    endloop
  endfacet
  facet normal 0 0 -1
    outer loop
      vertex -4.31341 -6.79684 0
      vertex -5.5106 -5.8682 0
      vertex -3.87812 -7.05427 0
    endloop
  endfacet
  facet normal 0 0 -1
    outer loop
      vertex -7.98652 -1.00893 0
      vertex -5.5106 -5.8682 0
      vertex -7.90741 -1.50842 0
    endloop
  endfacet
  facet normal 0 0 -1
    outer loop
      vertex -6.20263 -5.13126 0
      vertex -5.5106 -5.8682 0
      vertex -5.8682 -5.5106 0
    endloop
  endfacet
  facet normal -0.82708 -0.562084 0
    outer loop
      vertex -6.51259 -4.73167 0
      vertex -6.51259 -4.73167 0.5
      vertex -6.79684 -4.31341 0
    endloop
  endfacet
  facet normal -0 0 -1
    outer loop
      vertex 111.485 2.9634 0
      vertex -5.5106 -5.8682 0
      vertex 111.284 3.42752 0
    endloop
  endfacet
  facet normal 0.561405 -0.827541 0
    outer loop
      vertex 108.313 -6.79684 0
      vertex 108.732 -6.51259 0
      vertex 108.313 -6.79684 0.5
    endloop
  endfacet
  facet normal 0.561405 -0.827541 0
    outer loop
      vertex 108.313 -6.79684 0.5
      vertex 108.732 -6.51259 0
      vertex 108.732 -6.51259 0.5
    endloop
  endfacet
  facet normal -0 0 -1
    outer loop
      vertex 110.513 4.73167 0
      vertex -5.5106 -5.8682 0
      vertex 110.203 5.13126 0
    endloop
  endfacet
  facet normal 0 0 1
    outer loop
      vertex 104.505 -8.03411 0.5
      vertex -7.05427 -3.87812 0.5
      vertex 104 -8.05 0.5
    endloop
  endfacet
  facet normal 0 0 1
    outer loop
      vertex -0 -8.05 0.5
      vertex -7.05427 -3.87812 0.5
      vertex -0.505464 -8.03411 0.5
    endloop
  endfacet
  facet normal 0 0 -1
    outer loop
      vertex 106.488 -7.656 0
      vertex -5.5106 -5.8682 0
      vertex 106.963 -7.4847 0
    endloop
  endfacet
  facet normal 0.61348 -0.78971 0
    outer loop
      vertex 108.732 -6.51259 0.5
      vertex 108.732 -6.51259 0
      vertex 109.131 -6.20263 0.5
    endloop
  endfacet
  facet normal -0.917757 -0.397143 0
    outer loop
      vertex -7.28386 -3.42752 0
      vertex -7.28386 -3.42752 0.5
      vertex -7.4847 -2.9634 0
    endloop
  endfacet
  facet normal -0.917757 -0.397143 0
    outer loop
      vertex -7.4847 -2.9634 0
      vertex -7.28386 -3.42752 0.5
      vertex -7.4847 -2.9634 0.5
    endloop
  endfacet
  facet normal 0 0 1
    outer loop
      vertex 104 8.05 0.5
      vertex -7.05427 -3.87812 0.5
      vertex 104.505 8.03411 0.5
    endloop
  endfacet
  facet normal -0 0 1
    outer loop
      vertex -1.50842 7.90741 0.5
      vertex -7.05427 -3.87812 0.5
      vertex -1.00893 7.98652 0.5
    endloop
  endfacet
  facet normal 0 0 -1
    outer loop
      vertex -4.73167 -6.51259 0
      vertex -5.5106 -5.8682 0
      vertex -4.31341 -6.79684 0
    endloop
  endfacet
  facet normal 0 0 -1
    outer loop
      vertex -6.79684 -4.31341 0
      vertex -5.5106 -5.8682 0
      vertex -6.51259 -4.73167 0
    endloop
  endfacet
  facet normal -0 0 -1
    outer loop
      vertex 110.513 -4.73167 0
      vertex -5.5106 -5.8682 0
      vertex 110.797 -4.31341 0
    endloop
  endfacet
  facet normal -0 0 -1
    outer loop
      vertex 111.054 3.87812 0
      vertex -5.5106 -5.8682 0
      vertex 110.797 4.31341 0
    endloop
  endfacet
  facet normal 0 0 1
    outer loop
      vertex 110.797 4.31341 0.5
      vertex -7.05427 -3.87812 0.5
      vertex 111.054 3.87812 0.5
    endloop
  endfacet
  facet normal 0.7077 -0.706513 0
    outer loop
      vertex 109.868 -5.5106 0
      vertex 109.511 -5.8682 0.5
      vertex 109.511 -5.8682 0
    endloop
  endfacet
  facet normal 0 0 -1
    outer loop
      vertex -7.4847 -2.9634 0
      vertex -5.5106 -5.8682 0
      vertex -7.28386 -3.42752 0
    endloop
  endfacet
  facet normal -0.661308 -0.750114 -0
    outer loop
      vertex -5.5106 -5.8682 0.5
      vertex -5.5106 -5.8682 0
      vertex -5.13126 -6.20263 0.5
    endloop
  endfacet
  facet normal 0 0 -1
    outer loop
      vertex 0 8.05 0
      vertex -5.5106 -5.8682 0
      vertex -0.505464 8.03411 0
    endloop
  endfacet
  facet normal -0 0 -1
    outer loop
      vertex 107.428 7.28386 0
      vertex -5.5106 -5.8682 0
      vertex 106.963 7.4847 0
    endloop
  endfacet
  facet normal 0.217951 0.97596 0
    outer loop
      vertex 105.508 7.90741 0
      vertex 106.002 7.79709 0.5
      vertex 106.002 7.79709 0
    endloop
  endfacet
  facet normal 0 0 1
    outer loop
      vertex 108.313 6.79684 0.5
      vertex -7.05427 -3.87812 0.5
      vertex 108.732 6.51259 0.5
    endloop
  endfacet
  facet normal -0.509042 -0.860742 0
    outer loop
      vertex -4.31341 -6.79684 0
      vertex -3.87812 -7.05427 0.5
      vertex -4.31341 -6.79684 0.5
    endloop
  endfacet
  facet normal -0 -0 1
    outer loop
      vertex -7.656 -2.48759 0.5
      vertex -7.05427 -3.87812 0.5
      vertex -7.79709 -2.00195 0.5
    endloop
  endfacet
  facet normal 0 0 1
    outer loop
      vertex 111.656 2.48759 0.5
      vertex -7.05427 -3.87812 0.5
      vertex 111.797 2.00195 0.5
    endloop
  endfacet
  facet normal 0 0 1
    outer loop
      vertex 112.034 0.505464 0.5
      vertex -7.05427 -3.87812 0.5
      vertex 112.05 0 0.5
    endloop
  endfacet
  facet normal 0 0 -1
    outer loop
      vertex -8.03411 -0.505464 0
      vertex -5.5106 -5.8682 0
      vertex -7.98652 -1.00893 0
    endloop
  endfacet
  facet normal 0 -0 -1
    outer loop
      vertex -7.28386 3.42752 0
      vertex -5.5106 -5.8682 0
      vertex -7.4847 2.9634 0
    endloop
  endfacet
  facet normal 0.82731 0.561746 0
    outer loop
      vertex 110.513 4.73167 0
      vertex 110.797 4.31341 0.5
      vertex 110.797 4.31341 0
    endloop
  endfacet
  facet normal -0.156432 -0.987689 0
    outer loop
      vertex -1.00893 -7.98652 0
      vertex -1.50842 -7.90741 0.5
      vertex -1.50842 -7.90741 0
    endloop
  endfacet
  facet normal 0 0 1
    outer loop
      vertex 111.797 -2.00195 0.5
      vertex -7.05427 -3.87812 0.5
      vertex 111.656 -2.48759 0.5
    endloop
  endfacet
  facet normal 0 0 1
    outer loop
      vertex 111.987 -1.00893 0.5
      vertex -7.05427 -3.87812 0.5
      vertex 111.907 -1.50842 0.5
    endloop
  endfacet
  facet normal -0.661308 -0.750114 -0
    outer loop
      vertex -5.13126 -6.20263 0.5
      vertex -5.5106 -5.8682 0
      vertex -5.13126 -6.20263 0
    endloop
  endfacet
  facet normal 0 0 -1
    outer loop
      vertex -7.28386 -3.42752 0
      vertex -5.5106 -5.8682 0
      vertex -7.05427 -3.87812 0
    endloop
  endfacet
  facet normal 0 0 1
    outer loop
      vertex -5.5106 -5.8682 0.5
      vertex -7.05427 -3.87812 0.5
      vertex -5.8682 -5.5106 0.5
    endloop
  endfacet
  facet normal 0 0 1
    outer loop
      vertex -5.13126 -6.20263 0.5
      vertex -7.05427 -3.87812 0.5
      vertex -5.5106 -5.8682 0.5
    endloop
  endfacet
  facet normal -0.338734 -0.940882 0
    outer loop
      vertex -2.9634 -7.4847 0
      vertex -2.48759 -7.656 0.5
      vertex -2.9634 -7.4847 0.5
    endloop
  endfacet
  facet normal 0 0 1
    outer loop
      vertex 109.868 -5.5106 0.5
      vertex -7.05427 -3.87812 0.5
      vertex 109.511 -5.8682 0.5
    endloop
  endfacet
  facet normal -0.156432 -0.987689 -0
    outer loop
      vertex -1.00893 -7.98652 0.5
      vertex -1.50842 -7.90741 0.5
      vertex -1.00893 -7.98652 0
    endloop
  endfacet
  facet normal 0 0 1
    outer loop
      vertex 104 -8.05 0.5
      vertex -7.05427 -3.87812 0.5
      vertex -0 -8.05 0.5
    endloop
  endfacet
  facet normal -0.82708 -0.562084 0
    outer loop
      vertex -6.79684 -4.31341 0
      vertex -6.51259 -4.73167 0.5
      vertex -6.79684 -4.31341 0.5
    endloop
  endfacet
  facet normal -0.790149 -0.612915 0
    outer loop
      vertex -6.20263 -5.13126 0
      vertex -6.51259 -4.73167 0.5
      vertex -6.51259 -4.73167 0
    endloop
  endfacet
  facet normal 0 0 1
    outer loop
      vertex 105.508 -7.90741 0.5
      vertex -7.05427 -3.87812 0.5
      vertex 105.009 -7.98652 0.5
    endloop
  endfacet
  facet normal 0 0 1
    outer loop
      vertex 106.002 -7.79709 0.5
      vertex -7.05427 -3.87812 0.5
      vertex 105.508 -7.90741 0.5
    endloop
  endfacet
  facet normal -0 0 -1
    outer loop
      vertex 106.002 7.79709 0
      vertex -5.5106 -5.8682 0
      vertex 105.508 7.90741 0
    endloop
  endfacet
  facet normal -0 0 -1
    outer loop
      vertex 107.878 7.05427 0
      vertex -5.5106 -5.8682 0
      vertex 107.428 7.28386 0
    endloop
  endfacet
  facet normal 0 0 1
    outer loop
      vertex -4.31341 -6.79684 0.5
      vertex -7.05427 -3.87812 0.5
      vertex -4.73167 -6.51259 0.5
    endloop
  endfacet
  facet normal 0 0 1
    outer loop
      vertex -3.87812 -7.05427 0.5
      vertex -7.05427 -3.87812 0.5
      vertex -4.31341 -6.79684 0.5
    endloop
  endfacet
  facet normal 0 0 1
    outer loop
      vertex -6.20263 -5.13126 0.5
      vertex -7.05427 -3.87812 0.5
      vertex -6.51259 -4.73167 0.5
    endloop
  endfacet
  facet normal 0 0 1
    outer loop
      vertex -6.51259 -4.73167 0.5
      vertex -7.05427 -3.87812 0.5
      vertex -6.79684 -4.31341 0.5
    endloop
  endfacet
  facet normal 0 0 1
    outer loop
      vertex -1.00893 -7.98652 0.5
      vertex -7.05427 -3.87812 0.5
      vertex -1.50842 -7.90741 0.5
    endloop
  endfacet
  facet normal 0 0 1
    outer loop
      vertex -0.505464 -8.03411 0.5
      vertex -7.05427 -3.87812 0.5
      vertex -1.00893 -7.98652 0.5
    endloop
  endfacet
  facet normal 0 0 -1
    outer loop
      vertex -5.13126 6.20263 0
      vertex -5.5106 -5.8682 0
      vertex -5.5106 5.8682 0
    endloop
  endfacet
  facet normal 0 0 -1
    outer loop
      vertex -4.31341 6.79684 0
      vertex -5.5106 -5.8682 0
      vertex -4.73167 6.51259 0
    endloop
  endfacet
  facet normal 0 -0 -1
    outer loop
      vertex -6.51259 4.73167 0
      vertex -5.5106 -5.8682 0
      vertex -6.79684 4.31341 0
    endloop
  endfacet
  facet normal 0 -0 -1
    outer loop
      vertex -7.05427 3.87812 0
      vertex -5.5106 -5.8682 0
      vertex -7.28386 3.42752 0
    endloop
  endfacet
  facet normal 0 0 -1
    outer loop
      vertex 107.428 -7.28386 0
      vertex -5.5106 -5.8682 0
      vertex 107.878 -7.05427 0
    endloop
  endfacet
  facet normal 0 0 -1
    outer loop
      vertex 106.963 -7.4847 0
      vertex -5.5106 -5.8682 0
      vertex 107.428 -7.28386 0
    endloop
  endfacet
endsolid OpenSCAD_Model
