solid OpenSCAD_Model
  facet normal 0 0 -1
    outer loop
      vertex -0.0999908 28 0
      vertex 7.29999 28 0
      vertex 7.2 0 0
    endloop
  endfacet
  facet normal 0 0 -1
    outer loop
      vertex -0.0999908 28 0
      vertex 7.2 0 0
      vertex 0 0 0
    endloop
  endfacet
  facet normal 0 -0 1
    outer loop
      vertex 7.2 0 60
      vertex 7.29999 28 60
      vertex -0.0999908 28 60
    endloop
  endfacet
  facet normal 0 -0 1
    outer loop
      vertex 0 0 60
      vertex 7.2 0 60
      vertex -0.0999908 28 60
    endloop
  endfacet
  facet normal 0 1 0
    outer loop
      vertex -0.0999908 28 0
      vertex 7.29999 28 60
      vertex 7.29999 28 0
    endloop
  endfacet
  facet normal 0 1 0
    outer loop
      vertex -0.0999908 28 0
      vertex -0.0999908 28 60
      vertex 7.29999 28 60
    endloop
  endfacet
  facet normal -0.999994 -0.00357108 0
    outer loop
      vertex 0 0 0
      vertex -0.0999908 28 60
      vertex -0.0999908 28 0
    endloop
  endfacet
  facet normal -0.999994 -0.00357108 0
    outer loop
      vertex 0 0 0
      vertex 0 0 60
      vertex -0.0999908 28 60
    endloop
  endfacet
  facet normal 0 -1 0
    outer loop
      vertex 7.2 0 0
      vertex 0 0 60
      vertex 0 0 0
    endloop
  endfacet
  facet normal 0 -1 0
    outer loop
      vertex 7.2 0 0
      vertex 7.2 0 60
      vertex 0 0 60
    endloop
  endfacet
  facet normal 0.999994 -0.00357105 0
    outer loop
      vertex 7.29999 28 0
      vertex 7.2 0 60
      vertex 7.2 0 0
    endloop
  endfacet
  facet normal 0.999994 -0.00357105 0
    outer loop
      vertex 7.29999 28 0
      vertex 7.29999 28 60
      vertex 7.2 0 60
    endloop
  endfacet
endsolid OpenSCAD_Model
