solid OpenSCAD_Model
  facet normal -0 0 -1
    outer loop
      vertex 19.5679 6.31691 0
      vertex -19.8534 6.03458 0
      vertex -19.5754 10.1701 0
    endloop
  endfacet
  facet normal 0 0 -1
    outer loop
      vertex -20.0668 -5.83592 0
      vertex 15.8951 -23.2538 0
      vertex -19.9672 -11.6134 0
    endloop
  endfacet
  facet normal 0 0 -1
    outer loop
      vertex 14.752 -27.8538 0
      vertex -21.488 -19.1839 0
      vertex 15.8951 -23.2538 0
    endloop
  endfacet
  facet normal 0 0 -1
    outer loop
      vertex 15.8951 -23.2538 0
      vertex -20.7409 -15.2392 0
      vertex -19.9672 -11.6134 0
    endloop
  endfacet
  facet normal 0 0 -1
    outer loop
      vertex 15.8951 -23.2538 0
      vertex -21.488 -19.1839 0
      vertex -20.7409 -15.2392 0
    endloop
  endfacet
  facet normal 0 0 -1
    outer loop
      vertex -20.7409 -15.2392 0
      vertex -21.488 -19.1839 0
      vertex -21.3006 -17.1061 0
    endloop
  endfacet
  facet normal 0 0 -1
    outer loop
      vertex 18.6085 53.5696 0
      vertex 21.3844 50.5106 0
      vertex 21.488 46.9314 0
    endloop
  endfacet
  facet normal 0 0 -1
    outer loop
      vertex 12.1389 55.0905 0
      vertex 21.488 46.9314 0
      vertex 20.9407 40.8671 0
    endloop
  endfacet
  facet normal -0 -0 -1
    outer loop
      vertex 20.4759 52.4437 0
      vertex 21.3844 50.5106 0
      vertex 18.6085 53.5696 0
    endloop
  endfacet
  facet normal 0 0 -1
    outer loop
      vertex -14.0078 37.9069 0
      vertex 20.9407 40.8671 0
      vertex 20.2524 31.191 0
    endloop
  endfacet
  facet normal 0 0 -1
    outer loop
      vertex -16.7435 26.5951 0
      vertex 20.2524 31.191 0
      vertex 19.9624 20.4816 0
    endloop
  endfacet
  facet normal 0 0 -1
    outer loop
      vertex -18.5515 15.6659 0
      vertex 19.9624 20.4816 0
      vertex 19.5679 6.31691 0
    endloop
  endfacet
  facet normal -0 0 -1
    outer loop
      vertex 20.9407 40.8671 0
      vertex -14.0078 37.9069 0
      vertex 3.84877 56.3735 0
    endloop
  endfacet
  facet normal 0 0 -1
    outer loop
      vertex -19.8534 6.03458 0
      vertex 19.5679 6.31691 0
      vertex 17.8602 -9.91727 0
    endloop
  endfacet
  facet normal 0 0 -1
    outer loop
      vertex -19.8534 6.03458 0
      vertex 17.8602 -9.91727 0
      vertex 15.8951 -23.2538 0
    endloop
  endfacet
  facet normal 0 0 -1
    outer loop
      vertex 13.0863 -33.0926 0
      vertex -20.7479 -28.0489 0
      vertex 14.752 -27.8538 0
    endloop
  endfacet
  facet normal 0 0 -1
    outer loop
      vertex 11.1446 -39.3764 0
      vertex -20.7479 -28.0489 0
      vertex 13.0863 -33.0926 0
    endloop
  endfacet
  facet normal 0 0 -1
    outer loop
      vertex 19.9624 20.4816 0
      vertex -18.5515 15.6659 0
      vertex -18.1041 18.8972 0
    endloop
  endfacet
  facet normal 0 0 -1
    outer loop
      vertex -20.7479 -28.0489 0
      vertex 11.1446 -39.3764 0
      vertex -19.0904 -41.6196 0
    endloop
  endfacet
  facet normal 0 0 -1
    outer loop
      vertex -19.0904 -41.6196 0
      vertex 11.1446 -39.3764 0
      vertex 10.1574 -43.4953 0
    endloop
  endfacet
  facet normal 0 0 -1
    outer loop
      vertex 3.93732 -53.2581 0
      vertex 10.1574 -43.4953 0
      vertex 9.52634 -46.1498 0
    endloop
  endfacet
  facet normal 0 0 -1
    outer loop
      vertex 3.93732 -53.2581 0
      vertex 9.52634 -46.1498 0
      vertex 8.44083 -48.9129 0
    endloop
  endfacet
  facet normal 0 0 -1
    outer loop
      vertex 3.93732 -53.2581 0
      vertex 8.44083 -48.9129 0
      vertex 6.69516 -51.4866 0
    endloop
  endfacet
  facet normal 0 0 -1
    outer loop
      vertex -18.2995 -45.7103 0
      vertex 10.1574 -43.4953 0
      vertex 3.93732 -53.2581 0
    endloop
  endfacet
  facet normal 0 0 -1
    outer loop
      vertex 19.5679 6.31691 0
      vertex -19.5754 10.1701 0
      vertex -18.7094 15.0282 0
    endloop
  endfacet
  facet normal -0 0 -1
    outer loop
      vertex 19.9624 20.4816 0
      vertex -17.9424 19.9946 0
      vertex -16.7435 26.5951 0
    endloop
  endfacet
  facet normal 0 0 -1
    outer loop
      vertex -18.2995 -45.7103 0
      vertex 3.93732 -53.2581 0
      vertex 0.0245972 -55.4616 0
    endloop
  endfacet
  facet normal 0 0 -1
    outer loop
      vertex -2.82062 -56.4331 0
      vertex 0.0245972 -55.4616 0
      vertex -1.12068 -56.027 0
    endloop
  endfacet
  facet normal 0 0 -1
    outer loop
      vertex 0.0245972 -55.4616 0
      vertex -2.82062 -56.4331 0
      vertex -6.21114 -56.4914 0
    endloop
  endfacet
  facet normal -0 0 -1
    outer loop
      vertex 20.2524 31.191 0
      vertex -16.7435 26.5951 0
      vertex -14.0078 37.9069 0
    endloop
  endfacet
  facet normal 0 0 -1
    outer loop
      vertex -6.21114 -56.4914 0
      vertex -2.82062 -56.4331 0
      vertex -4.65692 -56.6109 0
    endloop
  endfacet
  facet normal 0 0 -1
    outer loop
      vertex -11.7732 -54.6783 0
      vertex 0.0245972 -55.4616 0
      vertex -6.21114 -56.4914 0
    endloop
  endfacet
  facet normal 0 0 -1
    outer loop
      vertex 21.488 46.9314 0
      vertex 12.1389 55.0905 0
      vertex 18.6085 53.5696 0
    endloop
  endfacet
  facet normal 0 0 -1
    outer loop
      vertex 0.13414 56.6109 0
      vertex -10.9938 49.0213 0
      vertex -3.8943 56.3973 0
    endloop
  endfacet
  facet normal 0 0 -1
    outer loop
      vertex -7.2534 55.8358 0
      vertex -10.9938 49.0213 0
      vertex -8.96004 55.0295 0
    endloop
  endfacet
  facet normal 0 0 -1
    outer loop
      vertex 0.0245972 -55.4616 0
      vertex -11.7732 -54.6783 0
      vertex -18.2995 -45.7103 0
    endloop
  endfacet
  facet normal 0 0 -1
    outer loop
      vertex -3.8943 56.3973 0
      vertex -10.9938 49.0213 0
      vertex -7.2534 55.8358 0
    endloop
  endfacet
  facet normal 0 0 -1
    outer loop
      vertex -17.3333 -49.2493 0
      vertex -11.7732 -54.6783 0
      vertex -16.1314 -53.1404 0
    endloop
  endfacet
  facet normal 0 0 -1
    outer loop
      vertex 21.3844 50.5106 0
      vertex 20.4759 52.4437 0
      vertex 21.0404 51.6305 0
    endloop
  endfacet
  facet normal 0 0 -1
    outer loop
      vertex -18.2995 -45.7103 0
      vertex -11.7732 -54.6783 0
      vertex -17.3333 -49.2493 0
    endloop
  endfacet
  facet normal -0 0 -1
    outer loop
      vertex 3.84877 56.3735 0
      vertex -10.9938 49.0213 0
      vertex 0.13414 56.6109 0
    endloop
  endfacet
  facet normal 0 -0 -1
    outer loop
      vertex -10.9938 49.0213 0
      vertex 3.84877 56.3735 0
      vertex -14.0078 37.9069 0
    endloop
  endfacet
  facet normal -0 0 -1
    outer loop
      vertex 10.1574 -43.4953 0
      vertex -18.2995 -45.7103 0
      vertex -19.0904 -41.6196 0
    endloop
  endfacet
  facet normal 0 0 -1
    outer loop
      vertex 20.9407 40.8671 0
      vertex 3.84877 56.3735 0
      vertex 12.1389 55.0905 0
    endloop
  endfacet
  facet normal 0 0 -1
    outer loop
      vertex -18.7117 16.3036 0
      vertex -18.1041 18.8972 0
      vertex -18.5515 15.6659 0
    endloop
  endfacet
  facet normal 0 0 -1
    outer loop
      vertex 19.9624 20.4816 0
      vertex -18.1041 18.8972 0
      vertex -17.9424 19.9946 0
    endloop
  endfacet
  facet normal 0 0 -1
    outer loop
      vertex 19.5679 6.31691 0
      vertex -18.7094 15.0282 0
      vertex -18.5515 15.6659 0
    endloop
  endfacet
  facet normal 0 0 -1
    outer loop
      vertex -21.488 -19.1839 0
      vertex 14.752 -27.8538 0
      vertex -20.7479 -28.0489 0
    endloop
  endfacet
  facet normal 0 0 -1
    outer loop
      vertex -19.8222 12.1283 0
      vertex -18.7094 15.0282 0
      vertex -19.5754 10.1701 0
    endloop
  endfacet
  facet normal 0 0 -1
    outer loop
      vertex -18.7094 15.0282 0
      vertex -19.8222 12.1283 0
      vertex -19.089 14.763 0
    endloop
  endfacet
  facet normal 0 0 -1
    outer loop
      vertex -20.0009 13.7293 0
      vertex -19.089 14.763 0
      vertex -19.8222 12.1283 0
    endloop
  endfacet
  facet normal 0 0 -1
    outer loop
      vertex -19.089 14.763 0
      vertex -20.0009 13.7293 0
      vertex -19.6421 14.4577 0
    endloop
  endfacet
  facet normal 0 -0 -1
    outer loop
      vertex -20.0009 13.7293 0
      vertex -19.8222 12.1283 0
      vertex -20.087 12.8591 0
    endloop
  endfacet
  facet normal 0 0 -1
    outer loop
      vertex -18.1041 18.8972 0
      vertex -18.7117 16.3036 0
      vertex -18.483 18.6334 0
    endloop
  endfacet
  facet normal 0 0 -1
    outer loop
      vertex -19.3296 17.766 0
      vertex -18.483 18.6334 0
      vertex -18.7117 16.3036 0
    endloop
  endfacet
  facet normal 0 0 -1
    outer loop
      vertex -19.3296 17.766 0
      vertex -18.7117 16.3036 0
      vertex -19.0971 16.5688 0
    endloop
  endfacet
  facet normal 0 0 -1
    outer loop
      vertex -18.483 18.6334 0
      vertex -19.3296 17.766 0
      vertex -18.9518 18.5146 0
    endloop
  endfacet
  facet normal 0 -0 -1
    outer loop
      vertex -19.3296 17.766 0
      vertex -19.0971 16.5688 0
      vertex -19.3904 16.9205 0
    endloop
  endfacet
  facet normal 0 0 -1
    outer loop
      vertex -20.1582 0.312851 0
      vertex 15.8951 -23.2538 0
      vertex -20.0668 -5.83592 0
    endloop
  endfacet
  facet normal 0 0 -1
    outer loop
      vertex 15.8951 -23.2538 0
      vertex -20.1582 0.312851 0
      vertex -19.8534 6.03458 0
    endloop
  endfacet
  facet normal 0 0 1
    outer loop
      vertex 17.8602 -9.91727 5
      vertex -20.0668 -5.83592 5
      vertex -19.9672 -11.6134 5
    endloop
  endfacet
  facet normal 0 0 1
    outer loop
      vertex 17.8602 -9.91727 5
      vertex -20.1582 0.312851 5
      vertex -20.0668 -5.83592 5
    endloop
  endfacet
  facet normal 0 0 1
    outer loop
      vertex -18.1041 18.8972 5
      vertex -18.7117 16.3036 5
      vertex -18.5515 15.6659 5
    endloop
  endfacet
  facet normal 0 0 1
    outer loop
      vertex -19.3296 17.766 5
      vertex -18.483 18.6334 5
      vertex -18.9518 18.5146 5
    endloop
  endfacet
  facet normal 0 0 1
    outer loop
      vertex -18.483 18.6334 5
      vertex -19.3296 17.766 5
      vertex -18.7117 16.3036 5
    endloop
  endfacet
  facet normal 0 0 1
    outer loop
      vertex -18.7117 16.3036 5
      vertex -19.3296 17.766 5
      vertex -19.0971 16.5688 5
    endloop
  endfacet
  facet normal 0 0 1
    outer loop
      vertex -19.0971 16.5688 5
      vertex -19.3296 17.766 5
      vertex -19.3904 16.9205 5
    endloop
  endfacet
  facet normal 0 0 1
    outer loop
      vertex 20.4759 52.4437 5
      vertex 21.3844 50.5106 5
      vertex 21.0404 51.6305 5
    endloop
  endfacet
  facet normal 0 0 1
    outer loop
      vertex 21.3844 50.5106 5
      vertex 18.6085 53.5696 5
      vertex 21.488 46.9314 5
    endloop
  endfacet
  facet normal 0 0 1
    outer loop
      vertex 21.3844 50.5106 5
      vertex 20.4759 52.4437 5
      vertex 18.6085 53.5696 5
    endloop
  endfacet
  facet normal 0 0 1
    outer loop
      vertex 12.1389 55.0905 5
      vertex 21.488 46.9314 5
      vertex 18.6085 53.5696 5
    endloop
  endfacet
  facet normal 0 0 1
    outer loop
      vertex 21.488 46.9314 5
      vertex 12.1389 55.0905 5
      vertex 20.9407 40.8671 5
    endloop
  endfacet
  facet normal 0 0 1
    outer loop
      vertex -14.0078 37.9069 5
      vertex 20.9407 40.8671 5
      vertex 3.84877 56.3735 5
    endloop
  endfacet
  facet normal 0 0 1
    outer loop
      vertex 3.84877 56.3735 5
      vertex 20.9407 40.8671 5
      vertex 12.1389 55.0905 5
    endloop
  endfacet
  facet normal 0 0 1
    outer loop
      vertex 20.2524 31.191 5
      vertex -16.7435 26.5951 5
      vertex 19.9624 20.4816 5
    endloop
  endfacet
  facet normal 0 0 1
    outer loop
      vertex -18.1041 18.8972 5
      vertex 19.9624 20.4816 5
      vertex -17.9424 19.9946 5
    endloop
  endfacet
  facet normal 0 0 1
    outer loop
      vertex 19.9624 20.4816 5
      vertex -18.5515 15.6659 5
      vertex 19.5679 6.31691 5
    endloop
  endfacet
  facet normal -0 0 1
    outer loop
      vertex -19.5754 10.1701 5
      vertex 19.5679 6.31691 5
      vertex -18.7094 15.0282 5
    endloop
  endfacet
  facet normal 0 0 1
    outer loop
      vertex -16.7435 26.5951 5
      vertex 20.2524 31.191 5
      vertex -14.0078 37.9069 5
    endloop
  endfacet
  facet normal 0 0 1
    outer loop
      vertex -20.1582 0.312851 5
      vertex 19.5679 6.31691 5
      vertex -19.8534 6.03458 5
    endloop
  endfacet
  facet normal -0 0 1
    outer loop
      vertex -20.7409 -15.2392 5
      vertex 15.8951 -23.2538 5
      vertex -19.9672 -11.6134 5
    endloop
  endfacet
  facet normal -0 0 1
    outer loop
      vertex -21.488 -19.1839 5
      vertex 15.8951 -23.2538 5
      vertex -20.7409 -15.2392 5
    endloop
  endfacet
  facet normal 0 0 1
    outer loop
      vertex 15.8951 -23.2538 5
      vertex -21.488 -19.1839 5
      vertex 14.752 -27.8538 5
    endloop
  endfacet
  facet normal 0 0 1
    outer loop
      vertex 14.752 -27.8538 5
      vertex -20.7479 -28.0489 5
      vertex 13.0863 -33.0926 5
    endloop
  endfacet
  facet normal 0 -0 1
    outer loop
      vertex -19.0904 -41.6196 5
      vertex 11.1446 -39.3764 5
      vertex -20.7479 -28.0489 5
    endloop
  endfacet
  facet normal 0 0 1
    outer loop
      vertex 20.9407 40.8671 5
      vertex -14.0078 37.9069 5
      vertex 20.2524 31.191 5
    endloop
  endfacet
  facet normal 0 0 1
    outer loop
      vertex -10.9938 49.0213 5
      vertex 3.84877 56.3735 5
      vertex 0.13414 56.6109 5
    endloop
  endfacet
  facet normal 0 -0 1
    outer loop
      vertex -20.7479 -28.0489 5
      vertex 14.752 -27.8538 5
      vertex -21.488 -19.1839 5
    endloop
  endfacet
  facet normal 0 0 1
    outer loop
      vertex 11.1446 -39.3764 5
      vertex -19.0904 -41.6196 5
      vertex 10.1574 -43.4953 5
    endloop
  endfacet
  facet normal 0 -0 1
    outer loop
      vertex -18.2995 -45.7103 5
      vertex 10.1574 -43.4953 5
      vertex -19.0904 -41.6196 5
    endloop
  endfacet
  facet normal 0 0 1
    outer loop
      vertex -10.9938 49.0213 5
      vertex 0.13414 56.6109 5
      vertex -3.8943 56.3973 5
    endloop
  endfacet
  facet normal 0 0 1
    outer loop
      vertex 10.1574 -43.4953 5
      vertex 3.93732 -53.2581 5
      vertex 9.52634 -46.1498 5
    endloop
  endfacet
  facet normal 0 0 1
    outer loop
      vertex 9.52634 -46.1498 5
      vertex 3.93732 -53.2581 5
      vertex 8.44083 -48.9129 5
    endloop
  endfacet
  facet normal 0 0 1
    outer loop
      vertex -10.9938 49.0213 5
      vertex -3.8943 56.3973 5
      vertex -7.2534 55.8358 5
    endloop
  endfacet
  facet normal 0 0 1
    outer loop
      vertex -10.9938 49.0213 5
      vertex -7.2534 55.8358 5
      vertex -8.96004 55.0295 5
    endloop
  endfacet
  facet normal 0 0 1
    outer loop
      vertex 3.84877 56.3735 5
      vertex -10.9938 49.0213 5
      vertex -14.0078 37.9069 5
    endloop
  endfacet
  facet normal 0 0 1
    outer loop
      vertex -17.9424 19.9946 5
      vertex 19.9624 20.4816 5
      vertex -16.7435 26.5951 5
    endloop
  endfacet
  facet normal 0 0 1
    outer loop
      vertex -18.5515 15.6659 5
      vertex 19.9624 20.4816 5
      vertex -18.1041 18.8972 5
    endloop
  endfacet
  facet normal 0 0 1
    outer loop
      vertex -19.8534 6.03458 5
      vertex 19.5679 6.31691 5
      vertex -19.5754 10.1701 5
    endloop
  endfacet
  facet normal 0 0 1
    outer loop
      vertex 10.1574 -43.4953 5
      vertex -18.2995 -45.7103 5
      vertex 3.93732 -53.2581 5
    endloop
  endfacet
  facet normal 0 0 1
    outer loop
      vertex 0.0245972 -55.4616 5
      vertex -2.82062 -56.4331 5
      vertex -1.12068 -56.027 5
    endloop
  endfacet
  facet normal -0 0 1
    outer loop
      vertex -18.7094 15.0282 5
      vertex 19.5679 6.31691 5
      vertex -18.5515 15.6659 5
    endloop
  endfacet
  facet normal -0 -0 1
    outer loop
      vertex -11.7732 -54.6783 5
      vertex 0.0245972 -55.4616 5
      vertex -18.2995 -45.7103 5
    endloop
  endfacet
  facet normal 0 0 1
    outer loop
      vertex 0.0245972 -55.4616 5
      vertex -11.7732 -54.6783 5
      vertex -6.21114 -56.4914 5
    endloop
  endfacet
  facet normal 0 0 1
    outer loop
      vertex -18.7117 16.3036 5
      vertex -18.1041 18.8972 5
      vertex -18.483 18.6334 5
    endloop
  endfacet
  facet normal 0 -0 1
    outer loop
      vertex -2.82062 -56.4331 5
      vertex 0.0245972 -55.4616 5
      vertex -6.21114 -56.4914 5
    endloop
  endfacet
  facet normal 0 0 1
    outer loop
      vertex 19.5679 6.31691 5
      vertex -20.1582 0.312851 5
      vertex 17.8602 -9.91727 5
    endloop
  endfacet
  facet normal 0 0 1
    outer loop
      vertex -19.8222 12.1283 5
      vertex -18.7094 15.0282 5
      vertex -19.089 14.763 5
    endloop
  endfacet
  facet normal 0 0 1
    outer loop
      vertex -11.7732 -54.6783 5
      vertex -17.3333 -49.2493 5
      vertex -16.1314 -53.1404 5
    endloop
  endfacet
  facet normal 0 0 1
    outer loop
      vertex 17.8602 -9.91727 5
      vertex -19.9672 -11.6134 5
      vertex 15.8951 -23.2538 5
    endloop
  endfacet
  facet normal 0 0 1
    outer loop
      vertex -20.0009 13.7293 5
      vertex -19.089 14.763 5
      vertex -19.6421 14.4577 5
    endloop
  endfacet
  facet normal 0 0 1
    outer loop
      vertex -18.7094 15.0282 5
      vertex -19.8222 12.1283 5
      vertex -19.5754 10.1701 5
    endloop
  endfacet
  facet normal 0 0 1
    outer loop
      vertex -19.089 14.763 5
      vertex -20.0009 13.7293 5
      vertex -19.8222 12.1283 5
    endloop
  endfacet
  facet normal 0 0 1
    outer loop
      vertex -19.8222 12.1283 5
      vertex -20.0009 13.7293 5
      vertex -20.087 12.8591 5
    endloop
  endfacet
  facet normal 0 0 1
    outer loop
      vertex 3.93732 -53.2581 5
      vertex -18.2995 -45.7103 5
      vertex 0.0245972 -55.4616 5
    endloop
  endfacet
  facet normal 0 0 1
    outer loop
      vertex -11.7732 -54.6783 5
      vertex -18.2995 -45.7103 5
      vertex -17.3333 -49.2493 5
    endloop
  endfacet
  facet normal 0 0 1
    outer loop
      vertex 8.44083 -48.9129 5
      vertex 3.93732 -53.2581 5
      vertex 6.69516 -51.4866 5
    endloop
  endfacet
  facet normal 0 0 1
    outer loop
      vertex -2.82062 -56.4331 5
      vertex -6.21114 -56.4914 5
      vertex -4.65692 -56.6109 5
    endloop
  endfacet
  facet normal 0 0 1
    outer loop
      vertex -21.488 -19.1839 5
      vertex -20.7409 -15.2392 5
      vertex -21.3006 -17.1061 5
    endloop
  endfacet
  facet normal 0 0 1
    outer loop
      vertex 13.0863 -33.0926 5
      vertex -20.7479 -28.0489 5
      vertex 11.1446 -39.3764 5
    endloop
  endfacet
  facet normal 0.152942 0.988235 -0
    outer loop
      vertex 12.1389 55.0905 0
      vertex 3.84877 56.3735 5
      vertex 12.1389 55.0905 5
    endloop
  endfacet
  facet normal 0.152942 0.988235 0
    outer loop
      vertex 3.84877 56.3735 5
      vertex 12.1389 55.0905 0
      vertex 3.84877 56.3735 0
    endloop
  endfacet
  facet normal 0.228846 0.973463 -0
    outer loop
      vertex 18.6085 53.5696 0
      vertex 12.1389 55.0905 5
      vertex 18.6085 53.5696 5
    endloop
  endfacet
  facet normal 0.228846 0.973463 0
    outer loop
      vertex 12.1389 55.0905 5
      vertex 18.6085 53.5696 0
      vertex 12.1389 55.0905 0
    endloop
  endfacet
  facet normal 0.516336 0.856386 -0
    outer loop
      vertex 20.4759 52.4437 0
      vertex 18.6085 53.5696 5
      vertex 20.4759 52.4437 5
    endloop
  endfacet
  facet normal 0.516336 0.856386 0
    outer loop
      vertex 18.6085 53.5696 5
      vertex 20.4759 52.4437 0
      vertex 18.6085 53.5696 0
    endloop
  endfacet
  facet normal 0.821475 0.570244 0
    outer loop
      vertex 21.0404 51.6305 5
      vertex 20.4759 52.4437 0
      vertex 20.4759 52.4437 5
    endloop
  endfacet
  facet normal 0.821475 0.570244 0
    outer loop
      vertex 20.4759 52.4437 0
      vertex 21.0404 51.6305 5
      vertex 21.0404 51.6305 0
    endloop
  endfacet
  facet normal 0.955919 0.29363 0
    outer loop
      vertex 21.3844 50.5106 5
      vertex 21.0404 51.6305 0
      vertex 21.0404 51.6305 5
    endloop
  endfacet
  facet normal 0.955919 0.29363 0
    outer loop
      vertex 21.0404 51.6305 0
      vertex 21.3844 50.5106 5
      vertex 21.3844 50.5106 0
    endloop
  endfacet
  facet normal 0.999581 0.0289329 0
    outer loop
      vertex 21.488 46.9314 5
      vertex 21.3844 50.5106 0
      vertex 21.3844 50.5106 5
    endloop
  endfacet
  facet normal 0.999581 0.0289329 0
    outer loop
      vertex 21.3844 50.5106 0
      vertex 21.488 46.9314 5
      vertex 21.488 46.9314 0
    endloop
  endfacet
  facet normal 0.995952 -0.0898842 0
    outer loop
      vertex 20.9407 40.8671 5
      vertex 21.488 46.9314 0
      vertex 21.488 46.9314 5
    endloop
  endfacet
  facet normal 0.995952 -0.0898842 0
    outer loop
      vertex 21.488 46.9314 0
      vertex 20.9407 40.8671 5
      vertex 20.9407 40.8671 0
    endloop
  endfacet
  facet normal 0.99748 -0.0709547 0
    outer loop
      vertex 20.2524 31.191 5
      vertex 20.9407 40.8671 0
      vertex 20.9407 40.8671 5
    endloop
  endfacet
  facet normal 0.99748 -0.0709547 0
    outer loop
      vertex 20.9407 40.8671 0
      vertex 20.2524 31.191 5
      vertex 20.2524 31.191 0
    endloop
  endfacet
  facet normal 0.999634 -0.0270691 0
    outer loop
      vertex 19.9624 20.4816 5
      vertex 20.2524 31.191 0
      vertex 20.2524 31.191 5
    endloop
  endfacet
  facet normal 0.999634 -0.0270691 0
    outer loop
      vertex 20.2524 31.191 0
      vertex 19.9624 20.4816 5
      vertex 19.9624 20.4816 0
    endloop
  endfacet
  facet normal 0.999612 -0.0278401 0
    outer loop
      vertex 19.5679 6.31691 5
      vertex 19.9624 20.4816 0
      vertex 19.9624 20.4816 5
    endloop
  endfacet
  facet normal 0.999612 -0.0278401 0
    outer loop
      vertex 19.9624 20.4816 0
      vertex 19.5679 6.31691 5
      vertex 19.5679 6.31691 0
    endloop
  endfacet
  facet normal 0.994513 -0.104614 0
    outer loop
      vertex 17.8602 -9.91727 5
      vertex 19.5679 6.31691 0
      vertex 19.5679 6.31691 5
    endloop
  endfacet
  facet normal 0.994513 -0.104614 0
    outer loop
      vertex 19.5679 6.31691 0
      vertex 17.8602 -9.91727 5
      vertex 17.8602 -9.91727 0
    endloop
  endfacet
  facet normal 0.989318 -0.145773 0
    outer loop
      vertex 15.8951 -23.2538 5
      vertex 17.8602 -9.91727 0
      vertex 17.8602 -9.91727 5
    endloop
  endfacet
  facet normal 0.989318 -0.145773 0
    outer loop
      vertex 17.8602 -9.91727 0
      vertex 15.8951 -23.2538 5
      vertex 15.8951 -23.2538 0
    endloop
  endfacet
  facet normal 0.970484 -0.241165 0
    outer loop
      vertex 14.752 -27.8538 5
      vertex 15.8951 -23.2538 0
      vertex 15.8951 -23.2538 5
    endloop
  endfacet
  facet normal 0.970484 -0.241165 0
    outer loop
      vertex 15.8951 -23.2538 0
      vertex 14.752 -27.8538 5
      vertex 14.752 -27.8538 0
    endloop
  endfacet
  facet normal 0.952988 -0.303007 0
    outer loop
      vertex 13.0863 -33.0926 5
      vertex 14.752 -27.8538 0
      vertex 14.752 -27.8538 5
    endloop
  endfacet
  facet normal 0.952988 -0.303007 0
    outer loop
      vertex 14.752 -27.8538 0
      vertex 13.0863 -33.0926 5
      vertex 13.0863 -33.0926 0
    endloop
  endfacet
  facet normal 0.955427 -0.295228 0
    outer loop
      vertex 11.1446 -39.3764 5
      vertex 13.0863 -33.0926 0
      vertex 13.0863 -33.0926 5
    endloop
  endfacet
  facet normal 0.955427 -0.295228 0
    outer loop
      vertex 13.0863 -33.0926 0
      vertex 11.1446 -39.3764 5
      vertex 11.1446 -39.3764 0
    endloop
  endfacet
  facet normal 0.972459 -0.233075 0
    outer loop
      vertex 10.1574 -43.4953 5
      vertex 11.1446 -39.3764 0
      vertex 11.1446 -39.3764 5
    endloop
  endfacet
  facet normal 0.972459 -0.233075 0
    outer loop
      vertex 11.1446 -39.3764 0
      vertex 10.1574 -43.4953 5
      vertex 10.1574 -43.4953 0
    endloop
  endfacet
  facet normal 0.972886 -0.231286 0
    outer loop
      vertex 9.52634 -46.1498 5
      vertex 10.1574 -43.4953 0
      vertex 10.1574 -43.4953 5
    endloop
  endfacet
  facet normal 0.972886 -0.231286 0
    outer loop
      vertex 10.1574 -43.4953 0
      vertex 9.52634 -46.1498 5
      vertex 9.52634 -46.1498 0
    endloop
  endfacet
  facet normal 0.930751 -0.365654 0
    outer loop
      vertex 8.44083 -48.9129 5
      vertex 9.52634 -46.1498 0
      vertex 9.52634 -46.1498 5
    endloop
  endfacet
  facet normal 0.930751 -0.365654 0
    outer loop
      vertex 9.52634 -46.1498 0
      vertex 8.44083 -48.9129 5
      vertex 8.44083 -48.9129 0
    endloop
  endfacet
  facet normal 0.827591 -0.561332 0
    outer loop
      vertex 6.69516 -51.4866 5
      vertex 8.44083 -48.9129 0
      vertex 8.44083 -48.9129 5
    endloop
  endfacet
  facet normal 0.827591 -0.561332 0
    outer loop
      vertex 8.44083 -48.9129 0
      vertex 6.69516 -51.4866 5
      vertex 6.69516 -51.4866 0
    endloop
  endfacet
  facet normal 0.540456 -0.841372 0
    outer loop
      vertex 3.93732 -53.2581 0
      vertex 6.69516 -51.4866 5
      vertex 3.93732 -53.2581 5
    endloop
  endfacet
  facet normal 0.540456 -0.841372 0
    outer loop
      vertex 6.69516 -51.4866 5
      vertex 3.93732 -53.2581 0
      vertex 6.69516 -51.4866 0
    endloop
  endfacet
  facet normal 0.4907 -0.871329 0
    outer loop
      vertex 0.0245972 -55.4616 0
      vertex 3.93732 -53.2581 5
      vertex 0.0245972 -55.4616 5
    endloop
  endfacet
  facet normal 0.4907 -0.871329 0
    outer loop
      vertex 3.93732 -53.2581 5
      vertex 0.0245972 -55.4616 0
      vertex 3.93732 -53.2581 0
    endloop
  endfacet
  facet normal 0.442674 -0.896683 0
    outer loop
      vertex -1.12068 -56.027 0
      vertex 0.0245972 -55.4616 5
      vertex -1.12068 -56.027 5
    endloop
  endfacet
  facet normal 0.442674 -0.896683 0
    outer loop
      vertex 0.0245972 -55.4616 5
      vertex -1.12068 -56.027 0
      vertex 0.0245972 -55.4616 0
    endloop
  endfacet
  facet normal 0.232353 -0.972632 0
    outer loop
      vertex -2.82062 -56.4331 0
      vertex -1.12068 -56.027 5
      vertex -2.82062 -56.4331 5
    endloop
  endfacet
  facet normal 0.232353 -0.972632 0
    outer loop
      vertex -1.12068 -56.027 5
      vertex -2.82062 -56.4331 0
      vertex -1.12068 -56.027 0
    endloop
  endfacet
  facet normal 0.0963744 -0.995345 0
    outer loop
      vertex -4.65692 -56.6109 0
      vertex -2.82062 -56.4331 5
      vertex -4.65692 -56.6109 5
    endloop
  endfacet
  facet normal 0.0963744 -0.995345 0
    outer loop
      vertex -2.82062 -56.4331 5
      vertex -4.65692 -56.6109 0
      vertex -2.82062 -56.4331 0
    endloop
  endfacet
  facet normal -0.0766612 -0.997057 0
    outer loop
      vertex -6.21114 -56.4914 0
      vertex -4.65692 -56.6109 5
      vertex -6.21114 -56.4914 5
    endloop
  endfacet
  facet normal -0.0766612 -0.997057 -0
    outer loop
      vertex -4.65692 -56.6109 5
      vertex -6.21114 -56.4914 0
      vertex -4.65692 -56.6109 0
    endloop
  endfacet
  facet normal -0.309926 -0.950761 0
    outer loop
      vertex -11.7732 -54.6783 0
      vertex -6.21114 -56.4914 5
      vertex -11.7732 -54.6783 5
    endloop
  endfacet
  facet normal -0.309926 -0.950761 -0
    outer loop
      vertex -6.21114 -56.4914 5
      vertex -11.7732 -54.6783 0
      vertex -6.21114 -56.4914 0
    endloop
  endfacet
  facet normal -0.332765 -0.94301 0
    outer loop
      vertex -16.1314 -53.1404 0
      vertex -11.7732 -54.6783 5
      vertex -16.1314 -53.1404 5
    endloop
  endfacet
  facet normal -0.332765 -0.94301 -0
    outer loop
      vertex -11.7732 -54.6783 5
      vertex -16.1314 -53.1404 0
      vertex -11.7732 -54.6783 0
    endloop
  endfacet
  facet normal -0.955458 -0.295126 0
    outer loop
      vertex -16.1314 -53.1404 0
      vertex -17.3333 -49.2493 5
      vertex -17.3333 -49.2493 0
    endloop
  endfacet
  facet normal -0.955458 -0.295126 0
    outer loop
      vertex -17.3333 -49.2493 5
      vertex -16.1314 -53.1404 0
      vertex -16.1314 -53.1404 5
    endloop
  endfacet
  facet normal -0.964693 -0.263376 0
    outer loop
      vertex -17.3333 -49.2493 0
      vertex -18.2995 -45.7103 5
      vertex -18.2995 -45.7103 0
    endloop
  endfacet
  facet normal -0.964693 -0.263376 0
    outer loop
      vertex -18.2995 -45.7103 5
      vertex -17.3333 -49.2493 0
      vertex -17.3333 -49.2493 5
    endloop
  endfacet
  facet normal -0.981818 -0.189826 0
    outer loop
      vertex -18.2995 -45.7103 0
      vertex -19.0904 -41.6196 5
      vertex -19.0904 -41.6196 0
    endloop
  endfacet
  facet normal -0.981818 -0.189826 0
    outer loop
      vertex -19.0904 -41.6196 5
      vertex -18.2995 -45.7103 0
      vertex -18.2995 -45.7103 5
    endloop
  endfacet
  facet normal -0.992624 -0.121237 0
    outer loop
      vertex -19.0904 -41.6196 0
      vertex -20.7479 -28.0489 5
      vertex -20.7479 -28.0489 0
    endloop
  endfacet
  facet normal -0.992624 -0.121237 0
    outer loop
      vertex -20.7479 -28.0489 5
      vertex -19.0904 -41.6196 0
      vertex -19.0904 -41.6196 5
    endloop
  endfacet
  facet normal -0.996533 -0.0831962 0
    outer loop
      vertex -20.7479 -28.0489 0
      vertex -21.488 -19.1839 5
      vertex -21.488 -19.1839 0
    endloop
  endfacet
  facet normal -0.996533 -0.0831962 0
    outer loop
      vertex -21.488 -19.1839 5
      vertex -20.7479 -28.0489 0
      vertex -20.7479 -28.0489 5
    endloop
  endfacet
  facet normal -0.995957 0.0898269 0
    outer loop
      vertex -21.488 -19.1839 0
      vertex -21.3006 -17.1061 5
      vertex -21.3006 -17.1061 0
    endloop
  endfacet
  facet normal -0.995957 0.0898269 0
    outer loop
      vertex -21.3006 -17.1061 5
      vertex -21.488 -19.1839 0
      vertex -21.488 -19.1839 5
    endloop
  endfacet
  facet normal -0.957879 0.287174 0
    outer loop
      vertex -21.3006 -17.1061 0
      vertex -20.7409 -15.2392 5
      vertex -20.7409 -15.2392 0
    endloop
  endfacet
  facet normal -0.957879 0.287174 0
    outer loop
      vertex -20.7409 -15.2392 5
      vertex -21.3006 -17.1061 0
      vertex -21.3006 -17.1061 5
    endloop
  endfacet
  facet normal -0.977982 0.208689 0
    outer loop
      vertex -20.7409 -15.2392 0
      vertex -19.9672 -11.6134 5
      vertex -19.9672 -11.6134 0
    endloop
  endfacet
  facet normal -0.977982 0.208689 0
    outer loop
      vertex -19.9672 -11.6134 5
      vertex -20.7409 -15.2392 0
      vertex -20.7409 -15.2392 5
    endloop
  endfacet
  facet normal -0.999851 -0.0172368 0
    outer loop
      vertex -19.9672 -11.6134 0
      vertex -20.0668 -5.83592 5
      vertex -20.0668 -5.83592 0
    endloop
  endfacet
  facet normal -0.999851 -0.0172368 0
    outer loop
      vertex -20.0668 -5.83592 5
      vertex -19.9672 -11.6134 0
      vertex -19.9672 -11.6134 5
    endloop
  endfacet
  facet normal -0.99989 -0.0148631 0
    outer loop
      vertex -20.0668 -5.83592 0
      vertex -20.1582 0.312851 5
      vertex -20.1582 0.312851 0
    endloop
  endfacet
  facet normal -0.99989 -0.0148631 0
    outer loop
      vertex -20.1582 0.312851 5
      vertex -20.0668 -5.83592 0
      vertex -20.0668 -5.83592 5
    endloop
  endfacet
  facet normal -0.998584 0.0531952 0
    outer loop
      vertex -20.1582 0.312851 0
      vertex -19.8534 6.03458 5
      vertex -19.8534 6.03458 0
    endloop
  endfacet
  facet normal -0.998584 0.0531952 0
    outer loop
      vertex -19.8534 6.03458 5
      vertex -20.1582 0.312851 0
      vertex -20.1582 0.312851 5
    endloop
  endfacet
  facet normal -0.997748 0.0670711 0
    outer loop
      vertex -19.8534 6.03458 0
      vertex -19.5754 10.1701 5
      vertex -19.5754 10.1701 0
    endloop
  endfacet
  facet normal -0.997748 0.0670711 0
    outer loop
      vertex -19.5754 10.1701 5
      vertex -19.8534 6.03458 0
      vertex -19.8534 6.03458 5
    endloop
  endfacet
  facet normal -0.992151 -0.125045 0
    outer loop
      vertex -19.5754 10.1701 0
      vertex -19.8222 12.1283 5
      vertex -19.8222 12.1283 0
    endloop
  endfacet
  facet normal -0.992151 -0.125045 0
    outer loop
      vertex -19.8222 12.1283 5
      vertex -19.5754 10.1701 0
      vertex -19.5754 10.1701 5
    endloop
  endfacet
  facet normal -0.940183 -0.340669 0
    outer loop
      vertex -19.8222 12.1283 0
      vertex -20.087 12.8591 5
      vertex -20.087 12.8591 0
    endloop
  endfacet
  facet normal -0.940183 -0.340669 0
    outer loop
      vertex -20.087 12.8591 5
      vertex -19.8222 12.1283 0
      vertex -19.8222 12.1283 5
    endloop
  endfacet
  facet normal -0.995141 0.098462 0
    outer loop
      vertex -20.087 12.8591 0
      vertex -20.0009 13.7293 5
      vertex -20.0009 13.7293 0
    endloop
  endfacet
  facet normal -0.995141 0.098462 0
    outer loop
      vertex -20.0009 13.7293 5
      vertex -20.087 12.8591 0
      vertex -20.087 12.8591 5
    endloop
  endfacet
  facet normal -0.897072 0.441885 0
    outer loop
      vertex -20.0009 13.7293 0
      vertex -19.6421 14.4577 5
      vertex -19.6421 14.4577 0
    endloop
  endfacet
  facet normal -0.897072 0.441885 0
    outer loop
      vertex -19.6421 14.4577 5
      vertex -20.0009 13.7293 0
      vertex -20.0009 13.7293 5
    endloop
  endfacet
  facet normal -0.483249 0.875483 0
    outer loop
      vertex -19.089 14.763 0
      vertex -19.6421 14.4577 5
      vertex -19.089 14.763 5
    endloop
  endfacet
  facet normal -0.483249 0.875483 0
    outer loop
      vertex -19.6421 14.4577 5
      vertex -19.089 14.763 0
      vertex -19.6421 14.4577 0
    endloop
  endfacet
  facet normal -0.572708 0.819759 0
    outer loop
      vertex -18.7094 15.0282 0
      vertex -19.089 14.763 5
      vertex -18.7094 15.0282 5
    endloop
  endfacet
  facet normal -0.572708 0.819759 0
    outer loop
      vertex -19.089 14.763 5
      vertex -18.7094 15.0282 0
      vertex -19.089 14.763 0
    endloop
  endfacet
  facet normal -0.970686 0.24035 0
    outer loop
      vertex -18.7094 15.0282 0
      vertex -18.5515 15.6659 5
      vertex -18.5515 15.6659 0
    endloop
  endfacet
  facet normal -0.970686 0.24035 0
    outer loop
      vertex -18.5515 15.6659 5
      vertex -18.7094 15.0282 0
      vertex -18.7094 15.0282 5
    endloop
  endfacet
  facet normal -0.969865 -0.243645 0
    outer loop
      vertex -18.5515 15.6659 0
      vertex -18.7117 16.3036 5
      vertex -18.7117 16.3036 0
    endloop
  endfacet
  facet normal -0.969865 -0.243645 0
    outer loop
      vertex -18.7117 16.3036 5
      vertex -18.5515 15.6659 0
      vertex -18.5515 15.6659 5
    endloop
  endfacet
  facet normal -0.566873 -0.823805 0
    outer loop
      vertex -19.0971 16.5688 0
      vertex -18.7117 16.3036 5
      vertex -19.0971 16.5688 5
    endloop
  endfacet
  facet normal -0.566873 -0.823805 -0
    outer loop
      vertex -18.7117 16.3036 5
      vertex -19.0971 16.5688 0
      vertex -18.7117 16.3036 0
    endloop
  endfacet
  facet normal -0.767989 -0.640464 0
    outer loop
      vertex -19.0971 16.5688 0
      vertex -19.3904 16.9205 5
      vertex -19.3904 16.9205 0
    endloop
  endfacet
  facet normal -0.767989 -0.640464 0
    outer loop
      vertex -19.3904 16.9205 5
      vertex -19.0971 16.5688 0
      vertex -19.0971 16.5688 5
    endloop
  endfacet
  facet normal -0.997424 0.0717249 0
    outer loop
      vertex -19.3904 16.9205 0
      vertex -19.3296 17.766 5
      vertex -19.3296 17.766 0
    endloop
  endfacet
  facet normal -0.997424 0.0717249 0
    outer loop
      vertex -19.3296 17.766 5
      vertex -19.3904 16.9205 0
      vertex -19.3904 16.9205 5
    endloop
  endfacet
  facet normal -0.892751 0.45055 0
    outer loop
      vertex -19.3296 17.766 0
      vertex -18.9518 18.5146 5
      vertex -18.9518 18.5146 0
    endloop
  endfacet
  facet normal -0.892751 0.45055 0
    outer loop
      vertex -18.9518 18.5146 5
      vertex -19.3296 17.766 0
      vertex -19.3296 17.766 5
    endloop
  endfacet
  facet normal -0.245648 0.969359 0
    outer loop
      vertex -18.483 18.6334 0
      vertex -18.9518 18.5146 5
      vertex -18.483 18.6334 5
    endloop
  endfacet
  facet normal -0.245648 0.969359 0
    outer loop
      vertex -18.9518 18.5146 5
      vertex -18.483 18.6334 0
      vertex -18.9518 18.5146 0
    endloop
  endfacet
  facet normal -0.571382 0.820684 0
    outer loop
      vertex -18.1041 18.8972 0
      vertex -18.483 18.6334 5
      vertex -18.1041 18.8972 5
    endloop
  endfacet
  facet normal -0.571382 0.820684 0
    outer loop
      vertex -18.483 18.6334 5
      vertex -18.1041 18.8972 0
      vertex -18.483 18.6334 0
    endloop
  endfacet
  facet normal -0.989318 0.145774 0
    outer loop
      vertex -18.1041 18.8972 0
      vertex -17.9424 19.9946 5
      vertex -17.9424 19.9946 0
    endloop
  endfacet
  facet normal -0.989318 0.145774 0
    outer loop
      vertex -17.9424 19.9946 5
      vertex -18.1041 18.8972 0
      vertex -18.1041 18.8972 5
    endloop
  endfacet
  facet normal -0.983901 0.178714 0
    outer loop
      vertex -17.9424 19.9946 0
      vertex -16.7435 26.5951 5
      vertex -16.7435 26.5951 0
    endloop
  endfacet
  facet normal -0.983901 0.178714 0
    outer loop
      vertex -16.7435 26.5951 5
      vertex -17.9424 19.9946 0
      vertex -17.9424 19.9946 5
    endloop
  endfacet
  facet normal -0.971979 0.235068 0
    outer loop
      vertex -16.7435 26.5951 0
      vertex -14.0078 37.9069 5
      vertex -14.0078 37.9069 0
    endloop
  endfacet
  facet normal -0.971979 0.235068 0
    outer loop
      vertex -14.0078 37.9069 5
      vertex -16.7435 26.5951 0
      vertex -16.7435 26.5951 5
    endloop
  endfacet
  facet normal -0.965142 0.261727 0
    outer loop
      vertex -14.0078 37.9069 0
      vertex -10.9938 49.0213 5
      vertex -10.9938 49.0213 0
    endloop
  endfacet
  facet normal -0.965142 0.261727 0
    outer loop
      vertex -10.9938 49.0213 5
      vertex -14.0078 37.9069 0
      vertex -14.0078 37.9069 5
    endloop
  endfacet
  facet normal -0.947206 0.320627 0
    outer loop
      vertex -10.9938 49.0213 0
      vertex -8.96004 55.0295 5
      vertex -8.96004 55.0295 0
    endloop
  endfacet
  facet normal -0.947206 0.320627 0
    outer loop
      vertex -8.96004 55.0295 5
      vertex -10.9938 49.0213 0
      vertex -10.9938 49.0213 5
    endloop
  endfacet
  facet normal -0.427174 0.90417 0
    outer loop
      vertex -7.2534 55.8358 0
      vertex -8.96004 55.0295 5
      vertex -7.2534 55.8358 5
    endloop
  endfacet
  facet normal -0.427174 0.90417 0
    outer loop
      vertex -8.96004 55.0295 5
      vertex -7.2534 55.8358 0
      vertex -8.96004 55.0295 0
    endloop
  endfacet
  facet normal -0.16487 0.986315 0
    outer loop
      vertex -3.8943 56.3973 0
      vertex -7.2534 55.8358 5
      vertex -3.8943 56.3973 5
    endloop
  endfacet
  facet normal -0.16487 0.986315 0
    outer loop
      vertex -7.2534 55.8358 5
      vertex -3.8943 56.3973 0
      vertex -7.2534 55.8358 0
    endloop
  endfacet
  facet normal -0.0529486 0.998597 0
    outer loop
      vertex 0.13414 56.6109 0
      vertex -3.8943 56.3973 5
      vertex 0.13414 56.6109 5
    endloop
  endfacet
  facet normal -0.0529486 0.998597 0
    outer loop
      vertex -3.8943 56.3973 5
      vertex 0.13414 56.6109 0
      vertex -3.8943 56.3973 0
    endloop
  endfacet
  facet normal 0.0637793 0.997964 -0
    outer loop
      vertex 3.84877 56.3735 0
      vertex 0.13414 56.6109 5
      vertex 3.84877 56.3735 5
    endloop
  endfacet
  facet normal 0.0637793 0.997964 0
    outer loop
      vertex 0.13414 56.6109 5
      vertex 3.84877 56.3735 0
      vertex 0.13414 56.6109 0
    endloop
  endfacet
endsolid OpenSCAD_Model
