solid OpenSCAD_Model
  facet normal 1 -0 0
    outer loop
      vertex 30 0 30
      vertex 30 20 5
      vertex 30 20 30
    endloop
  endfacet
  facet normal 1 0 0
    outer loop
      vertex 30 20 5
      vertex 30 0 30
      vertex 30 0 5
    endloop
  endfacet
  facet normal -1 0 0
    outer loop
      vertex 0 0 5
      vertex 0 20 30
      vertex 0 20 5
    endloop
  endfacet
  facet normal -1 -0 0
    outer loop
      vertex 0 20 30
      vertex 0 0 5
      vertex 0 0 30
    endloop
  endfacet
  facet normal 0 1 -0
    outer loop
      vertex 30 20 5
      vertex 25 20 30
      vertex 30 20 30
    endloop
  endfacet
  facet normal 0 1 0
    outer loop
      vertex 25 20 30
      vertex 30 20 5
      vertex 25 20 5
    endloop
  endfacet
  facet normal 0 1 -0
    outer loop
      vertex 15 20 5
      vertex 0 20 30
      vertex 15 20 30
    endloop
  endfacet
  facet normal 0 1 0
    outer loop
      vertex 0 20 30
      vertex 15 20 5
      vertex 0 20 5
    endloop
  endfacet
  facet normal 0 -1 0
    outer loop
      vertex 0 0 5
      vertex 30 0 30
      vertex 0 0 30
    endloop
  endfacet
  facet normal 0 -1 -0
    outer loop
      vertex 30 0 30
      vertex 0 0 5
      vertex 30 0 5
    endloop
  endfacet
  facet normal 0 0 -1
    outer loop
      vertex 15 10 0
      vertex 25 30 0
      vertex 25 10 0
    endloop
  endfacet
  facet normal -0 0 -1
    outer loop
      vertex 25 30 0
      vertex 15 10 0
      vertex 15 30 0
    endloop
  endfacet
  facet normal 1 0 0
    outer loop
      vertex 25 20 5
      vertex 25 30 30
      vertex 25 20 30
    endloop
  endfacet
  facet normal 1 0 0
    outer loop
      vertex 25 30 30
      vertex 25 20 5
      vertex 25 30 0
    endloop
  endfacet
  facet normal 1 0 0
    outer loop
      vertex 25 10 0
      vertex 25 20 5
      vertex 25 10 5
    endloop
  endfacet
  facet normal 1 0 0
    outer loop
      vertex 25 20 5
      vertex 25 10 0
      vertex 25 30 0
    endloop
  endfacet
  facet normal -1 0 0
    outer loop
      vertex 15 20 30
      vertex 15 30 0
      vertex 15 20 5
    endloop
  endfacet
  facet normal -1 0 0
    outer loop
      vertex 15 10 0
      vertex 15 20 5
      vertex 15 30 0
    endloop
  endfacet
  facet normal -1 -0 0
    outer loop
      vertex 15 20 5
      vertex 15 10 0
      vertex 15 10 5
    endloop
  endfacet
  facet normal -1 0 0
    outer loop
      vertex 15 30 0
      vertex 15 20 30
      vertex 15 30 50
    endloop
  endfacet
  facet normal -1 0 0
    outer loop
      vertex 15 10 50
      vertex 15 20 30
      vertex 15 10 30
    endloop
  endfacet
  facet normal -1 0 0
    outer loop
      vertex 15 20 30
      vertex 15 10 50
      vertex 15 30 50
    endloop
  endfacet
  facet normal 0 0 1
    outer loop
      vertex 15 20 30
      vertex 0 20 30
      vertex 15 10 30
    endloop
  endfacet
  facet normal 0 0 1
    outer loop
      vertex 25 30 30
      vertex 20 30 30
      vertex 25 20 30
    endloop
  endfacet
  facet normal 0 0 1
    outer loop
      vertex 20 10 30
      vertex 30 20 30
      vertex 25 20 30
    endloop
  endfacet
  facet normal 0 0 1
    outer loop
      vertex 20 10 30
      vertex 25 20 30
      vertex 20 30 30
    endloop
  endfacet
  facet normal 0 0 1
    outer loop
      vertex 30 20 30
      vertex 20 10 30
      vertex 30 0 30
    endloop
  endfacet
  facet normal -0 0 1
    outer loop
      vertex 15 10 30
      vertex 30 0 30
      vertex 20 10 30
    endloop
  endfacet
  facet normal 0 0 1
    outer loop
      vertex 0 0 30
      vertex 15 10 30
      vertex 0 20 30
    endloop
  endfacet
  facet normal 0 0 1
    outer loop
      vertex 15 10 30
      vertex 0 0 30
      vertex 30 0 30
    endloop
  endfacet
  facet normal 0 1 0
    outer loop
      vertex 25 30 30
      vertex 25 30 0
      vertex 20 30 30
    endloop
  endfacet
  facet normal 0 1 -0
    outer loop
      vertex 20 30 30
      vertex 15 30 50
      vertex 20 30 50
    endloop
  endfacet
  facet normal 0 1 0
    outer loop
      vertex 15 30 0
      vertex 20 30 30
      vertex 25 30 0
    endloop
  endfacet
  facet normal 0 1 0
    outer loop
      vertex 20 30 30
      vertex 15 30 0
      vertex 15 30 50
    endloop
  endfacet
  facet normal 0 -1 0
    outer loop
      vertex 15 10 0
      vertex 25 10 5
      vertex 15 10 5
    endloop
  endfacet
  facet normal 0 -1 -0
    outer loop
      vertex 25 10 5
      vertex 15 10 0
      vertex 25 10 0
    endloop
  endfacet
  facet normal 1 -0 0
    outer loop
      vertex 20 10 50
      vertex 20 30 30
      vertex 20 30 50
    endloop
  endfacet
  facet normal 1 0 0
    outer loop
      vertex 20 30 30
      vertex 20 10 50
      vertex 20 10 30
    endloop
  endfacet
  facet normal -0 0 1
    outer loop
      vertex 15 30 50
      vertex 20 10 50
      vertex 20 30 50
    endloop
  endfacet
  facet normal 0 0 1
    outer loop
      vertex 20 10 50
      vertex 15 30 50
      vertex 15 10 50
    endloop
  endfacet
  facet normal 0 -1 0
    outer loop
      vertex 15 10 30
      vertex 20 10 50
      vertex 15 10 50
    endloop
  endfacet
  facet normal 0 -1 -0
    outer loop
      vertex 20 10 50
      vertex 15 10 30
      vertex 20 10 30
    endloop
  endfacet
  facet normal 0 0 -1
    outer loop
      vertex 30 0 5
      vertex 25 10 5
      vertex 30 20 5
    endloop
  endfacet
  facet normal 0 0 -1
    outer loop
      vertex 30 0 5
      vertex 15 10 5
      vertex 25 10 5
    endloop
  endfacet
  facet normal 0 0 -1
    outer loop
      vertex 0 0 5
      vertex 15 10 5
      vertex 30 0 5
    endloop
  endfacet
  facet normal 0 0 -1
    outer loop
      vertex 0 20 5
      vertex 15 10 5
      vertex 0 0 5
    endloop
  endfacet
  facet normal 0 0 -1
    outer loop
      vertex 15 10 5
      vertex 0 20 5
      vertex 15 20 5
    endloop
  endfacet
  facet normal -0 0 -1
    outer loop
      vertex 30 20 5
      vertex 25 10 5
      vertex 25 20 5
    endloop
  endfacet
endsolid OpenSCAD_Model
