solid OpenSCAD_Model
  facet normal 1 -0 0
    outer loop
      vertex 100 0 25
      vertex 100 10 15
      vertex 100 10 25
    endloop
  endfacet
  facet normal 1 0 0
    outer loop
      vertex 100 10 15
      vertex 100 0 25
      vertex 100 0 15
    endloop
  endfacet
  facet normal -0 0 1
    outer loop
      vertex 0 10 25
      vertex 100 0 25
      vertex 100 10 25
    endloop
  endfacet
  facet normal 0 0 1
    outer loop
      vertex 100 0 25
      vertex 0 10 25
      vertex 0 0 25
    endloop
  endfacet
  facet normal 0 0 1
    outer loop
      vertex 200 100 15
      vertex 100 10 15
      vertex 200 0 15
    endloop
  endfacet
  facet normal -0 0 1
    outer loop
      vertex 0 100 15
      vertex 100 10 15
      vertex 200 100 15
    endloop
  endfacet
  facet normal 0 0 1
    outer loop
      vertex 100 10 15
      vertex 0 100 15
      vertex 0 10 15
    endloop
  endfacet
  facet normal 0 0 1
    outer loop
      vertex 200 0 15
      vertex 100 10 15
      vertex 100 0 15
    endloop
  endfacet
  facet normal 1 -0 0
    outer loop
      vertex 0 0 65
      vertex 0 10 25
      vertex 0 10 65
    endloop
  endfacet
  facet normal 1 0 0
    outer loop
      vertex 0 10 25
      vertex 0 0 65
      vertex 0 0 25
    endloop
  endfacet
  facet normal 1 -0 0
    outer loop
      vertex 0 3.53553 78.5355
      vertex 0 10 75
      vertex 0 10 115
    endloop
  endfacet
  facet normal 1 0 0
    outer loop
      vertex 0 10 75
      vertex 0 4.6194 76.9134
      vertex 0 5 75
    endloop
  endfacet
  facet normal 1 0 0
    outer loop
      vertex 0 10 75
      vertex 0 3.53553 78.5355
      vertex 0 4.6194 76.9134
    endloop
  endfacet
  facet normal 1 0 0
    outer loop
      vertex 0 10 115
      vertex 0 1.91342 79.6194
      vertex 0 3.53553 78.5355
    endloop
  endfacet
  facet normal 1 -0 0
    outer loop
      vertex 0 0 115
      vertex 0 1.91342 79.6194
      vertex 0 10 115
    endloop
  endfacet
  facet normal 1 0 0
    outer loop
      vertex 0 1.91342 79.6194
      vertex 0 0 115
      vertex 0 0 80
    endloop
  endfacet
  facet normal -1 0 0
    outer loop
      vertex 0 10 65
      vertex 0 20 75
      vertex 0 20 65
    endloop
  endfacet
  facet normal -1 -0 0
    outer loop
      vertex 0 20 75
      vertex 0 10 65
      vertex 0 10 75
    endloop
  endfacet
  facet normal -1 0 0
    outer loop
      vertex 0 -1.91342 70.3806
      vertex 0 0 80
      vertex 0 0 70
    endloop
  endfacet
  facet normal -1 0 0
    outer loop
      vertex 0 -1.91342 70.3806
      vertex 0 -1.91342 79.6194
      vertex 0 0 80
    endloop
  endfacet
  facet normal -1 0 0
    outer loop
      vertex 0 -3.53553 71.4645
      vertex 0 -1.91342 79.6194
      vertex 0 -1.91342 70.3806
    endloop
  endfacet
  facet normal -1 0 0
    outer loop
      vertex 0 -3.53553 71.4645
      vertex 0 -3.53553 78.5355
      vertex 0 -1.91342 79.6194
    endloop
  endfacet
  facet normal -1 0 0
    outer loop
      vertex 0 -4.6194 73.0866
      vertex 0 -3.53553 78.5355
      vertex 0 -3.53553 71.4645
    endloop
  endfacet
  facet normal -1 0 0
    outer loop
      vertex 0 -4.6194 73.0866
      vertex 0 -4.6194 76.9134
      vertex 0 -3.53553 78.5355
    endloop
  endfacet
  facet normal -1 0 -0
    outer loop
      vertex 0 -4.6194 76.9134
      vertex 0 -4.6194 73.0866
      vertex 0 -5 75
    endloop
  endfacet
  facet normal 0 1 0
    outer loop
      vertex 100 10 25
      vertex 100 10 15
      vertex 0 10 25
    endloop
  endfacet
  facet normal 0 1 -0
    outer loop
      vertex 0 10 75
      vertex -10 10 115
      vertex 0 10 115
    endloop
  endfacet
  facet normal 0 1 -0
    outer loop
      vertex 0 10 65
      vertex -10 10 115
      vertex 0 10 75
    endloop
  endfacet
  facet normal 0 1 0
    outer loop
      vertex -10 10 15
      vertex 0 10 65
      vertex 0 10 25
    endloop
  endfacet
  facet normal 0 1 0
    outer loop
      vertex 0 10 15
      vertex 0 10 25
      vertex 100 10 15
    endloop
  endfacet
  facet normal 0 1 0
    outer loop
      vertex -10 10 15
      vertex 0 10 25
      vertex 0 10 15
    endloop
  endfacet
  facet normal 0 1 0
    outer loop
      vertex 0 10 65
      vertex -10 10 15
      vertex -10 10 115
    endloop
  endfacet
  facet normal 0 1 -0
    outer loop
      vertex 0 10 5
      vertex -10 10 15
      vertex 0 10 15
    endloop
  endfacet
  facet normal 0 1 0
    outer loop
      vertex -100 10 5
      vertex -10 10 15
      vertex 0 10 5
    endloop
  endfacet
  facet normal 0 1 0
    outer loop
      vertex -10 10 15
      vertex -100 10 5
      vertex -100 10 15
    endloop
  endfacet
  facet normal 0 1 -0
    outer loop
      vertex 10 10 -85
      vertex 0 10 5
      vertex 10 10 5
    endloop
  endfacet
  facet normal 0 1 0
    outer loop
      vertex 0 10 5
      vertex 10 10 -85
      vertex 0 10 -85
    endloop
  endfacet
  facet normal 0 -1 0
    outer loop
      vertex 0 0 -85
      vertex 10 0 5
      vertex 0 0 5
    endloop
  endfacet
  facet normal 0 -1 -0
    outer loop
      vertex 10 0 5
      vertex 0 0 -85
      vertex 10 0 -85
    endloop
  endfacet
  facet normal 0 -1 0
    outer loop
      vertex -100 0 5
      vertex -10 0 15
      vertex -100 0 15
    endloop
  endfacet
  facet normal 0 -1 0
    outer loop
      vertex 10 0 5
      vertex -10 0 15
      vertex 0 0 5
    endloop
  endfacet
  facet normal 0 -1 -0
    outer loop
      vertex -10 0 15
      vertex -100 0 5
      vertex 0 0 5
    endloop
  endfacet
  facet normal 0 -1 0
    outer loop
      vertex -10 0 15
      vertex 10 0 5
      vertex 100 0 15
    endloop
  endfacet
  facet normal 0 -1 0
    outer loop
      vertex 200 0 5
      vertex 100 0 15
      vertex 10 0 5
    endloop
  endfacet
  facet normal 0 -1 0
    outer loop
      vertex 100 0 15
      vertex 200 0 5
      vertex 200 0 15
    endloop
  endfacet
  facet normal 0 -1 0
    outer loop
      vertex 10 0 70
      vertex 20 0 75
      vertex 10 0 75
    endloop
  endfacet
  facet normal 0 -1 0
    outer loop
      vertex 20 0 65
      vertex 10 0 70
      vertex 0 0 65
    endloop
  endfacet
  facet normal 0 -1 0
    outer loop
      vertex 10 0 70
      vertex 20 0 65
      vertex 20 0 75
    endloop
  endfacet
  facet normal 0 -1 0
    outer loop
      vertex -10 0 115
      vertex 0 0 80
      vertex 0 0 115
    endloop
  endfacet
  facet normal 0 -1 0
    outer loop
      vertex -10 0 115
      vertex 0 0 70
      vertex 0 0 80
    endloop
  endfacet
  facet normal 0 -1 0
    outer loop
      vertex 0 0 70
      vertex 0 0 65
      vertex 10 0 70
    endloop
  endfacet
  facet normal 0 -1 0
    outer loop
      vertex -10 0 115
      vertex 0 0 65
      vertex 0 0 70
    endloop
  endfacet
  facet normal 0 -1 0
    outer loop
      vertex -10 0 15
      vertex 0 0 65
      vertex -10 0 115
    endloop
  endfacet
  facet normal 0 -1 -0
    outer loop
      vertex 0 0 65
      vertex -10 0 15
      vertex 0 0 25
    endloop
  endfacet
  facet normal 0 -1 0
    outer loop
      vertex 100 0 15
      vertex 0 0 25
      vertex -10 0 15
    endloop
  endfacet
  facet normal 0 -1 0
    outer loop
      vertex 0 0 25
      vertex 100 0 15
      vertex 100 0 25
    endloop
  endfacet
  facet normal 0 0 -1
    outer loop
      vertex 0 0 -85
      vertex 10 10 -85
      vertex 10 0 -85
    endloop
  endfacet
  facet normal -0 0 -1
    outer loop
      vertex 10 10 -85
      vertex 0 0 -85
      vertex 0 10 -85
    endloop
  endfacet
  facet normal 1 -0 0
    outer loop
      vertex 10 0 5
      vertex 10 10 -85
      vertex 10 10 5
    endloop
  endfacet
  facet normal 1 0 0
    outer loop
      vertex 10 10 -85
      vertex 10 0 5
      vertex 10 0 -85
    endloop
  endfacet
  facet normal -1 0 0
    outer loop
      vertex 0 0 -85
      vertex 0 10 5
      vertex 0 10 -85
    endloop
  endfacet
  facet normal -1 -0 0
    outer loop
      vertex 0 10 5
      vertex 0 0 -85
      vertex 0 0 5
    endloop
  endfacet
  facet normal -1 0 0
    outer loop
      vertex -100 0 5
      vertex -100 10 15
      vertex -100 10 5
    endloop
  endfacet
  facet normal -1 -0 0
    outer loop
      vertex -100 10 15
      vertex -100 0 5
      vertex -100 0 15
    endloop
  endfacet
  facet normal 0 0 -1
    outer loop
      vertex -100 0 5
      vertex 0 10 5
      vertex 0 0 5
    endloop
  endfacet
  facet normal -0 0 -1
    outer loop
      vertex 0 10 5
      vertex -100 0 5
      vertex -100 10 5
    endloop
  endfacet
  facet normal -0 0 1
    outer loop
      vertex -100 10 15
      vertex -10 0 15
      vertex -10 10 15
    endloop
  endfacet
  facet normal 0 0 1
    outer loop
      vertex -10 0 15
      vertex -100 10 15
      vertex -100 0 15
    endloop
  endfacet
  facet normal -0 0 1
    outer loop
      vertex -10 10 115
      vertex 0 0 115
      vertex 0 10 115
    endloop
  endfacet
  facet normal 0 0 1
    outer loop
      vertex 0 0 115
      vertex -10 10 115
      vertex -10 0 115
    endloop
  endfacet
  facet normal -1 0 0
    outer loop
      vertex -10 0 15
      vertex -10 10 115
      vertex -10 10 15
    endloop
  endfacet
  facet normal -1 -0 0
    outer loop
      vertex -10 10 115
      vertex -10 0 15
      vertex -10 0 115
    endloop
  endfacet
  facet normal 1 -0 0
    outer loop
      vertex 20 0 75
      vertex 20 20 65
      vertex 20 20 75
    endloop
  endfacet
  facet normal 1 0 0
    outer loop
      vertex 20 20 65
      vertex 20 0 75
      vertex 20 0 65
    endloop
  endfacet
  facet normal 0 0 1
    outer loop
      vertex 20 20 75
      vertex 19.1421 15 75
      vertex 20 0 75
    endloop
  endfacet
  facet normal 0 0 1
    outer loop
      vertex 20 20 75
      vertex 5 15 75
      vertex 19.1421 15 75
    endloop
  endfacet
  facet normal -0 0 1
    outer loop
      vertex 0 20 75
      vertex 5 15 75
      vertex 20 20 75
    endloop
  endfacet
  facet normal 0 0 1
    outer loop
      vertex 0 10 75
      vertex 5 15 75
      vertex 0 20 75
    endloop
  endfacet
  facet normal 0 0 1
    outer loop
      vertex 5 15 75
      vertex 0 10 75
      vertex 5 5 75
    endloop
  endfacet
  facet normal 0 0 1
    outer loop
      vertex 5 5 75
      vertex 0 10 75
      vertex 0 5 75
    endloop
  endfacet
  facet normal -0 0 1
    outer loop
      vertex 19.1421 5 75
      vertex 20 0 75
      vertex 19.1421 15 75
    endloop
  endfacet
  facet normal 0 0 1
    outer loop
      vertex 10 0 75
      vertex 19.1421 5 75
      vertex 10 5 75
    endloop
  endfacet
  facet normal 0 0 1
    outer loop
      vertex 19.1421 5 75
      vertex 10 0 75
      vertex 20 0 75
    endloop
  endfacet
  facet normal 0 0 -1
    outer loop
      vertex 0 10 65
      vertex 20 0 65
      vertex 0 0 65
    endloop
  endfacet
  facet normal 0 0 -1
    outer loop
      vertex 20 0 65
      vertex 0 10 65
      vertex 20 20 65
    endloop
  endfacet
  facet normal -0 0 -1
    outer loop
      vertex 20 20 65
      vertex 0 10 65
      vertex 0 20 65
    endloop
  endfacet
  facet normal 0 1 -0
    outer loop
      vertex 20 20 65
      vertex 0 20 75
      vertex 20 20 75
    endloop
  endfacet
  facet normal 0 1 0
    outer loop
      vertex 0 20 75
      vertex 20 20 65
      vertex 0 20 65
    endloop
  endfacet
  facet normal 0.707112 -0 0.707102
    outer loop
      vertex 12.0711 5 82.0711
      vertex 19.1421 15 75
      vertex 12.0711 15 82.0711
    endloop
  endfacet
  facet normal 0.707112 0 0.707102
    outer loop
      vertex 19.1421 15 75
      vertex 12.0711 5 82.0711
      vertex 19.1421 5 75
    endloop
  endfacet
  facet normal 0 1 0
    outer loop
      vertex 19.1421 15 75
      vertex 5 15 75
      vertex 12.0711 15 82.0711
    endloop
  endfacet
  facet normal -0.707107 0 0.707107
    outer loop
      vertex 5 5 75
      vertex 12.0711 15 82.0711
      vertex 5 15 75
    endloop
  endfacet
  facet normal -0.707107 0 0.707107
    outer loop
      vertex 12.0711 15 82.0711
      vertex 5 5 75
      vertex 12.0711 5 82.0711
    endloop
  endfacet
  facet normal 0 -1 0
    outer loop
      vertex 10 5 75
      vertex 12.0711 5 82.0711
      vertex 5 5 75
    endloop
  endfacet
  facet normal 0 -1 -0
    outer loop
      vertex 12.0711 5 82.0711
      vertex 10 5 75
      vertex 19.1421 5 75
    endloop
  endfacet
  facet normal 0 0.831465 0.555576
    outer loop
      vertex 10 4.6194 76.9134
      vertex 0 3.53553 78.5355
      vertex 10 3.53553 78.5355
    endloop
  endfacet
  facet normal 0 0.831465 0.555576
    outer loop
      vertex 0 3.53553 78.5355
      vertex 10 4.6194 76.9134
      vertex 0 4.6194 76.9134
    endloop
  endfacet
  facet normal -0 0.555585 0.83146
    outer loop
      vertex 0 3.53553 78.5355
      vertex 10 1.91342 79.6194
      vertex 10 3.53553 78.5355
    endloop
  endfacet
  facet normal 0 0.555585 0.83146
    outer loop
      vertex 10 1.91342 79.6194
      vertex 0 3.53553 78.5355
      vertex 0 1.91342 79.6194
    endloop
  endfacet
  facet normal 0 -0.980785 -0.195091
    outer loop
      vertex 0 -4.6194 73.0866
      vertex 10 -5 75
      vertex 0 -5 75
    endloop
  endfacet
  facet normal 0 -0.980785 -0.195091
    outer loop
      vertex 10 -5 75
      vertex 0 -4.6194 73.0866
      vertex 10 -4.6194 73.0866
    endloop
  endfacet
  facet normal 0 -0.831465 -0.555576
    outer loop
      vertex 0 -3.53553 71.4645
      vertex 10 -4.6194 73.0866
      vertex 0 -4.6194 73.0866
    endloop
  endfacet
  facet normal 0 -0.831465 -0.555576
    outer loop
      vertex 10 -4.6194 73.0866
      vertex 0 -3.53553 71.4645
      vertex 10 -3.53553 71.4645
    endloop
  endfacet
  facet normal 0 -0.555585 -0.83146
    outer loop
      vertex 0 -3.53553 71.4645
      vertex 10 -1.91342 70.3806
      vertex 10 -3.53553 71.4645
    endloop
  endfacet
  facet normal -0 -0.555585 -0.83146
    outer loop
      vertex 10 -1.91342 70.3806
      vertex 0 -3.53553 71.4645
      vertex 0 -1.91342 70.3806
    endloop
  endfacet
  facet normal -0 0.195089 0.980786
    outer loop
      vertex 0 1.91342 79.6194
      vertex 10 0 80
      vertex 10 1.91342 79.6194
    endloop
  endfacet
  facet normal 0 0.195089 0.980786
    outer loop
      vertex 10 0 80
      vertex 0 1.91342 79.6194
      vertex 0 0 80
    endloop
  endfacet
  facet normal 0 -0.980785 0.195091
    outer loop
      vertex 0 -5 75
      vertex 10 -4.6194 76.9134
      vertex 0 -4.6194 76.9134
    endloop
  endfacet
  facet normal 0 -0.980785 0.195091
    outer loop
      vertex 10 -4.6194 76.9134
      vertex 0 -5 75
      vertex 10 -5 75
    endloop
  endfacet
  facet normal 0 -0.195089 -0.980786
    outer loop
      vertex 0 -1.91342 70.3806
      vertex 10 0 70
      vertex 10 -1.91342 70.3806
    endloop
  endfacet
  facet normal -0 -0.195089 -0.980786
    outer loop
      vertex 10 0 70
      vertex 0 -1.91342 70.3806
      vertex 0 0 70
    endloop
  endfacet
  facet normal -0 0.980785 0.195091
    outer loop
      vertex 5 5 75
      vertex 10 4.6194 76.9134
      vertex 10 5 75
    endloop
  endfacet
  facet normal 0 0.980785 0.195091
    outer loop
      vertex 10 4.6194 76.9134
      vertex 5 5 75
      vertex 0 4.6194 76.9134
    endloop
  endfacet
  facet normal 0 0.980785 0.195091
    outer loop
      vertex 0 4.6194 76.9134
      vertex 5 5 75
      vertex 0 5 75
    endloop
  endfacet
  facet normal 1 0 0
    outer loop
      vertex 10 0 75
      vertex 10 4.6194 76.9134
      vertex 10 3.53553 78.5355
    endloop
  endfacet
  facet normal 1 0 0
    outer loop
      vertex 10 0 75
      vertex 10 3.53553 78.5355
      vertex 10 1.91342 79.6194
    endloop
  endfacet
  facet normal 1 0 0
    outer loop
      vertex 10 0 75
      vertex 10 1.91342 79.6194
      vertex 10 0 80
    endloop
  endfacet
  facet normal 1 0 0
    outer loop
      vertex 10 4.6194 76.9134
      vertex 10 0 75
      vertex 10 5 75
    endloop
  endfacet
  facet normal 1 -0 0
    outer loop
      vertex 10 -1.91342 79.6194
      vertex 10 0 75
      vertex 10 0 80
    endloop
  endfacet
  facet normal 1 -0 0
    outer loop
      vertex 10 -3.53553 78.5355
      vertex 10 0 75
      vertex 10 -1.91342 79.6194
    endloop
  endfacet
  facet normal 1 0 0
    outer loop
      vertex 10 0 75
      vertex 10 -1.91342 70.3806
      vertex 10 0 70
    endloop
  endfacet
  facet normal 1 -0 0
    outer loop
      vertex 10 -4.6194 76.9134
      vertex 10 0 75
      vertex 10 -3.53553 78.5355
    endloop
  endfacet
  facet normal 1 0 0
    outer loop
      vertex 10 0 75
      vertex 10 -3.53553 71.4645
      vertex 10 -1.91342 70.3806
    endloop
  endfacet
  facet normal 1 0 0
    outer loop
      vertex 10 -5 75
      vertex 10 0 75
      vertex 10 -4.6194 76.9134
    endloop
  endfacet
  facet normal 1 0 0
    outer loop
      vertex 10 0 75
      vertex 10 -4.6194 73.0866
      vertex 10 -3.53553 71.4645
    endloop
  endfacet
  facet normal 1 0 0
    outer loop
      vertex 10 0 75
      vertex 10 -5 75
      vertex 10 -4.6194 73.0866
    endloop
  endfacet
  facet normal 0 -0.555585 0.83146
    outer loop
      vertex 0 -1.91342 79.6194
      vertex 10 -3.53553 78.5355
      vertex 10 -1.91342 79.6194
    endloop
  endfacet
  facet normal 0 -0.555585 0.83146
    outer loop
      vertex 10 -3.53553 78.5355
      vertex 0 -1.91342 79.6194
      vertex 0 -3.53553 78.5355
    endloop
  endfacet
  facet normal 0 -0.195089 0.980786
    outer loop
      vertex 0 0 80
      vertex 10 -1.91342 79.6194
      vertex 10 0 80
    endloop
  endfacet
  facet normal 0 -0.195089 0.980786
    outer loop
      vertex 10 -1.91342 79.6194
      vertex 0 0 80
      vertex 0 -1.91342 79.6194
    endloop
  endfacet
  facet normal 0 -0.831465 0.555576
    outer loop
      vertex 0 -4.6194 76.9134
      vertex 10 -3.53553 78.5355
      vertex 0 -3.53553 78.5355
    endloop
  endfacet
  facet normal 0 -0.831465 0.555576
    outer loop
      vertex 10 -3.53553 78.5355
      vertex 0 -4.6194 76.9134
      vertex 10 -4.6194 76.9134
    endloop
  endfacet
  facet normal 0 0.831465 0.555576
    outer loop
      vertex 45 4.6194 76.9134
      vertex 35 3.53553 78.5355
      vertex 45 3.53553 78.5355
    endloop
  endfacet
  facet normal 0 0.831465 0.555576
    outer loop
      vertex 35 3.53553 78.5355
      vertex 45 4.6194 76.9134
      vertex 35 4.6194 76.9134
    endloop
  endfacet
  facet normal -0 0.555585 0.83146
    outer loop
      vertex 35 3.53553 78.5355
      vertex 45 1.91342 79.6194
      vertex 45 3.53553 78.5355
    endloop
  endfacet
  facet normal 0 0.555585 0.83146
    outer loop
      vertex 45 1.91342 79.6194
      vertex 35 3.53553 78.5355
      vertex 35 1.91342 79.6194
    endloop
  endfacet
  facet normal 0 -0.980785 -0.195091
    outer loop
      vertex 35 -4.6194 73.0866
      vertex 45 -5 75
      vertex 35 -5 75
    endloop
  endfacet
  facet normal 0 -0.980785 -0.195091
    outer loop
      vertex 45 -5 75
      vertex 35 -4.6194 73.0866
      vertex 45 -4.6194 73.0866
    endloop
  endfacet
  facet normal 0 0.980785 -0.195091
    outer loop
      vertex 45 4.6194 73.0866
      vertex 35 5 75
      vertex 45 5 75
    endloop
  endfacet
  facet normal 0 0.980785 -0.195091
    outer loop
      vertex 35 5 75
      vertex 45 4.6194 73.0866
      vertex 35 4.6194 73.0866
    endloop
  endfacet
  facet normal 0 -0.831465 -0.555576
    outer loop
      vertex 35 -3.53553 71.4645
      vertex 45 -4.6194 73.0866
      vertex 35 -4.6194 73.0866
    endloop
  endfacet
  facet normal 0 -0.831465 -0.555576
    outer loop
      vertex 45 -4.6194 73.0866
      vertex 35 -3.53553 71.4645
      vertex 45 -3.53553 71.4645
    endloop
  endfacet
  facet normal 0 -0.555585 -0.83146
    outer loop
      vertex 35 -3.53553 71.4645
      vertex 45 -1.91342 70.3806
      vertex 45 -3.53553 71.4645
    endloop
  endfacet
  facet normal -0 -0.555585 -0.83146
    outer loop
      vertex 45 -1.91342 70.3806
      vertex 35 -3.53553 71.4645
      vertex 35 -1.91342 70.3806
    endloop
  endfacet
  facet normal 0 0.195089 -0.980786
    outer loop
      vertex 35 0 70
      vertex 45 1.91342 70.3806
      vertex 45 0 70
    endloop
  endfacet
  facet normal 0 0.195089 -0.980786
    outer loop
      vertex 45 1.91342 70.3806
      vertex 35 0 70
      vertex 35 1.91342 70.3806
    endloop
  endfacet
  facet normal -1 0 0
    outer loop
      vertex 35 4.6194 73.0866
      vertex 35 4.6194 76.9134
      vertex 35 5 75
    endloop
  endfacet
  facet normal -1 0 0
    outer loop
      vertex 35 3.53553 71.4645
      vertex 35 4.6194 76.9134
      vertex 35 4.6194 73.0866
    endloop
  endfacet
  facet normal -1 0 0
    outer loop
      vertex 35 3.53553 71.4645
      vertex 35 3.53553 78.5355
      vertex 35 4.6194 76.9134
    endloop
  endfacet
  facet normal -1 0 0
    outer loop
      vertex 35 1.91342 70.3806
      vertex 35 3.53553 78.5355
      vertex 35 3.53553 71.4645
    endloop
  endfacet
  facet normal -1 0 0
    outer loop
      vertex 35 1.91342 70.3806
      vertex 35 1.91342 79.6194
      vertex 35 3.53553 78.5355
    endloop
  endfacet
  facet normal -1 0 0
    outer loop
      vertex 35 0 70
      vertex 35 1.91342 79.6194
      vertex 35 1.91342 70.3806
    endloop
  endfacet
  facet normal -1 0 0
    outer loop
      vertex 35 0 70
      vertex 35 0 80
      vertex 35 1.91342 79.6194
    endloop
  endfacet
  facet normal -1 0 0
    outer loop
      vertex 35 -1.91342 70.3806
      vertex 35 0 80
      vertex 35 0 70
    endloop
  endfacet
  facet normal -1 0 0
    outer loop
      vertex 35 -1.91342 70.3806
      vertex 35 -1.91342 79.6194
      vertex 35 0 80
    endloop
  endfacet
  facet normal -1 0 0
    outer loop
      vertex 35 -3.53553 71.4645
      vertex 35 -1.91342 79.6194
      vertex 35 -1.91342 70.3806
    endloop
  endfacet
  facet normal -1 0 0
    outer loop
      vertex 35 -3.53553 71.4645
      vertex 35 -3.53553 78.5355
      vertex 35 -1.91342 79.6194
    endloop
  endfacet
  facet normal -1 0 0
    outer loop
      vertex 35 -4.6194 73.0866
      vertex 35 -3.53553 78.5355
      vertex 35 -3.53553 71.4645
    endloop
  endfacet
  facet normal -1 0 0
    outer loop
      vertex 35 -4.6194 73.0866
      vertex 35 -4.6194 76.9134
      vertex 35 -3.53553 78.5355
    endloop
  endfacet
  facet normal -1 0 -0
    outer loop
      vertex 35 -4.6194 76.9134
      vertex 35 -4.6194 73.0866
      vertex 35 -5 75
    endloop
  endfacet
  facet normal -0 0.195089 0.980786
    outer loop
      vertex 35 1.91342 79.6194
      vertex 45 0 80
      vertex 45 1.91342 79.6194
    endloop
  endfacet
  facet normal 0 0.195089 0.980786
    outer loop
      vertex 45 0 80
      vertex 35 1.91342 79.6194
      vertex 35 0 80
    endloop
  endfacet
  facet normal 0 0.555585 -0.83146
    outer loop
      vertex 35 1.91342 70.3806
      vertex 45 3.53553 71.4645
      vertex 45 1.91342 70.3806
    endloop
  endfacet
  facet normal 0 0.555585 -0.83146
    outer loop
      vertex 45 3.53553 71.4645
      vertex 35 1.91342 70.3806
      vertex 35 3.53553 71.4645
    endloop
  endfacet
  facet normal 0 -0.980785 0.195091
    outer loop
      vertex 35 -5 75
      vertex 45 -4.6194 76.9134
      vertex 35 -4.6194 76.9134
    endloop
  endfacet
  facet normal 0 -0.980785 0.195091
    outer loop
      vertex 45 -4.6194 76.9134
      vertex 35 -5 75
      vertex 45 -5 75
    endloop
  endfacet
  facet normal 0 -0.195089 -0.980786
    outer loop
      vertex 35 -1.91342 70.3806
      vertex 45 0 70
      vertex 45 -1.91342 70.3806
    endloop
  endfacet
  facet normal -0 -0.195089 -0.980786
    outer loop
      vertex 45 0 70
      vertex 35 -1.91342 70.3806
      vertex 35 0 70
    endloop
  endfacet
  facet normal 0 0.980785 0.195091
    outer loop
      vertex 45 5 75
      vertex 35 4.6194 76.9134
      vertex 45 4.6194 76.9134
    endloop
  endfacet
  facet normal 0 0.980785 0.195091
    outer loop
      vertex 35 4.6194 76.9134
      vertex 45 5 75
      vertex 35 5 75
    endloop
  endfacet
  facet normal 1 0 0
    outer loop
      vertex 45 4.6194 76.9134
      vertex 45 4.6194 73.0866
      vertex 45 5 75
    endloop
  endfacet
  facet normal 1 0 0
    outer loop
      vertex 45 3.53553 78.5355
      vertex 45 4.6194 73.0866
      vertex 45 4.6194 76.9134
    endloop
  endfacet
  facet normal 1 0 0
    outer loop
      vertex 45 3.53553 78.5355
      vertex 45 3.53553 71.4645
      vertex 45 4.6194 73.0866
    endloop
  endfacet
  facet normal 1 0 0
    outer loop
      vertex 45 1.91342 79.6194
      vertex 45 3.53553 71.4645
      vertex 45 3.53553 78.5355
    endloop
  endfacet
  facet normal 1 0 0
    outer loop
      vertex 45 1.91342 79.6194
      vertex 45 1.91342 70.3806
      vertex 45 3.53553 71.4645
    endloop
  endfacet
  facet normal 1 0 0
    outer loop
      vertex 45 0 80
      vertex 45 1.91342 70.3806
      vertex 45 1.91342 79.6194
    endloop
  endfacet
  facet normal 1 0 0
    outer loop
      vertex 45 0 80
      vertex 45 0 70
      vertex 45 1.91342 70.3806
    endloop
  endfacet
  facet normal 1 -0 0
    outer loop
      vertex 45 -1.91342 79.6194
      vertex 45 0 70
      vertex 45 0 80
    endloop
  endfacet
  facet normal 1 0 0
    outer loop
      vertex 45 -1.91342 79.6194
      vertex 45 -1.91342 70.3806
      vertex 45 0 70
    endloop
  endfacet
  facet normal 1 -0 0
    outer loop
      vertex 45 -3.53553 78.5355
      vertex 45 -1.91342 70.3806
      vertex 45 -1.91342 79.6194
    endloop
  endfacet
  facet normal 1 0 0
    outer loop
      vertex 45 -3.53553 78.5355
      vertex 45 -3.53553 71.4645
      vertex 45 -1.91342 70.3806
    endloop
  endfacet
  facet normal 1 -0 0
    outer loop
      vertex 45 -4.6194 76.9134
      vertex 45 -3.53553 71.4645
      vertex 45 -3.53553 78.5355
    endloop
  endfacet
  facet normal 1 0 0
    outer loop
      vertex 45 -4.6194 76.9134
      vertex 45 -4.6194 73.0866
      vertex 45 -3.53553 71.4645
    endloop
  endfacet
  facet normal 1 0 -0
    outer loop
      vertex 45 -4.6194 73.0866
      vertex 45 -4.6194 76.9134
      vertex 45 -5 75
    endloop
  endfacet
  facet normal 0 0.831465 -0.555576
    outer loop
      vertex 45 3.53553 71.4645
      vertex 35 4.6194 73.0866
      vertex 45 4.6194 73.0866
    endloop
  endfacet
  facet normal 0 0.831465 -0.555576
    outer loop
      vertex 35 4.6194 73.0866
      vertex 45 3.53553 71.4645
      vertex 35 3.53553 71.4645
    endloop
  endfacet
  facet normal 0 -0.555585 0.83146
    outer loop
      vertex 35 -1.91342 79.6194
      vertex 45 -3.53553 78.5355
      vertex 45 -1.91342 79.6194
    endloop
  endfacet
  facet normal 0 -0.555585 0.83146
    outer loop
      vertex 45 -3.53553 78.5355
      vertex 35 -1.91342 79.6194
      vertex 35 -3.53553 78.5355
    endloop
  endfacet
  facet normal 0 -0.195089 0.980786
    outer loop
      vertex 35 0 80
      vertex 45 -1.91342 79.6194
      vertex 45 0 80
    endloop
  endfacet
  facet normal 0 -0.195089 0.980786
    outer loop
      vertex 45 -1.91342 79.6194
      vertex 35 0 80
      vertex 35 -1.91342 79.6194
    endloop
  endfacet
  facet normal 0 -0.831465 0.555576
    outer loop
      vertex 35 -4.6194 76.9134
      vertex 45 -3.53553 78.5355
      vertex 35 -3.53553 78.5355
    endloop
  endfacet
  facet normal 0 -0.831465 0.555576
    outer loop
      vertex 45 -3.53553 78.5355
      vertex 35 -4.6194 76.9134
      vertex 45 -4.6194 76.9134
    endloop
  endfacet
  facet normal 0 0.831465 0.555576
    outer loop
      vertex 80 4.6194 76.9134
      vertex 70 3.53553 78.5355
      vertex 80 3.53553 78.5355
    endloop
  endfacet
  facet normal 0 0.831465 0.555576
    outer loop
      vertex 70 3.53553 78.5355
      vertex 80 4.6194 76.9134
      vertex 70 4.6194 76.9134
    endloop
  endfacet
  facet normal -0 0.555585 0.83146
    outer loop
      vertex 70 3.53553 78.5355
      vertex 80 1.91342 79.6194
      vertex 80 3.53553 78.5355
    endloop
  endfacet
  facet normal 0 0.555585 0.83146
    outer loop
      vertex 80 1.91342 79.6194
      vertex 70 3.53553 78.5355
      vertex 70 1.91342 79.6194
    endloop
  endfacet
  facet normal 0 -0.980785 0.195091
    outer loop
      vertex 70 -5 75
      vertex 80 -4.6194 76.9134
      vertex 70 -4.6194 76.9134
    endloop
  endfacet
  facet normal 0 -0.980785 0.195091
    outer loop
      vertex 80 -4.6194 76.9134
      vertex 70 -5 75
      vertex 80 -5 75
    endloop
  endfacet
  facet normal 0 -0.980785 -0.195091
    outer loop
      vertex 70 -4.6194 73.0866
      vertex 80 -5 75
      vertex 70 -5 75
    endloop
  endfacet
  facet normal 0 -0.980785 -0.195091
    outer loop
      vertex 80 -5 75
      vertex 70 -4.6194 73.0866
      vertex 80 -4.6194 73.0866
    endloop
  endfacet
  facet normal 0 0.980785 -0.195091
    outer loop
      vertex 80 4.6194 73.0866
      vertex 70 5 75
      vertex 80 5 75
    endloop
  endfacet
  facet normal 0 0.980785 -0.195091
    outer loop
      vertex 70 5 75
      vertex 80 4.6194 73.0866
      vertex 70 4.6194 73.0866
    endloop
  endfacet
  facet normal 0 -0.831465 -0.555576
    outer loop
      vertex 70 -3.53553 71.4645
      vertex 80 -4.6194 73.0866
      vertex 70 -4.6194 73.0866
    endloop
  endfacet
  facet normal 0 -0.831465 -0.555576
    outer loop
      vertex 80 -4.6194 73.0866
      vertex 70 -3.53553 71.4645
      vertex 80 -3.53553 71.4645
    endloop
  endfacet
  facet normal 0 -0.555585 -0.83146
    outer loop
      vertex 70 -3.53553 71.4645
      vertex 80 -1.91342 70.3806
      vertex 80 -3.53553 71.4645
    endloop
  endfacet
  facet normal -0 -0.555585 -0.83146
    outer loop
      vertex 80 -1.91342 70.3806
      vertex 70 -3.53553 71.4645
      vertex 70 -1.91342 70.3806
    endloop
  endfacet
  facet normal 0 0.195089 -0.980786
    outer loop
      vertex 70 0 70
      vertex 80 1.91342 70.3806
      vertex 80 0 70
    endloop
  endfacet
  facet normal 0 0.195089 -0.980786
    outer loop
      vertex 80 1.91342 70.3806
      vertex 70 0 70
      vertex 70 1.91342 70.3806
    endloop
  endfacet
  facet normal -1 0 0
    outer loop
      vertex 70 4.6194 73.0866
      vertex 70 4.6194 76.9134
      vertex 70 5 75
    endloop
  endfacet
  facet normal -1 0 0
    outer loop
      vertex 70 3.53553 71.4645
      vertex 70 4.6194 76.9134
      vertex 70 4.6194 73.0866
    endloop
  endfacet
  facet normal -1 0 0
    outer loop
      vertex 70 3.53553 71.4645
      vertex 70 3.53553 78.5355
      vertex 70 4.6194 76.9134
    endloop
  endfacet
  facet normal -1 0 0
    outer loop
      vertex 70 1.91342 70.3806
      vertex 70 3.53553 78.5355
      vertex 70 3.53553 71.4645
    endloop
  endfacet
  facet normal -1 0 0
    outer loop
      vertex 70 1.91342 70.3806
      vertex 70 1.91342 79.6194
      vertex 70 3.53553 78.5355
    endloop
  endfacet
  facet normal -1 0 0
    outer loop
      vertex 70 0 70
      vertex 70 1.91342 79.6194
      vertex 70 1.91342 70.3806
    endloop
  endfacet
  facet normal -1 0 0
    outer loop
      vertex 70 0 70
      vertex 70 0 80
      vertex 70 1.91342 79.6194
    endloop
  endfacet
  facet normal -1 0 0
    outer loop
      vertex 70 -1.91342 70.3806
      vertex 70 0 80
      vertex 70 0 70
    endloop
  endfacet
  facet normal -1 0 0
    outer loop
      vertex 70 -1.91342 70.3806
      vertex 70 -1.91342 79.6194
      vertex 70 0 80
    endloop
  endfacet
  facet normal -1 0 0
    outer loop
      vertex 70 -3.53553 71.4645
      vertex 70 -1.91342 79.6194
      vertex 70 -1.91342 70.3806
    endloop
  endfacet
  facet normal -1 0 0
    outer loop
      vertex 70 -3.53553 71.4645
      vertex 70 -3.53553 78.5355
      vertex 70 -1.91342 79.6194
    endloop
  endfacet
  facet normal -1 0 0
    outer loop
      vertex 70 -4.6194 73.0866
      vertex 70 -3.53553 78.5355
      vertex 70 -3.53553 71.4645
    endloop
  endfacet
  facet normal -1 0 0
    outer loop
      vertex 70 -4.6194 73.0866
      vertex 70 -4.6194 76.9134
      vertex 70 -3.53553 78.5355
    endloop
  endfacet
  facet normal -1 0 -0
    outer loop
      vertex 70 -4.6194 76.9134
      vertex 70 -4.6194 73.0866
      vertex 70 -5 75
    endloop
  endfacet
  facet normal -0 0.195089 0.980786
    outer loop
      vertex 70 1.91342 79.6194
      vertex 80 0 80
      vertex 80 1.91342 79.6194
    endloop
  endfacet
  facet normal 0 0.195089 0.980786
    outer loop
      vertex 80 0 80
      vertex 70 1.91342 79.6194
      vertex 70 0 80
    endloop
  endfacet
  facet normal 0 0.555585 -0.83146
    outer loop
      vertex 70 1.91342 70.3806
      vertex 80 3.53553 71.4645
      vertex 80 1.91342 70.3806
    endloop
  endfacet
  facet normal 0 0.555585 -0.83146
    outer loop
      vertex 80 3.53553 71.4645
      vertex 70 1.91342 70.3806
      vertex 70 3.53553 71.4645
    endloop
  endfacet
  facet normal 0 -0.195089 -0.980786
    outer loop
      vertex 70 -1.91342 70.3806
      vertex 80 0 70
      vertex 80 -1.91342 70.3806
    endloop
  endfacet
  facet normal -0 -0.195089 -0.980786
    outer loop
      vertex 80 0 70
      vertex 70 -1.91342 70.3806
      vertex 70 0 70
    endloop
  endfacet
  facet normal 0 0.980785 0.195091
    outer loop
      vertex 80 5 75
      vertex 70 4.6194 76.9134
      vertex 80 4.6194 76.9134
    endloop
  endfacet
  facet normal 0 0.980785 0.195091
    outer loop
      vertex 70 4.6194 76.9134
      vertex 80 5 75
      vertex 70 5 75
    endloop
  endfacet
  facet normal 1 0 0
    outer loop
      vertex 80 4.6194 76.9134
      vertex 80 4.6194 73.0866
      vertex 80 5 75
    endloop
  endfacet
  facet normal 1 0 0
    outer loop
      vertex 80 3.53553 78.5355
      vertex 80 4.6194 73.0866
      vertex 80 4.6194 76.9134
    endloop
  endfacet
  facet normal 1 0 0
    outer loop
      vertex 80 3.53553 78.5355
      vertex 80 3.53553 71.4645
      vertex 80 4.6194 73.0866
    endloop
  endfacet
  facet normal 1 0 0
    outer loop
      vertex 80 1.91342 79.6194
      vertex 80 3.53553 71.4645
      vertex 80 3.53553 78.5355
    endloop
  endfacet
  facet normal 1 0 0
    outer loop
      vertex 80 1.91342 79.6194
      vertex 80 1.91342 70.3806
      vertex 80 3.53553 71.4645
    endloop
  endfacet
  facet normal 1 0 0
    outer loop
      vertex 80 0 80
      vertex 80 1.91342 70.3806
      vertex 80 1.91342 79.6194
    endloop
  endfacet
  facet normal 1 0 0
    outer loop
      vertex 80 0 80
      vertex 80 0 70
      vertex 80 1.91342 70.3806
    endloop
  endfacet
  facet normal 1 -0 0
    outer loop
      vertex 80 -1.91342 79.6194
      vertex 80 0 70
      vertex 80 0 80
    endloop
  endfacet
  facet normal 1 0 0
    outer loop
      vertex 80 -1.91342 79.6194
      vertex 80 -1.91342 70.3806
      vertex 80 0 70
    endloop
  endfacet
  facet normal 1 -0 0
    outer loop
      vertex 80 -3.53553 78.5355
      vertex 80 -1.91342 70.3806
      vertex 80 -1.91342 79.6194
    endloop
  endfacet
  facet normal 1 0 0
    outer loop
      vertex 80 -3.53553 78.5355
      vertex 80 -3.53553 71.4645
      vertex 80 -1.91342 70.3806
    endloop
  endfacet
  facet normal 1 -0 0
    outer loop
      vertex 80 -4.6194 76.9134
      vertex 80 -3.53553 71.4645
      vertex 80 -3.53553 78.5355
    endloop
  endfacet
  facet normal 1 0 0
    outer loop
      vertex 80 -4.6194 76.9134
      vertex 80 -4.6194 73.0866
      vertex 80 -3.53553 71.4645
    endloop
  endfacet
  facet normal 1 0 -0
    outer loop
      vertex 80 -4.6194 73.0866
      vertex 80 -4.6194 76.9134
      vertex 80 -5 75
    endloop
  endfacet
  facet normal 0 0.831465 -0.555576
    outer loop
      vertex 80 3.53553 71.4645
      vertex 70 4.6194 73.0866
      vertex 80 4.6194 73.0866
    endloop
  endfacet
  facet normal 0 0.831465 -0.555576
    outer loop
      vertex 70 4.6194 73.0866
      vertex 80 3.53553 71.4645
      vertex 70 3.53553 71.4645
    endloop
  endfacet
  facet normal 0 -0.555585 0.83146
    outer loop
      vertex 70 -1.91342 79.6194
      vertex 80 -3.53553 78.5355
      vertex 80 -1.91342 79.6194
    endloop
  endfacet
  facet normal 0 -0.555585 0.83146
    outer loop
      vertex 80 -3.53553 78.5355
      vertex 70 -1.91342 79.6194
      vertex 70 -3.53553 78.5355
    endloop
  endfacet
  facet normal 0 -0.195089 0.980786
    outer loop
      vertex 70 0 80
      vertex 80 -1.91342 79.6194
      vertex 80 0 80
    endloop
  endfacet
  facet normal 0 -0.195089 0.980786
    outer loop
      vertex 80 -1.91342 79.6194
      vertex 70 0 80
      vertex 70 -1.91342 79.6194
    endloop
  endfacet
  facet normal 0 -0.831465 0.555576
    outer loop
      vertex 70 -4.6194 76.9134
      vertex 80 -3.53553 78.5355
      vertex 70 -3.53553 78.5355
    endloop
  endfacet
  facet normal 0 -0.831465 0.555576
    outer loop
      vertex 80 -3.53553 78.5355
      vertex 70 -4.6194 76.9134
      vertex 80 -4.6194 76.9134
    endloop
  endfacet
  facet normal 1 -0 0
    outer loop
      vertex 200 0 15
      vertex 200 100 5
      vertex 200 100 15
    endloop
  endfacet
  facet normal 1 0 0
    outer loop
      vertex 200 100 5
      vertex 200 0 15
      vertex 200 0 5
    endloop
  endfacet
  facet normal 0 0 -1
    outer loop
      vertex 10 10 5
      vertex 200 0 5
      vertex 10 0 5
    endloop
  endfacet
  facet normal 0 0 -1
    outer loop
      vertex 200 0 5
      vertex 10 10 5
      vertex 200 100 5
    endloop
  endfacet
  facet normal 0 0 -1
    outer loop
      vertex 0 100 5
      vertex 10 10 5
      vertex 0 10 5
    endloop
  endfacet
  facet normal 0 0 -1
    outer loop
      vertex 10 10 5
      vertex 0 100 5
      vertex 200 100 5
    endloop
  endfacet
  facet normal -1 0 0
    outer loop
      vertex 0 10 5
      vertex 0 100 15
      vertex 0 100 5
    endloop
  endfacet
  facet normal -1 -0 0
    outer loop
      vertex 0 100 15
      vertex 0 10 5
      vertex 0 10 15
    endloop
  endfacet
  facet normal 0 1 -0
    outer loop
      vertex 200 100 5
      vertex 0 100 15
      vertex 200 100 15
    endloop
  endfacet
  facet normal 0 1 0
    outer loop
      vertex 0 100 15
      vertex 200 100 5
      vertex 0 100 5
    endloop
  endfacet
  facet normal -0.980785 0 -0.195091
    outer loop
      vertex 95.3806 -100 23.0866
      vertex 95 -50 25
      vertex 95.3806 -50 23.0866
    endloop
  endfacet
  facet normal -0.980785 -0 -0.195091
    outer loop
      vertex 95 -50 25
      vertex 95.3806 -100 23.0866
      vertex 95 -100 25
    endloop
  endfacet
  facet normal 0.831671 -0 0.555268
    outer loop
      vertex 103.536 -100 28.5355
      vertex 104.619 -50 26.9134
      vertex 103.536 -50 28.5355
    endloop
  endfacet
  facet normal 0.831671 0 0.555268
    outer loop
      vertex 104.619 -50 26.9134
      vertex 103.536 -100 28.5355
      vertex 104.619 -100 26.9134
    endloop
  endfacet
  facet normal 0.980746 -0 0.195288
    outer loop
      vertex 104.619 -100 26.9134
      vertex 105 -50 25
      vertex 104.619 -50 26.9134
    endloop
  endfacet
  facet normal 0.980746 0 0.195288
    outer loop
      vertex 105 -50 25
      vertex 104.619 -100 26.9134
      vertex 105 -100 25
    endloop
  endfacet
  facet normal 0.555374 0 0.831601
    outer loop
      vertex 101.913 -50 29.6194
      vertex 103.536 -100 28.5355
      vertex 103.536 -50 28.5355
    endloop
  endfacet
  facet normal 0.555374 0 0.831601
    outer loop
      vertex 103.536 -100 28.5355
      vertex 101.913 -50 29.6194
      vertex 101.913 -100 29.6194
    endloop
  endfacet
  facet normal 0.831671 0 -0.555268
    outer loop
      vertex 104.619 -100 23.0866
      vertex 103.536 -50 21.4645
      vertex 104.619 -50 23.0866
    endloop
  endfacet
  facet normal 0.831671 0 -0.555268
    outer loop
      vertex 103.536 -50 21.4645
      vertex 104.619 -100 23.0866
      vertex 103.536 -100 21.4645
    endloop
  endfacet
  facet normal -0.195091 0 0.980785
    outer loop
      vertex 98.0866 -50 29.6194
      vertex 100 -100 30
      vertex 100 -50 30
    endloop
  endfacet
  facet normal -0.195091 0 0.980785
    outer loop
      vertex 100 -100 30
      vertex 98.0866 -50 29.6194
      vertex 98.0866 -100 29.6194
    endloop
  endfacet
  facet normal 0.19513 0 -0.980777
    outer loop
      vertex 100 -100 20
      vertex 101.913 -50 20.3806
      vertex 101.913 -100 20.3806
    endloop
  endfacet
  facet normal 0.19513 0 -0.980777
    outer loop
      vertex 101.913 -50 20.3806
      vertex 100 -100 20
      vertex 100 -50 20
    endloop
  endfacet
  facet normal -0.831458 0 0.555587
    outer loop
      vertex 95.3806 -100 26.9134
      vertex 96.4645 -50 28.5355
      vertex 95.3806 -50 26.9134
    endloop
  endfacet
  facet normal -0.831458 0 0.555587
    outer loop
      vertex 96.4645 -50 28.5355
      vertex 95.3806 -100 26.9134
      vertex 96.4645 -100 28.5355
    endloop
  endfacet
  facet normal -0.980785 0 0.195091
    outer loop
      vertex 95 -100 25
      vertex 95.3806 -50 26.9134
      vertex 95 -50 25
    endloop
  endfacet
  facet normal -0.980785 0 0.195091
    outer loop
      vertex 95.3806 -50 26.9134
      vertex 95 -100 25
      vertex 95.3806 -100 26.9134
    endloop
  endfacet
  facet normal -0.195091 0 -0.980785
    outer loop
      vertex 98.0866 -100 20.3806
      vertex 100 -50 20
      vertex 100 -100 20
    endloop
  endfacet
  facet normal -0.195091 0 -0.980785
    outer loop
      vertex 100 -50 20
      vertex 98.0866 -100 20.3806
      vertex 98.0866 -50 20.3806
    endloop
  endfacet
  facet normal 0.19513 0 0.980777
    outer loop
      vertex 100 -50 30
      vertex 101.913 -100 29.6194
      vertex 101.913 -50 29.6194
    endloop
  endfacet
  facet normal 0.19513 0 0.980777
    outer loop
      vertex 101.913 -100 29.6194
      vertex 100 -50 30
      vertex 100 -100 30
    endloop
  endfacet
  facet normal 0.555374 0 -0.831601
    outer loop
      vertex 101.913 -100 20.3806
      vertex 103.536 -50 21.4645
      vertex 103.536 -100 21.4645
    endloop
  endfacet
  facet normal 0.555374 0 -0.831601
    outer loop
      vertex 103.536 -50 21.4645
      vertex 101.913 -100 20.3806
      vertex 101.913 -50 20.3806
    endloop
  endfacet
  facet normal -0.831458 0 -0.555587
    outer loop
      vertex 96.4645 -100 21.4645
      vertex 95.3806 -50 23.0866
      vertex 96.4645 -50 21.4645
    endloop
  endfacet
  facet normal -0.831458 -0 -0.555587
    outer loop
      vertex 95.3806 -50 23.0866
      vertex 96.4645 -100 21.4645
      vertex 95.3806 -100 23.0866
    endloop
  endfacet
  facet normal -0.555587 0 0.831458
    outer loop
      vertex 96.4645 -50 28.5355
      vertex 98.0866 -100 29.6194
      vertex 98.0866 -50 29.6194
    endloop
  endfacet
  facet normal -0.555587 0 0.831458
    outer loop
      vertex 98.0866 -100 29.6194
      vertex 96.4645 -50 28.5355
      vertex 96.4645 -100 28.5355
    endloop
  endfacet
  facet normal -0.555587 0 -0.831458
    outer loop
      vertex 96.4645 -100 21.4645
      vertex 98.0866 -50 20.3806
      vertex 98.0866 -100 20.3806
    endloop
  endfacet
  facet normal -0.555587 0 -0.831458
    outer loop
      vertex 98.0866 -50 20.3806
      vertex 96.4645 -100 21.4645
      vertex 96.4645 -50 21.4645
    endloop
  endfacet
  facet normal 0 1 0
    outer loop
      vertex 101.913 -50 29.6194
      vertex 98.0866 -50 29.6194
      vertex 100 -50 30
    endloop
  endfacet
  facet normal 0 1 0
    outer loop
      vertex 103.536 -50 28.5355
      vertex 98.0866 -50 29.6194
      vertex 101.913 -50 29.6194
    endloop
  endfacet
  facet normal 0 1 0
    outer loop
      vertex 103.536 -50 28.5355
      vertex 96.4645 -50 28.5355
      vertex 98.0866 -50 29.6194
    endloop
  endfacet
  facet normal 0 1 0
    outer loop
      vertex 104.619 -50 26.9134
      vertex 96.4645 -50 28.5355
      vertex 103.536 -50 28.5355
    endloop
  endfacet
  facet normal 0 1 0
    outer loop
      vertex 104.619 -50 26.9134
      vertex 95.3806 -50 26.9134
      vertex 96.4645 -50 28.5355
    endloop
  endfacet
  facet normal 0 1 0
    outer loop
      vertex 105 -50 25
      vertex 95.3806 -50 26.9134
      vertex 104.619 -50 26.9134
    endloop
  endfacet
  facet normal 0 1 0
    outer loop
      vertex 105 -50 25
      vertex 95 -50 25
      vertex 95.3806 -50 26.9134
    endloop
  endfacet
  facet normal 0 1 -0
    outer loop
      vertex 104.619 -50 23.0866
      vertex 95 -50 25
      vertex 105 -50 25
    endloop
  endfacet
  facet normal 0 1 0
    outer loop
      vertex 104.619 -50 23.0866
      vertex 95.3806 -50 23.0866
      vertex 95 -50 25
    endloop
  endfacet
  facet normal 0 1 -0
    outer loop
      vertex 103.536 -50 21.4645
      vertex 95.3806 -50 23.0866
      vertex 104.619 -50 23.0866
    endloop
  endfacet
  facet normal 0 1 0
    outer loop
      vertex 103.536 -50 21.4645
      vertex 96.4645 -50 21.4645
      vertex 95.3806 -50 23.0866
    endloop
  endfacet
  facet normal 0 1 -0
    outer loop
      vertex 101.913 -50 20.3806
      vertex 96.4645 -50 21.4645
      vertex 103.536 -50 21.4645
    endloop
  endfacet
  facet normal 0 1 0
    outer loop
      vertex 101.913 -50 20.3806
      vertex 98.0866 -50 20.3806
      vertex 96.4645 -50 21.4645
    endloop
  endfacet
  facet normal -0 1 0
    outer loop
      vertex 98.0866 -50 20.3806
      vertex 101.913 -50 20.3806
      vertex 100 -50 20
    endloop
  endfacet
  facet normal 0.980746 0 -0.195288
    outer loop
      vertex 105 -100 25
      vertex 104.619 -50 23.0866
      vertex 105 -50 25
    endloop
  endfacet
  facet normal 0.980746 0 -0.195288
    outer loop
      vertex 104.619 -50 23.0866
      vertex 105 -100 25
      vertex 104.619 -100 23.0866
    endloop
  endfacet
  facet normal 0 -1 0
    outer loop
      vertex 98.0866 -100 29.6194
      vertex 101.913 -100 29.6194
      vertex 100 -100 30
    endloop
  endfacet
  facet normal 0 -1 0
    outer loop
      vertex 96.4645 -100 28.5355
      vertex 101.913 -100 29.6194
      vertex 98.0866 -100 29.6194
    endloop
  endfacet
  facet normal 0 -1 0
    outer loop
      vertex 96.4645 -100 28.5355
      vertex 103.536 -100 28.5355
      vertex 101.913 -100 29.6194
    endloop
  endfacet
  facet normal 0 -1 0
    outer loop
      vertex 95.3806 -100 26.9134
      vertex 103.536 -100 28.5355
      vertex 96.4645 -100 28.5355
    endloop
  endfacet
  facet normal 0 -1 0
    outer loop
      vertex 95.3806 -100 26.9134
      vertex 104.619 -100 26.9134
      vertex 103.536 -100 28.5355
    endloop
  endfacet
  facet normal 0 -1 0
    outer loop
      vertex 95 -100 25
      vertex 104.619 -100 26.9134
      vertex 95.3806 -100 26.9134
    endloop
  endfacet
  facet normal 0 -1 0
    outer loop
      vertex 95 -100 25
      vertex 105 -100 25
      vertex 104.619 -100 26.9134
    endloop
  endfacet
  facet normal 0 -1 0
    outer loop
      vertex 95.3806 -100 23.0866
      vertex 105 -100 25
      vertex 95 -100 25
    endloop
  endfacet
  facet normal 0 -1 0
    outer loop
      vertex 95.3806 -100 23.0866
      vertex 104.619 -100 23.0866
      vertex 105 -100 25
    endloop
  endfacet
  facet normal 0 -1 0
    outer loop
      vertex 96.4645 -100 21.4645
      vertex 104.619 -100 23.0866
      vertex 95.3806 -100 23.0866
    endloop
  endfacet
  facet normal 0 -1 0
    outer loop
      vertex 96.4645 -100 21.4645
      vertex 103.536 -100 21.4645
      vertex 104.619 -100 23.0866
    endloop
  endfacet
  facet normal 0 -1 0
    outer loop
      vertex 98.0866 -100 20.3806
      vertex 103.536 -100 21.4645
      vertex 96.4645 -100 21.4645
    endloop
  endfacet
  facet normal 0 -1 0
    outer loop
      vertex 98.0866 -100 20.3806
      vertex 101.913 -100 20.3806
      vertex 103.536 -100 21.4645
    endloop
  endfacet
  facet normal -0 -1 0
    outer loop
      vertex 101.913 -100 20.3806
      vertex 98.0866 -100 20.3806
      vertex 100 -100 20
    endloop
  endfacet
endsolid OpenSCAD_Model
