solid OpenSCAD_Model
  facet normal 0 -0.913548 0.40673
    outer loop
      vertex -60 -17.5528 15.4508
      vertex -47.9633 -13.3013 25
      vertex -60 -13.3013 25
    endloop
  endfacet
  facet normal 0 -0.913548 0.40673
    outer loop
      vertex -47.9633 -13.3013 25
      vertex -60 -17.5528 15.4508
      vertex -46.5819 -17.5528 15.4508
    endloop
  endfacet
  facet normal 0 -0.309024 0.951054
    outer loop
      vertex -60 19.6044 48.9074
      vertex -48.9074 10.3956 45.9152
      vertex -45.9152 19.6044 48.9074
    endloop
  endfacet
  facet normal 6.92999e-06 -0.309017 0.951057
    outer loop
      vertex -60 9.66317 45.6773
      vertex -48.9074 10.3956 45.9152
      vertex -60 19.6044 48.9074
    endloop
  endfacet
  facet normal 0 -0.308922 0.951087
    outer loop
      vertex -48.9074 10.3956 45.9152
      vertex -60 9.66317 45.6773
      vertex -48.9844 9.66317 45.6773
    endloop
  endfacet
  facet normal 0 0.309018 -0.951056
    outer loop
      vertex -60 40.3956 -48.9074
      vertex -10 50.3368 -45.6773
      vertex -10 40.3956 -48.9074
    endloop
  endfacet
  facet normal 0 0.309018 -0.951056
    outer loop
      vertex -10 50.3368 -45.6773
      vertex -60 40.3956 -48.9074
      vertex -60 50.3368 -45.6773
    endloop
  endfacet
  facet normal 0 0.104526 -0.994522
    outer loop
      vertex -60 30 -50
      vertex -10 40.3956 -48.9074
      vertex -10 30 -50
    endloop
  endfacet
  facet normal 0 0.104526 -0.994522
    outer loop
      vertex -10 40.3956 -48.9074
      vertex -60 30 -50
      vertex -60 40.3956 -48.9074
    endloop
  endfacet
  facet normal 0 0.499995 -0.866028
    outer loop
      vertex -60 50.3368 -45.6773
      vertex -10 59.3893 -40.4509
      vertex -10 50.3368 -45.6773
    endloop
  endfacet
  facet normal 0 0.499995 -0.866028
    outer loop
      vertex -10 59.3893 -40.4509
      vertex -60 50.3368 -45.6773
      vertex -60 59.3893 -40.4509
    endloop
  endfacet
  facet normal 0 -0.809015 -0.587789
    outer loop
      vertex -60 -7.15724 -33.4565
      vertex -10 -13.3013 -25
      vertex -60 -13.3013 -25
    endloop
  endfacet
  facet normal 0 -0.809015 -0.587789
    outer loop
      vertex -10 -13.3013 -25
      vertex -60 -7.15724 -33.4565
      vertex -10 -7.15724 -33.4565
    endloop
  endfacet
  facet normal 0 0.913548 -0.40673
    outer loop
      vertex -10 73.3013 -25
      vertex -60 77.5528 -15.4508
      vertex -10 77.5528 -15.4508
    endloop
  endfacet
  facet normal 0 0.913548 -0.40673
    outer loop
      vertex -60 77.5528 -15.4508
      vertex -10 73.3013 -25
      vertex -60 73.3013 -25
    endloop
  endfacet
  facet normal 0 -0.104526 -0.994522
    outer loop
      vertex -60 19.6044 -48.9074
      vertex -10 30 -50
      vertex -10 19.6044 -48.9074
    endloop
  endfacet
  facet normal -0 -0.104526 -0.994522
    outer loop
      vertex -10 30 -50
      vertex -60 19.6044 -48.9074
      vertex -60 30 -50
    endloop
  endfacet
  facet normal 0 0.669139 -0.743138
    outer loop
      vertex -60 59.3893 -40.4509
      vertex -10 67.1572 -33.4565
      vertex -10 59.3893 -40.4509
    endloop
  endfacet
  facet normal 0 0.669139 -0.743138
    outer loop
      vertex -10 67.1572 -33.4565
      vertex -60 59.3893 -40.4509
      vertex -60 67.1572 -33.4565
    endloop
  endfacet
  facet normal -0 0.499995 0.866028
    outer loop
      vertex -60 59.3893 40.4509
      vertex -10 50.3368 45.6773
      vertex -10 59.3893 40.4509
    endloop
  endfacet
  facet normal 0 0.499995 0.866028
    outer loop
      vertex -10 50.3368 45.6773
      vertex -60 59.3893 40.4509
      vertex -60 50.3368 45.6773
    endloop
  endfacet
  facet normal 0 -0.669135 -0.743141
    outer loop
      vertex -60 -7.15724 -33.4565
      vertex -10 0.610738 -40.4509
      vertex -10 -7.15724 -33.4565
    endloop
  endfacet
  facet normal -0 -0.669135 -0.743141
    outer loop
      vertex -10 0.610738 -40.4509
      vertex -60 -7.15724 -33.4565
      vertex -60 0.610738 -40.4509
    endloop
  endfacet
  facet normal -0 0.669139 0.743138
    outer loop
      vertex -60 67.1572 33.4565
      vertex -10 59.3893 40.4509
      vertex -10 67.1572 33.4565
    endloop
  endfacet
  facet normal 0 0.669139 0.743138
    outer loop
      vertex -10 59.3893 40.4509
      vertex -60 67.1572 33.4565
      vertex -60 59.3893 40.4509
    endloop
  endfacet
  facet normal 0 -0.499998 -0.866026
    outer loop
      vertex -60 0.610738 -40.4509
      vertex -10 9.66317 -45.6773
      vertex -10 0.610738 -40.4509
    endloop
  endfacet
  facet normal -0 -0.499998 -0.866026
    outer loop
      vertex -10 9.66317 -45.6773
      vertex -60 0.610738 -40.4509
      vertex -60 9.66317 -45.6773
    endloop
  endfacet
  facet normal 0 0.809013 0.587791
    outer loop
      vertex -10 73.3013 25
      vertex -60 67.1572 33.4565
      vertex -10 67.1572 33.4565
    endloop
  endfacet
  facet normal 0 0.809013 0.587791
    outer loop
      vertex -60 67.1572 33.4565
      vertex -10 73.3013 25
      vertex -60 73.3013 25
    endloop
  endfacet
  facet normal 1 -0 0
    outer loop
      vertex -10 58.8788 10
      vertex -10 79.7261 5.22642
      vertex -10 77.5528 15.4508
    endloop
  endfacet
  facet normal 1 0 0
    outer loop
      vertex -10 79.7261 5.22642
      vertex -10 58.8788 10
      vertex -10 79.7261 -5.22642
    endloop
  endfacet
  facet normal 1 0 0
    outer loop
      vertex -10 58.8788 15
      vertex -10 77.5528 15.4508
      vertex -10 73.3013 25
    endloop
  endfacet
  facet normal 1 -0 0
    outer loop
      vertex -10 48.7114 0
      vertex -10 79.7261 -5.22642
      vertex -10 58.8788 10
    endloop
  endfacet
  facet normal 1 0 0
    outer loop
      vertex -10 58.8788 15
      vertex -10 73.3013 25
      vertex -10 67.1572 33.4565
    endloop
  endfacet
  facet normal 1 0 0
    outer loop
      vertex -10 79.7261 -5.22642
      vertex -10 48.7114 0
      vertex -10 77.5528 -15.4508
    endloop
  endfacet
  facet normal 1 0 0
    outer loop
      vertex -10 58.8788 15
      vertex -10 67.1572 33.4565
      vertex -10 59.3893 40.4509
    endloop
  endfacet
  facet normal 1 0 0
    outer loop
      vertex -10 77.5528 15.4508
      vertex -10 58.8788 15
      vertex -10 58.8788 10
    endloop
  endfacet
  facet normal 1 0 0
    outer loop
      vertex -10 77.5528 -15.4508
      vertex -10 48.7114 0
      vertex -10 73.3013 -25
    endloop
  endfacet
  facet normal 1 0 0
    outer loop
      vertex -10 48.7114 15
      vertex -10 59.3893 40.4509
      vertex -10 50.3368 45.6773
    endloop
  endfacet
  facet normal 1 0 0
    outer loop
      vertex -10 48.7114 15
      vertex -10 50.3368 45.6773
      vertex -10 48.7114 46.2054
    endloop
  endfacet
  facet normal 1 0 0
    outer loop
      vertex -10 59.3893 40.4509
      vertex -10 48.7114 15
      vertex -10 58.8788 15
    endloop
  endfacet
  facet normal 1 0 0
    outer loop
      vertex -10 73.3013 -25
      vertex -10 48.7114 0
      vertex -10 67.1572 -33.4565
    endloop
  endfacet
  facet normal 1 0 0
    outer loop
      vertex -10 67.1572 -33.4565
      vertex -10 48.7114 0
      vertex -10 59.3893 -40.4509
    endloop
  endfacet
  facet normal 1 0 0
    outer loop
      vertex -10 48.7114 0
      vertex -10 58.8788 10
      vertex -10 48.7114 10
    endloop
  endfacet
  facet normal 1 0 0
    outer loop
      vertex -10 59.3893 -40.4509
      vertex -10 48.7114 0
      vertex -10 50.3368 -45.6773
    endloop
  endfacet
  facet normal 1 0 0
    outer loop
      vertex -10 48.7114 0
      vertex -10 40.3956 -48.9074
      vertex -10 50.3368 -45.6773
    endloop
  endfacet
  facet normal 1 0 0
    outer loop
      vertex -10 48.7114 0
      vertex -10 30 -50
      vertex -10 40.3956 -48.9074
    endloop
  endfacet
  facet normal 1 0 0
    outer loop
      vertex -10 48.7114 0
      vertex -10 19.6044 -48.9074
      vertex -10 30 -50
    endloop
  endfacet
  facet normal 1 0 0
    outer loop
      vertex -10 48.7114 0
      vertex -10 9.66317 -45.6773
      vertex -10 19.6044 -48.9074
    endloop
  endfacet
  facet normal 1 0 0
    outer loop
      vertex -10 48.7114 0
      vertex -10 0.610738 -40.4509
      vertex -10 9.66317 -45.6773
    endloop
  endfacet
  facet normal 1 0 0
    outer loop
      vertex -10 48.7114 0
      vertex -10 -7.15724 -33.4565
      vertex -10 0.610738 -40.4509
    endloop
  endfacet
  facet normal 1 0 0
    outer loop
      vertex -10 48.7114 0
      vertex -10 -13.3013 -25
      vertex -10 -7.15724 -33.4565
    endloop
  endfacet
  facet normal 1 0 0
    outer loop
      vertex -10 48.7114 0
      vertex -10 -17.5528 -15.4508
      vertex -10 -13.3013 -25
    endloop
  endfacet
  facet normal 1 0 0
    outer loop
      vertex -10 -19.7261 -5.22642
      vertex -10 48.7114 0
      vertex -10 -19.7261 0
    endloop
  endfacet
  facet normal 1 0 0
    outer loop
      vertex -10 48.7114 0
      vertex -10 -19.7261 -5.22642
      vertex -10 -17.5528 -15.4508
    endloop
  endfacet
  facet normal 0 -0.309017 -0.951057
    outer loop
      vertex -60 9.66317 -45.6773
      vertex -10 19.6044 -48.9074
      vertex -10 9.66317 -45.6773
    endloop
  endfacet
  facet normal -0 -0.309017 -0.951057
    outer loop
      vertex -10 19.6044 -48.9074
      vertex -60 9.66317 -45.6773
      vertex -60 19.6044 -48.9074
    endloop
  endfacet
  facet normal 0 1 -0
    outer loop
      vertex -10 79.7261 -5.22642
      vertex -60 79.7261 5.22642
      vertex -10 79.7261 5.22642
    endloop
  endfacet
  facet normal 0 1 0
    outer loop
      vertex -60 79.7261 5.22642
      vertex -10 79.7261 -5.22642
      vertex -60 79.7261 -5.22642
    endloop
  endfacet
  facet normal 0 -0.809016 0.587787
    outer loop
      vertex -60 -7.15724 33.4565
      vertex -48.9074 -10.3956 28.9993
      vertex -49.2477 -7.15724 33.4565
    endloop
  endfacet
  facet normal 9.73634e-07 -0.809015 0.587789
    outer loop
      vertex -60 -13.3013 25
      vertex -48.9074 -10.3956 28.9993
      vertex -60 -7.15724 33.4565
    endloop
  endfacet
  facet normal 0 -0.809013 0.58779
    outer loop
      vertex -48.9074 -10.3956 28.9993
      vertex -60 -13.3013 25
      vertex -47.9633 -13.3013 25
    endloop
  endfacet
  facet normal -1 0 0
    outer loop
      vertex -60 77.5528 -15.4508
      vertex -60 79.7261 5.22642
      vertex -60 79.7261 -5.22642
    endloop
  endfacet
  facet normal -1 0 0
    outer loop
      vertex -60 77.5528 -15.4508
      vertex -60 77.5528 15.4508
      vertex -60 79.7261 5.22642
    endloop
  endfacet
  facet normal -1 0 0
    outer loop
      vertex -60 73.3013 -25
      vertex -60 77.5528 15.4508
      vertex -60 77.5528 -15.4508
    endloop
  endfacet
  facet normal -1 0 0
    outer loop
      vertex -60 73.3013 -25
      vertex -60 73.3013 25
      vertex -60 77.5528 15.4508
    endloop
  endfacet
  facet normal -1 0 0
    outer loop
      vertex -60 67.1572 -33.4565
      vertex -60 73.3013 25
      vertex -60 73.3013 -25
    endloop
  endfacet
  facet normal -1 0 0
    outer loop
      vertex -60 67.1572 -33.4565
      vertex -60 67.1572 33.4565
      vertex -60 73.3013 25
    endloop
  endfacet
  facet normal -1 0 0
    outer loop
      vertex -60 59.3893 -40.4509
      vertex -60 67.1572 33.4565
      vertex -60 67.1572 -33.4565
    endloop
  endfacet
  facet normal -1 0 0
    outer loop
      vertex -60 59.3893 -40.4509
      vertex -60 59.3893 40.4509
      vertex -60 67.1572 33.4565
    endloop
  endfacet
  facet normal -1 0 0
    outer loop
      vertex -60 50.3368 -45.6773
      vertex -60 59.3893 40.4509
      vertex -60 59.3893 -40.4509
    endloop
  endfacet
  facet normal -1 0 0
    outer loop
      vertex -60 50.3368 -45.6773
      vertex -60 50.3368 45.6773
      vertex -60 59.3893 40.4509
    endloop
  endfacet
  facet normal -1 0 0
    outer loop
      vertex -60 40.3956 -48.9074
      vertex -60 50.3368 45.6773
      vertex -60 50.3368 -45.6773
    endloop
  endfacet
  facet normal -1 0 0
    outer loop
      vertex -60 40.3956 -48.9074
      vertex -60 40.3956 48.9074
      vertex -60 50.3368 45.6773
    endloop
  endfacet
  facet normal -1 0 0
    outer loop
      vertex -60 30 -50
      vertex -60 40.3956 48.9074
      vertex -60 40.3956 -48.9074
    endloop
  endfacet
  facet normal -1 0 0
    outer loop
      vertex -60 30 -50
      vertex -60 30 50
      vertex -60 40.3956 48.9074
    endloop
  endfacet
  facet normal -1 0 0
    outer loop
      vertex -60 19.6044 -48.9074
      vertex -60 30 50
      vertex -60 30 -50
    endloop
  endfacet
  facet normal -1 0 0
    outer loop
      vertex -60 19.6044 -48.9074
      vertex -60 19.6044 48.9074
      vertex -60 30 50
    endloop
  endfacet
  facet normal -1 0 0
    outer loop
      vertex -60 9.66317 -45.6773
      vertex -60 19.6044 48.9074
      vertex -60 19.6044 -48.9074
    endloop
  endfacet
  facet normal -1 0 0
    outer loop
      vertex -60 9.66317 -45.6773
      vertex -60 9.66317 45.6773
      vertex -60 19.6044 48.9074
    endloop
  endfacet
  facet normal -1 0 0
    outer loop
      vertex -60 0.610738 -40.4509
      vertex -60 9.66317 45.6773
      vertex -60 9.66317 -45.6773
    endloop
  endfacet
  facet normal -1 0 0
    outer loop
      vertex -60 0.610738 -40.4509
      vertex -60 0.610738 40.4509
      vertex -60 9.66317 45.6773
    endloop
  endfacet
  facet normal -1 0 0
    outer loop
      vertex -60 -7.15724 -33.4565
      vertex -60 0.610738 40.4509
      vertex -60 0.610738 -40.4509
    endloop
  endfacet
  facet normal -1 0 0
    outer loop
      vertex -60 -7.15724 -33.4565
      vertex -60 -7.15724 33.4565
      vertex -60 0.610738 40.4509
    endloop
  endfacet
  facet normal -1 0 0
    outer loop
      vertex -60 -13.3013 -25
      vertex -60 -7.15724 33.4565
      vertex -60 -7.15724 -33.4565
    endloop
  endfacet
  facet normal -1 0 0
    outer loop
      vertex -60 -13.3013 -25
      vertex -60 -13.3013 25
      vertex -60 -7.15724 33.4565
    endloop
  endfacet
  facet normal -1 0 0
    outer loop
      vertex -60 -17.5528 -15.4508
      vertex -60 -13.3013 25
      vertex -60 -13.3013 -25
    endloop
  endfacet
  facet normal -1 0 0
    outer loop
      vertex -60 -17.5528 -15.4508
      vertex -60 -17.5528 15.4508
      vertex -60 -13.3013 25
    endloop
  endfacet
  facet normal -1 0 0
    outer loop
      vertex -60 -19.7261 -5.22642
      vertex -60 -17.5528 15.4508
      vertex -60 -17.5528 -15.4508
    endloop
  endfacet
  facet normal -1 0 0
    outer loop
      vertex -60 -17.5528 15.4508
      vertex -60 -19.7261 -5.22642
      vertex -60 -19.7261 5.22642
    endloop
  endfacet
  facet normal 0 0.913548 0.40673
    outer loop
      vertex -10 77.5528 15.4508
      vertex -60 73.3013 25
      vertex -10 73.3013 25
    endloop
  endfacet
  facet normal 0 0.913548 0.40673
    outer loop
      vertex -60 73.3013 25
      vertex -10 77.5528 15.4508
      vertex -60 77.5528 15.4508
    endloop
  endfacet
  facet normal 0 -0.104549 0.99452
    outer loop
      vertex -60 30 50
      vertex -40.4509 29.3893 49.9358
      vertex -39.9009 30 50
    endloop
  endfacet
  facet normal 8.30903e-07 -0.104523 0.994522
    outer loop
      vertex -60 30 50
      vertex -45.6773 20.3368 48.9844
      vertex -40.4509 29.3893 49.9358
    endloop
  endfacet
  facet normal -1.60948e-06 -0.104526 0.994522
    outer loop
      vertex -60 19.6044 48.9074
      vertex -45.6773 20.3368 48.9844
      vertex -60 30 50
    endloop
  endfacet
  facet normal 0 -0.104558 0.994519
    outer loop
      vertex -45.6773 20.3368 48.9844
      vertex -60 19.6044 48.9074
      vertex -45.9152 19.6044 48.9074
    endloop
  endfacet
  facet normal 0 -0.66919 0.743091
    outer loop
      vertex -49.9358 0.610738 40.4509
      vertex -60 0.610738 40.4509
      vertex -50 0 39.9009
    endloop
  endfacet
  facet normal 6.14215e-06 -0.669135 0.743141
    outer loop
      vertex -60 -7.15724 33.4565
      vertex -50 0 39.9009
      vertex -60 0.610738 40.4509
    endloop
  endfacet
  facet normal 0 -0.66913 0.743145
    outer loop
      vertex -50 0 39.9009
      vertex -60 -7.15724 33.4565
      vertex -49.2477 -7.15724 33.4565
    endloop
  endfacet
  facet normal 0 -0.499998 0.866026
    outer loop
      vertex -60 9.66317 45.6773
      vertex -49.9358 0.610738 40.4509
      vertex -48.9844 9.66317 45.6773
    endloop
  endfacet
  facet normal 0 -0.499998 0.866026
    outer loop
      vertex -49.9358 0.610738 40.4509
      vertex -60 9.66317 45.6773
      vertex -60 0.610738 40.4509
    endloop
  endfacet
  facet normal 0 -0.978147 -0.207915
    outer loop
      vertex -60 -17.5528 -15.4508
      vertex -10 -19.7261 -5.22642
      vertex -60 -19.7261 -5.22642
    endloop
  endfacet
  facet normal 0 -0.978147 -0.207915
    outer loop
      vertex -10 -19.7261 -5.22642
      vertex -60 -17.5528 -15.4508
      vertex -10 -17.5528 -15.4508
    endloop
  endfacet
  facet normal -0 0.104507 0.994524
    outer loop
      vertex -60 40.3956 48.9074
      vertex -33.4565 37.1572 49.2477
      vertex -28.9993 40.3956 48.9074
    endloop
  endfacet
  facet normal 3.08082e-06 0.104532 0.994521
    outer loop
      vertex -60 40.3956 48.9074
      vertex -39.9009 30 50
      vertex -33.4565 37.1572 49.2477
    endloop
  endfacet
  facet normal 0 0.104526 0.994522
    outer loop
      vertex -39.9009 30 50
      vertex -60 40.3956 48.9074
      vertex -60 30 50
    endloop
  endfacet
  facet normal 0 0.978147 -0.207915
    outer loop
      vertex -10 77.5528 -15.4508
      vertex -60 79.7261 -5.22642
      vertex -10 79.7261 -5.22642
    endloop
  endfacet
  facet normal 0 0.978147 -0.207915
    outer loop
      vertex -60 79.7261 -5.22642
      vertex -10 77.5528 -15.4508
      vertex -60 77.5528 -15.4508
    endloop
  endfacet
  facet normal 0 0.809013 -0.587791
    outer loop
      vertex -10 67.1572 -33.4565
      vertex -60 73.3013 -25
      vertex -10 73.3013 -25
    endloop
  endfacet
  facet normal 0 0.809013 -0.587791
    outer loop
      vertex -60 73.3013 -25
      vertex -10 67.1572 -33.4565
      vertex -60 67.1572 -33.4565
    endloop
  endfacet
  facet normal 0 0.978147 0.207915
    outer loop
      vertex -10 79.7261 5.22642
      vertex -60 77.5528 15.4508
      vertex -10 77.5528 15.4508
    endloop
  endfacet
  facet normal 0 0.978147 0.207915
    outer loop
      vertex -60 77.5528 15.4508
      vertex -10 79.7261 5.22642
      vertex -60 79.7261 5.22642
    endloop
  endfacet
  facet normal 0 -0.913548 -0.40673
    outer loop
      vertex -60 -13.3013 -25
      vertex -10 -17.5528 -15.4508
      vertex -60 -17.5528 -15.4508
    endloop
  endfacet
  facet normal 0 -0.913548 -0.40673
    outer loop
      vertex -10 -17.5528 -15.4508
      vertex -60 -13.3013 -25
      vertex -10 -13.3013 -25
    endloop
  endfacet
  facet normal 0 -1 0
    outer loop
      vertex -60 -19.7261 5.22642
      vertex -45.8757 -19.7261 0
      vertex -45.8757 -19.7261 5.22642
    endloop
  endfacet
  facet normal 0 -1 0
    outer loop
      vertex -60 -19.7261 -5.22642
      vertex -45.8757 -19.7261 0
      vertex -60 -19.7261 5.22642
    endloop
  endfacet
  facet normal 0 -1 0
    outer loop
      vertex -10 -19.7261 -5.22642
      vertex -45.8757 -19.7261 0
      vertex -60 -19.7261 -5.22642
    endloop
  endfacet
  facet normal 0 -1 0
    outer loop
      vertex -45.8757 -19.7261 0
      vertex -10 -19.7261 -5.22642
      vertex -10 -19.7261 0
    endloop
  endfacet
  facet normal 0 -0.978113 0.208077
    outer loop
      vertex -60 -17.5528 15.4508
      vertex -57.0077 -17.6487 15
      vertex -46.5819 -17.5528 15.4508
    endloop
  endfacet
  facet normal -2.87278e-05 -0.978151 0.207894
    outer loop
      vertex -60 -17.5528 15.4508
      vertex -56.6624 -18.7114 10
      vertex -57.0077 -17.6487 15
    endloop
  endfacet
  facet normal 7.36578e-06 -0.978147 0.207915
    outer loop
      vertex -60 -19.7261 5.22642
      vertex -56.6624 -18.7114 10
      vertex -60 -17.5528 15.4508
    endloop
  endfacet
  facet normal 0 -0.978146 0.20792
    outer loop
      vertex -45.8757 -19.7261 5.22642
      vertex -56.6624 -18.7114 10
      vertex -60 -19.7261 5.22642
    endloop
  endfacet
  facet normal 0 -0.978146 0.20792
    outer loop
      vertex -56.6624 -18.7114 10
      vertex -45.8757 -19.7261 5.22642
      vertex -46.2054 -18.7114 10
    endloop
  endfacet
  facet normal 0 -0.978113 0.208077
    outer loop
      vertex -46.5819 -17.5528 15.4508
      vertex -57.0077 -17.6487 15
      vertex -46.5507 -17.6487 15
    endloop
  endfacet
  facet normal 1.1426e-05 0.309004 0.951061
    outer loop
      vertex -10 50.3368 45.6773
      vertex -15.4508 47.5528 46.5819
      vertex -10 48.7114 46.2054
    endloop
  endfacet
  facet normal -0 0.309024 0.951054
    outer loop
      vertex -60 50.3368 45.6773
      vertex -15.4508 47.5528 46.5819
      vertex -10 50.3368 45.6773
    endloop
  endfacet
  facet normal -3.93217e-07 0.309019 0.951056
    outer loop
      vertex -15.4508 47.5528 46.5819
      vertex -60 50.3368 45.6773
      vertex -25 43.3013 47.9633
    endloop
  endfacet
  facet normal -1.57232e-06 0.309013 0.951058
    outer loop
      vertex -60 50.3368 45.6773
      vertex -28.9993 40.3956 48.9074
      vertex -25 43.3013 47.9633
    endloop
  endfacet
  facet normal 0 0.309018 0.951056
    outer loop
      vertex -28.9993 40.3956 48.9074
      vertex -60 50.3368 45.6773
      vertex -60 40.3956 48.9074
    endloop
  endfacet
  facet normal -0.40673 -0.913548 0
    outer loop
      vertex -25 -43.3013 0
      vertex -15.4508 -47.5528 10
      vertex -25 -43.3013 10
    endloop
  endfacet
  facet normal -0.40673 -0.913548 -0
    outer loop
      vertex -15.4508 -47.5528 10
      vertex -25 -43.3013 0
      vertex -15.4508 -47.5528 0
    endloop
  endfacet
  facet normal -0.95107 -0.308977 0
    outer loop
      vertex -45.8757 -19.7261 0
      vertex -45.6773 -20.3368 0
      vertex -45.8757 -19.7261 5.22642
    endloop
  endfacet
  facet normal -0.951061 -0.309004 -3.83784e-06
    outer loop
      vertex -45.8757 -19.7261 5.22642
      vertex -45.6773 -20.3368 10
      vertex -46.2054 -18.7114 10
    endloop
  endfacet
  facet normal -0.95107 -0.308977 -0
    outer loop
      vertex -45.6773 -20.3368 10
      vertex -45.8757 -19.7261 5.22642
      vertex -45.6773 -20.3368 0
    endloop
  endfacet
  facet normal 0.951056 0.309018 0
    outer loop
      vertex 48.9074 10.3956 10
      vertex 45.6773 20.3368 0
      vertex 45.6773 20.3368 10
    endloop
  endfacet
  facet normal 0.951056 0.309018 0
    outer loop
      vertex 45.6773 20.3368 0
      vertex 48.9074 10.3956 10
      vertex 48.9074 10.3956 0
    endloop
  endfacet
  facet normal 0.994522 0.104526 0
    outer loop
      vertex 50 0 10
      vertex 48.9074 10.3956 0
      vertex 48.9074 10.3956 10
    endloop
  endfacet
  facet normal 0.994522 0.104526 0
    outer loop
      vertex 48.9074 10.3956 0
      vertex 50 0 10
      vertex 50 0 0
    endloop
  endfacet
  facet normal 0.866028 0.499995 0
    outer loop
      vertex 45.6773 20.3368 10
      vertex 40.4509 29.3893 0
      vertex 40.4509 29.3893 10
    endloop
  endfacet
  facet normal 0.866028 0.499995 0
    outer loop
      vertex 40.4509 29.3893 0
      vertex 45.6773 20.3368 10
      vertex 45.6773 20.3368 0
    endloop
  endfacet
  facet normal 0.587791 -0.809013 0
    outer loop
      vertex 25 -43.3013 0
      vertex 33.4565 -37.1572 10
      vertex 25 -43.3013 10
    endloop
  endfacet
  facet normal 0.587791 -0.809013 0
    outer loop
      vertex 33.4565 -37.1572 10
      vertex 25 -43.3013 0
      vertex 33.4565 -37.1572 0
    endloop
  endfacet
  facet normal 0.40673 0.913548 -0
    outer loop
      vertex 25 43.3013 0
      vertex 15.4508 47.5528 10
      vertex 25 43.3013 10
    endloop
  endfacet
  facet normal 0.40673 0.913548 0
    outer loop
      vertex 15.4508 47.5528 10
      vertex 25 43.3013 0
      vertex 15.4508 47.5528 0
    endloop
  endfacet
  facet normal 0.994522 -0.104526 0
    outer loop
      vertex 48.9074 -10.3956 10
      vertex 50 0 0
      vertex 50 0 10
    endloop
  endfacet
  facet normal 0.994522 -0.104526 0
    outer loop
      vertex 50 0 0
      vertex 48.9074 -10.3956 10
      vertex 48.9074 -10.3956 0
    endloop
  endfacet
  facet normal 0.743138 0.669139 0
    outer loop
      vertex 40.4509 29.3893 10
      vertex 33.4565 37.1572 0
      vertex 33.4565 37.1572 10
    endloop
  endfacet
  facet normal 0.743138 0.669139 0
    outer loop
      vertex 33.4565 37.1572 0
      vertex 40.4509 29.3893 10
      vertex 40.4509 29.3893 0
    endloop
  endfacet
  facet normal 0.743138 -0.669139 0
    outer loop
      vertex 33.4565 -37.1572 10
      vertex 40.4509 -29.3893 0
      vertex 40.4509 -29.3893 10
    endloop
  endfacet
  facet normal 0.743138 -0.669139 0
    outer loop
      vertex 40.4509 -29.3893 0
      vertex 33.4565 -37.1572 10
      vertex 33.4565 -37.1572 0
    endloop
  endfacet
  facet normal 0.866028 -0.499995 0
    outer loop
      vertex 40.4509 -29.3893 10
      vertex 45.6773 -20.3368 0
      vertex 45.6773 -20.3368 10
    endloop
  endfacet
  facet normal 0.866028 -0.499995 0
    outer loop
      vertex 45.6773 -20.3368 0
      vertex 40.4509 -29.3893 10
      vertex 40.4509 -29.3893 0
    endloop
  endfacet
  facet normal 0 0 -1
    outer loop
      vertex 50 0 10
      vertex 60 0 10
      vertex 58.6889 -12.4747 10
    endloop
  endfacet
  facet normal 0 0 -1
    outer loop
      vertex 48.9074 -10.3956 10
      vertex 58.6889 -12.4747 10
      vertex 54.8127 -24.4042 10
    endloop
  endfacet
  facet normal 0 0 -1
    outer loop
      vertex 60 0 10
      vertex 50 0 10
      vertex 58.6889 12.4747 10
    endloop
  endfacet
  facet normal 0 0 -1
    outer loop
      vertex 48.9074 10.3956 10
      vertex 58.6889 12.4747 10
      vertex 50 0 10
    endloop
  endfacet
  facet normal 0 0 -1
    outer loop
      vertex 58.6889 -12.4747 10
      vertex 48.9074 -10.3956 10
      vertex 50 0 10
    endloop
  endfacet
  facet normal 0 0 -1
    outer loop
      vertex 45.6773 -20.3368 10
      vertex 54.8127 -24.4042 10
      vertex 48.541 -35.2671 10
    endloop
  endfacet
  facet normal 0 0 -1
    outer loop
      vertex 54.8127 -24.4042 10
      vertex 45.6773 -20.3368 10
      vertex 48.9074 -10.3956 10
    endloop
  endfacet
  facet normal 0 0 -1
    outer loop
      vertex 48.541 -35.2671 10
      vertex 40.4509 -29.3893 10
      vertex 45.6773 -20.3368 10
    endloop
  endfacet
  facet normal 0 0 -1
    outer loop
      vertex 40.1478 -44.5887 10
      vertex 40.4509 -29.3893 10
      vertex 48.541 -35.2671 10
    endloop
  endfacet
  facet normal 0 0 -1
    outer loop
      vertex 40.1478 -44.5887 10
      vertex 33.4565 -37.1572 10
      vertex 40.4509 -29.3893 10
    endloop
  endfacet
  facet normal 0 0 -1
    outer loop
      vertex 30 -51.9615 10
      vertex 33.4565 -37.1572 10
      vertex 40.1478 -44.5887 10
    endloop
  endfacet
  facet normal 0 0 -1
    outer loop
      vertex 30 -51.9615 10
      vertex 25 -43.3013 10
      vertex 33.4565 -37.1572 10
    endloop
  endfacet
  facet normal 0 0 -1
    outer loop
      vertex 18.541 -57.0634 10
      vertex 25 -43.3013 10
      vertex 30 -51.9615 10
    endloop
  endfacet
  facet normal 0 0 -1
    outer loop
      vertex 18.541 -57.0634 10
      vertex 15.4508 -47.5528 10
      vertex 25 -43.3013 10
    endloop
  endfacet
  facet normal 0 0 -1
    outer loop
      vertex 6.27171 -59.6713 10
      vertex 15.4508 -47.5528 10
      vertex 18.541 -57.0634 10
    endloop
  endfacet
  facet normal 0 0 -1
    outer loop
      vertex 6.27171 -59.6713 10
      vertex 5.22642 -49.7261 10
      vertex 15.4508 -47.5528 10
    endloop
  endfacet
  facet normal 0 0 -1
    outer loop
      vertex 6.27171 -59.6713 10
      vertex -5.22642 -49.7261 10
      vertex 5.22642 -49.7261 10
    endloop
  endfacet
  facet normal 0 0 -1
    outer loop
      vertex -6.27171 -59.6713 10
      vertex -5.22642 -49.7261 10
      vertex 6.27171 -59.6713 10
    endloop
  endfacet
  facet normal 0 0 -1
    outer loop
      vertex -6.27171 -59.6713 10
      vertex -15.4508 -47.5528 10
      vertex -5.22642 -49.7261 10
    endloop
  endfacet
  facet normal 0 0 -1
    outer loop
      vertex -18.541 -57.0634 10
      vertex -15.4508 -47.5528 10
      vertex -6.27171 -59.6713 10
    endloop
  endfacet
  facet normal 0 0 -1
    outer loop
      vertex -18.541 -57.0634 10
      vertex -25 -43.3013 10
      vertex -15.4508 -47.5528 10
    endloop
  endfacet
  facet normal 0 0 -1
    outer loop
      vertex -30 -51.9615 10
      vertex -25 -43.3013 10
      vertex -18.541 -57.0634 10
    endloop
  endfacet
  facet normal 0 0 -1
    outer loop
      vertex -30 -51.9615 10
      vertex -33.4565 -37.1572 10
      vertex -25 -43.3013 10
    endloop
  endfacet
  facet normal 0 0 -1
    outer loop
      vertex -40.1478 -44.5887 10
      vertex -33.4565 -37.1572 10
      vertex -30 -51.9615 10
    endloop
  endfacet
  facet normal 0 0 -1
    outer loop
      vertex -40.1478 -44.5887 10
      vertex -40.4509 -29.3893 10
      vertex -33.4565 -37.1572 10
    endloop
  endfacet
  facet normal 0 0 -1
    outer loop
      vertex -48.541 -35.2671 10
      vertex -40.4509 -29.3893 10
      vertex -40.1478 -44.5887 10
    endloop
  endfacet
  facet normal -0 0 -1
    outer loop
      vertex -40.4509 -29.3893 10
      vertex -48.541 -35.2671 10
      vertex -45.6773 -20.3368 10
    endloop
  endfacet
  facet normal 0 0 -1
    outer loop
      vertex -54.8127 -24.4042 10
      vertex -45.6773 -20.3368 10
      vertex -48.541 -35.2671 10
    endloop
  endfacet
  facet normal -0 0 -1
    outer loop
      vertex -45.6773 -20.3368 10
      vertex -54.8127 -24.4042 10
      vertex -46.2054 -18.7114 10
    endloop
  endfacet
  facet normal -0 0 -1
    outer loop
      vertex -46.2054 -18.7114 10
      vertex -54.8127 -24.4042 10
      vertex -56.6624 -18.7114 10
    endloop
  endfacet
  facet normal -0 0 -1
    outer loop
      vertex 58.6889 12.4747 10
      vertex 48.9074 10.3956 10
      vertex 54.8127 24.4042 10
    endloop
  endfacet
  facet normal 0 0 -1
    outer loop
      vertex 45.6773 20.3368 10
      vertex 54.8127 24.4042 10
      vertex 48.9074 10.3956 10
    endloop
  endfacet
  facet normal -0 0 -1
    outer loop
      vertex 54.8127 24.4042 10
      vertex 45.6773 20.3368 10
      vertex 48.541 35.2671 10
    endloop
  endfacet
  facet normal 0 0 -1
    outer loop
      vertex 40.4509 29.3893 10
      vertex 48.541 35.2671 10
      vertex 45.6773 20.3368 10
    endloop
  endfacet
  facet normal 0 0 -1
    outer loop
      vertex 40.4509 29.3893 10
      vertex 40.1478 44.5887 10
      vertex 48.541 35.2671 10
    endloop
  endfacet
  facet normal 0 0 -1
    outer loop
      vertex 33.4565 37.1572 10
      vertex 40.1478 44.5887 10
      vertex 40.4509 29.3893 10
    endloop
  endfacet
  facet normal 0 0 -1
    outer loop
      vertex 33.4565 37.1572 10
      vertex 30 51.9615 10
      vertex 40.1478 44.5887 10
    endloop
  endfacet
  facet normal 0 0 -1
    outer loop
      vertex 25 43.3013 10
      vertex 30 51.9615 10
      vertex 33.4565 37.1572 10
    endloop
  endfacet
  facet normal 0 0 -1
    outer loop
      vertex 25 43.3013 10
      vertex 18.541 57.0634 10
      vertex 30 51.9615 10
    endloop
  endfacet
  facet normal 0 0 -1
    outer loop
      vertex 15.4508 47.5528 10
      vertex 18.541 57.0634 10
      vertex 25 43.3013 10
    endloop
  endfacet
  facet normal 0 0 -1
    outer loop
      vertex 15.4508 47.5528 10
      vertex 6.27171 59.6713 10
      vertex 18.541 57.0634 10
    endloop
  endfacet
  facet normal 0 0 -1
    outer loop
      vertex 5.22642 49.7261 10
      vertex 6.27171 59.6713 10
      vertex 15.4508 47.5528 10
    endloop
  endfacet
  facet normal 0 0 -1
    outer loop
      vertex -5.22642 49.7261 10
      vertex 6.27171 59.6713 10
      vertex 5.22642 49.7261 10
    endloop
  endfacet
  facet normal 0 0 -1
    outer loop
      vertex -5.22642 49.7261 10
      vertex -6.27171 59.6713 10
      vertex 6.27171 59.6713 10
    endloop
  endfacet
  facet normal 0 0 -1
    outer loop
      vertex -10 58.8788 10
      vertex -5.22642 49.7261 10
      vertex -10 48.7114 10
    endloop
  endfacet
  facet normal 0 0 -1
    outer loop
      vertex -5.22642 49.7261 10
      vertex -10 58.8788 10
      vertex -6.27171 59.6713 10
    endloop
  endfacet
  facet normal 0.951056 -0.309018 0
    outer loop
      vertex 45.6773 -20.3368 10
      vertex 48.9074 -10.3956 0
      vertex 48.9074 -10.3956 10
    endloop
  endfacet
  facet normal 0.951056 -0.309018 0
    outer loop
      vertex 48.9074 -10.3956 0
      vertex 45.6773 -20.3368 10
      vertex 45.6773 -20.3368 0
    endloop
  endfacet
  facet normal 0 1 -0
    outer loop
      vertex 5.22642 49.7261 0
      vertex -5.22642 49.7261 10
      vertex 5.22642 49.7261 10
    endloop
  endfacet
  facet normal 0 1 0
    outer loop
      vertex -5.22642 49.7261 10
      vertex 5.22642 49.7261 0
      vertex -5.22642 49.7261 0
    endloop
  endfacet
  facet normal -0.587791 -0.809013 0
    outer loop
      vertex -33.4565 -37.1572 0
      vertex -25 -43.3013 10
      vertex -33.4565 -37.1572 10
    endloop
  endfacet
  facet normal -0.587791 -0.809013 -0
    outer loop
      vertex -25 -43.3013 10
      vertex -33.4565 -37.1572 0
      vertex -25 -43.3013 0
    endloop
  endfacet
  facet normal 0 0 -1
    outer loop
      vertex -10 -19.7261 0
      vertex 50 0 0
      vertex 48.9074 -10.3956 0
    endloop
  endfacet
  facet normal 0 0 -1
    outer loop
      vertex -10 -19.7261 0
      vertex 48.9074 -10.3956 0
      vertex 45.6773 -20.3368 0
    endloop
  endfacet
  facet normal -0 0 -1
    outer loop
      vertex 50 0 0
      vertex -10 -19.7261 0
      vertex 48.9074 10.3956 0
    endloop
  endfacet
  facet normal 0 0 -1
    outer loop
      vertex -10 -19.7261 0
      vertex 45.6773 -20.3368 0
      vertex 40.4509 -29.3893 0
    endloop
  endfacet
  facet normal -0 0 -1
    outer loop
      vertex 48.9074 10.3956 0
      vertex -10 -19.7261 0
      vertex 45.6773 20.3368 0
    endloop
  endfacet
  facet normal 0 0 -1
    outer loop
      vertex -10 -19.7261 0
      vertex 40.4509 -29.3893 0
      vertex 33.4565 -37.1572 0
    endloop
  endfacet
  facet normal -0 0 -1
    outer loop
      vertex 45.6773 20.3368 0
      vertex -10 -19.7261 0
      vertex 40.4509 29.3893 0
    endloop
  endfacet
  facet normal 0 0 -1
    outer loop
      vertex -10 -19.7261 0
      vertex 33.4565 -37.1572 0
      vertex 25 -43.3013 0
    endloop
  endfacet
  facet normal -0 0 -1
    outer loop
      vertex 40.4509 29.3893 0
      vertex -10 -19.7261 0
      vertex 33.4565 37.1572 0
    endloop
  endfacet
  facet normal 0 0 -1
    outer loop
      vertex -10 -19.7261 0
      vertex 25 -43.3013 0
      vertex 15.4508 -47.5528 0
    endloop
  endfacet
  facet normal -0 0 -1
    outer loop
      vertex 33.4565 37.1572 0
      vertex -10 -19.7261 0
      vertex 25 43.3013 0
    endloop
  endfacet
  facet normal 0 0 -1
    outer loop
      vertex -10 -19.7261 0
      vertex 15.4508 -47.5528 0
      vertex 5.22642 -49.7261 0
    endloop
  endfacet
  facet normal -0 0 -1
    outer loop
      vertex 25 43.3013 0
      vertex -10 -19.7261 0
      vertex 15.4508 47.5528 0
    endloop
  endfacet
  facet normal 0 0 -1
    outer loop
      vertex -10 -19.7261 0
      vertex 5.22642 -49.7261 0
      vertex -5.22642 -49.7261 0
    endloop
  endfacet
  facet normal -0 0 -1
    outer loop
      vertex 15.4508 47.5528 0
      vertex -10 -19.7261 0
      vertex 5.22642 49.7261 0
    endloop
  endfacet
  facet normal -0 0 -1
    outer loop
      vertex 5.22642 49.7261 0
      vertex -10 -19.7261 0
      vertex -5.22642 49.7261 0
    endloop
  endfacet
  facet normal 0 0 -1
    outer loop
      vertex -15.4508 -47.5528 0
      vertex -10 -19.7261 0
      vertex -5.22642 -49.7261 0
    endloop
  endfacet
  facet normal 0 0 -1
    outer loop
      vertex -25 -43.3013 0
      vertex -10 -19.7261 0
      vertex -15.4508 -47.5528 0
    endloop
  endfacet
  facet normal 0 0 -1
    outer loop
      vertex -33.4565 -37.1572 0
      vertex -10 -19.7261 0
      vertex -25 -43.3013 0
    endloop
  endfacet
  facet normal 0 0 -1
    outer loop
      vertex -40.4509 -29.3893 0
      vertex -10 -19.7261 0
      vertex -33.4565 -37.1572 0
    endloop
  endfacet
  facet normal 0 0 -1
    outer loop
      vertex -45.6773 -20.3368 0
      vertex -10 -19.7261 0
      vertex -40.4509 -29.3893 0
    endloop
  endfacet
  facet normal -0 0 -1
    outer loop
      vertex -10 -19.7261 0
      vertex -45.6773 -20.3368 0
      vertex -45.8757 -19.7261 0
    endloop
  endfacet
  facet normal 0 0 -1
    outer loop
      vertex -5.22642 49.7261 0
      vertex -10 -19.7261 0
      vertex -10 48.7114 0
    endloop
  endfacet
  facet normal -0.743138 -0.669139 0
    outer loop
      vertex -33.4565 -37.1572 0
      vertex -40.4509 -29.3893 10
      vertex -40.4509 -29.3893 0
    endloop
  endfacet
  facet normal -0.743138 -0.669139 0
    outer loop
      vertex -40.4509 -29.3893 10
      vertex -33.4565 -37.1572 0
      vertex -33.4565 -37.1572 10
    endloop
  endfacet
  facet normal -0.866028 -0.499995 0
    outer loop
      vertex -40.4509 -29.3893 0
      vertex -45.6773 -20.3368 10
      vertex -45.6773 -20.3368 0
    endloop
  endfacet
  facet normal -0.866028 -0.499995 0
    outer loop
      vertex -45.6773 -20.3368 10
      vertex -40.4509 -29.3893 0
      vertex -40.4509 -29.3893 10
    endloop
  endfacet
  facet normal 0.207915 -0.978147 0
    outer loop
      vertex 5.22642 -49.7261 0
      vertex 15.4508 -47.5528 10
      vertex 5.22642 -49.7261 10
    endloop
  endfacet
  facet normal 0.207915 -0.978147 0
    outer loop
      vertex 15.4508 -47.5528 10
      vertex 5.22642 -49.7261 0
      vertex 15.4508 -47.5528 0
    endloop
  endfacet
  facet normal 0.207915 0.978147 -0
    outer loop
      vertex 15.4508 47.5528 0
      vertex 5.22642 49.7261 10
      vertex 15.4508 47.5528 10
    endloop
  endfacet
  facet normal 0.207915 0.978147 0
    outer loop
      vertex 5.22642 49.7261 10
      vertex 15.4508 47.5528 0
      vertex 5.22642 49.7261 0
    endloop
  endfacet
  facet normal 0.587791 0.809013 -0
    outer loop
      vertex 33.4565 37.1572 0
      vertex 25 43.3013 10
      vertex 33.4565 37.1572 10
    endloop
  endfacet
  facet normal 0.587791 0.809013 0
    outer loop
      vertex 25 43.3013 10
      vertex 33.4565 37.1572 0
      vertex 25 43.3013 0
    endloop
  endfacet
  facet normal -0.20792 0.978146 0
    outer loop
      vertex -5.22642 49.7261 0
      vertex -10 48.7114 10
      vertex -5.22642 49.7261 10
    endloop
  endfacet
  facet normal -0.20792 0.978146 0
    outer loop
      vertex -10 48.7114 10
      vertex -5.22642 49.7261 0
      vertex -10 48.7114 0
    endloop
  endfacet
  facet normal 0.40673 -0.913548 0
    outer loop
      vertex 15.4508 -47.5528 0
      vertex 25 -43.3013 10
      vertex 15.4508 -47.5528 10
    endloop
  endfacet
  facet normal 0.40673 -0.913548 0
    outer loop
      vertex 25 -43.3013 10
      vertex 15.4508 -47.5528 0
      vertex 25 -43.3013 0
    endloop
  endfacet
  facet normal 0 -1 0
    outer loop
      vertex -5.22642 -49.7261 0
      vertex 5.22642 -49.7261 10
      vertex -5.22642 -49.7261 10
    endloop
  endfacet
  facet normal 0 -1 -0
    outer loop
      vertex 5.22642 -49.7261 10
      vertex -5.22642 -49.7261 0
      vertex 5.22642 -49.7261 0
    endloop
  endfacet
  facet normal -0.207915 -0.978147 0
    outer loop
      vertex -15.4508 -47.5528 0
      vertex -5.22642 -49.7261 10
      vertex -15.4508 -47.5528 10
    endloop
  endfacet
  facet normal -0.207915 -0.978147 -0
    outer loop
      vertex -5.22642 -49.7261 10
      vertex -15.4508 -47.5528 0
      vertex -5.22642 -49.7261 0
    endloop
  endfacet
  facet normal -0.743145 -0.66913 0
    outer loop
      vertex -40.1478 -44.5887 10
      vertex -48.541 -35.2671 15
      vertex -48.541 -35.2671 10
    endloop
  endfacet
  facet normal -0.743145 -0.66913 0
    outer loop
      vertex -48.541 -35.2671 15
      vertex -40.1478 -44.5887 10
      vertex -40.1478 -44.5887 15
    endloop
  endfacet
  facet normal 0.951055 0.309022 0
    outer loop
      vertex 58.6889 12.4747 15
      vertex 54.8127 24.4042 10
      vertex 54.8127 24.4042 15
    endloop
  endfacet
  facet normal 0.951055 0.309022 0
    outer loop
      vertex 54.8127 24.4042 10
      vertex 58.6889 12.4747 15
      vertex 58.6889 12.4747 10
    endloop
  endfacet
  facet normal 0.994522 0.104525 0
    outer loop
      vertex 60 0 15
      vertex 58.6889 12.4747 10
      vertex 58.6889 12.4747 15
    endloop
  endfacet
  facet normal 0.994522 0.104525 0
    outer loop
      vertex 58.6889 12.4747 10
      vertex 60 0 15
      vertex 60 0 10
    endloop
  endfacet
  facet normal 0.866025 0.5 0
    outer loop
      vertex 54.8127 24.4042 15
      vertex 48.541 35.2671 10
      vertex 48.541 35.2671 15
    endloop
  endfacet
  facet normal 0.866025 0.5 0
    outer loop
      vertex 48.541 35.2671 10
      vertex 54.8127 24.4042 15
      vertex 54.8127 24.4042 10
    endloop
  endfacet
  facet normal 0.951055 -0.309022 0
    outer loop
      vertex 54.8127 -24.4042 15
      vertex 58.6889 -12.4747 10
      vertex 58.6889 -12.4747 15
    endloop
  endfacet
  facet normal 0.951055 -0.309022 0
    outer loop
      vertex 58.6889 -12.4747 10
      vertex 54.8127 -24.4042 15
      vertex 54.8127 -24.4042 10
    endloop
  endfacet
  facet normal 0.587785 -0.809017 0
    outer loop
      vertex 30 -51.9615 10
      vertex 40.1478 -44.5887 15
      vertex 30 -51.9615 15
    endloop
  endfacet
  facet normal 0.587785 -0.809017 0
    outer loop
      vertex 40.1478 -44.5887 15
      vertex 30 -51.9615 10
      vertex 40.1478 -44.5887 10
    endloop
  endfacet
  facet normal 0.743145 -0.66913 0
    outer loop
      vertex 40.1478 -44.5887 15
      vertex 48.541 -35.2671 10
      vertex 48.541 -35.2671 15
    endloop
  endfacet
  facet normal 0.743145 -0.66913 0
    outer loop
      vertex 48.541 -35.2671 10
      vertex 40.1478 -44.5887 15
      vertex 40.1478 -44.5887 10
    endloop
  endfacet
  facet normal 0.994522 -0.104525 0
    outer loop
      vertex 58.6889 -12.4747 15
      vertex 60 0 10
      vertex 60 0 15
    endloop
  endfacet
  facet normal 0.994522 -0.104525 0
    outer loop
      vertex 60 0 10
      vertex 58.6889 -12.4747 15
      vertex 58.6889 -12.4747 10
    endloop
  endfacet
  facet normal -0.406738 -0.913545 0
    outer loop
      vertex -30 -51.9615 10
      vertex -18.541 -57.0634 15
      vertex -30 -51.9615 15
    endloop
  endfacet
  facet normal -0.406738 -0.913545 -0
    outer loop
      vertex -18.541 -57.0634 15
      vertex -30 -51.9615 10
      vertex -18.541 -57.0634 10
    endloop
  endfacet
  facet normal 0.406738 0.913545 -0
    outer loop
      vertex 30 51.9615 10
      vertex 18.541 57.0634 15
      vertex 30 51.9615 15
    endloop
  endfacet
  facet normal 0.406738 0.913545 0
    outer loop
      vertex 18.541 57.0634 15
      vertex 30 51.9615 10
      vertex 18.541 57.0634 10
    endloop
  endfacet
  facet normal 0.743145 0.66913 0
    outer loop
      vertex 48.541 35.2671 15
      vertex 40.1478 44.5887 10
      vertex 40.1478 44.5887 15
    endloop
  endfacet
  facet normal 0.743145 0.66913 0
    outer loop
      vertex 40.1478 44.5887 10
      vertex 48.541 35.2671 15
      vertex 48.541 35.2671 10
    endloop
  endfacet
  facet normal -0.587785 -0.809017 0
    outer loop
      vertex -40.1478 -44.5887 10
      vertex -30 -51.9615 15
      vertex -40.1478 -44.5887 15
    endloop
  endfacet
  facet normal -0.587785 -0.809017 -0
    outer loop
      vertex -30 -51.9615 15
      vertex -40.1478 -44.5887 10
      vertex -30 -51.9615 10
    endloop
  endfacet
  facet normal 0 1 -0
    outer loop
      vertex 6.27171 59.6713 10
      vertex -6.27171 59.6713 15
      vertex 6.27171 59.6713 15
    endloop
  endfacet
  facet normal 0 1 0
    outer loop
      vertex -6.27171 59.6713 15
      vertex 6.27171 59.6713 10
      vertex -6.27171 59.6713 10
    endloop
  endfacet
  facet normal 0.406738 -0.913545 0
    outer loop
      vertex 18.541 -57.0634 10
      vertex 30 -51.9615 15
      vertex 18.541 -57.0634 15
    endloop
  endfacet
  facet normal 0.406738 -0.913545 0
    outer loop
      vertex 30 -51.9615 15
      vertex 18.541 -57.0634 10
      vertex 30 -51.9615 10
    endloop
  endfacet
  facet normal 0.20791 -0.978148 0
    outer loop
      vertex 6.27171 -59.6713 10
      vertex 18.541 -57.0634 15
      vertex 6.27171 -59.6713 15
    endloop
  endfacet
  facet normal 0.20791 -0.978148 0
    outer loop
      vertex 18.541 -57.0634 15
      vertex 6.27171 -59.6713 10
      vertex 18.541 -57.0634 10
    endloop
  endfacet
  facet normal -0.951057 -0.309017 -0
    outer loop
      vertex -54.8127 -24.4042 15
      vertex -56.6624 -18.7114 10
      vertex -54.8127 -24.4042 10
    endloop
  endfacet
  facet normal -0.951056 -0.309018 -1.34166e-06
    outer loop
      vertex -56.6624 -18.7114 10
      vertex -54.8127 -24.4042 15
      vertex -57.0077 -17.6487 15
    endloop
  endfacet
  facet normal 0 0 1
    outer loop
      vertex 50 0 15
      vertex 60 0 15
      vertex 58.6889 12.4747 15
    endloop
  endfacet
  facet normal 0 0 1
    outer loop
      vertex 48.9074 10.3956 15
      vertex 58.6889 12.4747 15
      vertex 54.8127 24.4042 15
    endloop
  endfacet
  facet normal 0 0 1
    outer loop
      vertex 60 0 15
      vertex 50 0 15
      vertex 58.6889 -12.4747 15
    endloop
  endfacet
  facet normal -0 0 1
    outer loop
      vertex 48.9074 -10.3956 15
      vertex 58.6889 -12.4747 15
      vertex 50 0 15
    endloop
  endfacet
  facet normal 0 0 1
    outer loop
      vertex 58.6889 12.4747 15
      vertex 48.9074 10.3956 15
      vertex 50 0 15
    endloop
  endfacet
  facet normal 0 0 1
    outer loop
      vertex 45.6773 20.3368 15
      vertex 54.8127 24.4042 15
      vertex 48.541 35.2671 15
    endloop
  endfacet
  facet normal 0 0 1
    outer loop
      vertex 54.8127 24.4042 15
      vertex 45.6773 20.3368 15
      vertex 48.9074 10.3956 15
    endloop
  endfacet
  facet normal 0 0 1
    outer loop
      vertex 48.541 35.2671 15
      vertex 40.4509 29.3893 15
      vertex 45.6773 20.3368 15
    endloop
  endfacet
  facet normal 0 0 1
    outer loop
      vertex 40.1478 44.5887 15
      vertex 40.4509 29.3893 15
      vertex 48.541 35.2671 15
    endloop
  endfacet
  facet normal 0 0 1
    outer loop
      vertex 40.1478 44.5887 15
      vertex 33.4565 37.1572 15
      vertex 40.4509 29.3893 15
    endloop
  endfacet
  facet normal 0 0 1
    outer loop
      vertex 30 51.9615 15
      vertex 33.4565 37.1572 15
      vertex 40.1478 44.5887 15
    endloop
  endfacet
  facet normal 0 0 1
    outer loop
      vertex 30 51.9615 15
      vertex 25 43.3013 15
      vertex 33.4565 37.1572 15
    endloop
  endfacet
  facet normal 0 0 1
    outer loop
      vertex 18.541 57.0634 15
      vertex 25 43.3013 15
      vertex 30 51.9615 15
    endloop
  endfacet
  facet normal 0 0 1
    outer loop
      vertex 18.541 57.0634 15
      vertex 15.4508 47.5528 15
      vertex 25 43.3013 15
    endloop
  endfacet
  facet normal 0 0 1
    outer loop
      vertex 6.27171 59.6713 15
      vertex 15.4508 47.5528 15
      vertex 18.541 57.0634 15
    endloop
  endfacet
  facet normal 0 0 1
    outer loop
      vertex 6.27171 59.6713 15
      vertex 5.22642 49.7261 15
      vertex 15.4508 47.5528 15
    endloop
  endfacet
  facet normal 0 0 1
    outer loop
      vertex 6.27171 59.6713 15
      vertex -5.22642 49.7261 15
      vertex 5.22642 49.7261 15
    endloop
  endfacet
  facet normal -0 0 1
    outer loop
      vertex -6.27171 59.6713 15
      vertex -5.22642 49.7261 15
      vertex 6.27171 59.6713 15
    endloop
  endfacet
  facet normal -0 0 1
    outer loop
      vertex -10 58.8788 15
      vertex -5.22642 49.7261 15
      vertex -6.27171 59.6713 15
    endloop
  endfacet
  facet normal 0 0 1
    outer loop
      vertex -5.22642 49.7261 15
      vertex -10 58.8788 15
      vertex -10 48.7114 15
    endloop
  endfacet
  facet normal 0 0 1
    outer loop
      vertex 58.6889 -12.4747 15
      vertex 48.9074 -10.3956 15
      vertex 54.8127 -24.4042 15
    endloop
  endfacet
  facet normal -0 0 1
    outer loop
      vertex 45.6773 -20.3368 15
      vertex 54.8127 -24.4042 15
      vertex 48.9074 -10.3956 15
    endloop
  endfacet
  facet normal 0 0 1
    outer loop
      vertex 54.8127 -24.4042 15
      vertex 45.6773 -20.3368 15
      vertex 48.541 -35.2671 15
    endloop
  endfacet
  facet normal -0 0 1
    outer loop
      vertex 40.4509 -29.3893 15
      vertex 48.541 -35.2671 15
      vertex 45.6773 -20.3368 15
    endloop
  endfacet
  facet normal 0 0 1
    outer loop
      vertex 40.4509 -29.3893 15
      vertex 40.1478 -44.5887 15
      vertex 48.541 -35.2671 15
    endloop
  endfacet
  facet normal -0 0 1
    outer loop
      vertex 33.4565 -37.1572 15
      vertex 40.1478 -44.5887 15
      vertex 40.4509 -29.3893 15
    endloop
  endfacet
  facet normal 0 0 1
    outer loop
      vertex 33.4565 -37.1572 15
      vertex 30 -51.9615 15
      vertex 40.1478 -44.5887 15
    endloop
  endfacet
  facet normal -0 0 1
    outer loop
      vertex 25 -43.3013 15
      vertex 30 -51.9615 15
      vertex 33.4565 -37.1572 15
    endloop
  endfacet
  facet normal 0 0 1
    outer loop
      vertex 25 -43.3013 15
      vertex 18.541 -57.0634 15
      vertex 30 -51.9615 15
    endloop
  endfacet
  facet normal -0 0 1
    outer loop
      vertex 15.4508 -47.5528 15
      vertex 18.541 -57.0634 15
      vertex 25 -43.3013 15
    endloop
  endfacet
  facet normal 0 0 1
    outer loop
      vertex 15.4508 -47.5528 15
      vertex 6.27171 -59.6713 15
      vertex 18.541 -57.0634 15
    endloop
  endfacet
  facet normal -0 0 1
    outer loop
      vertex 5.22642 -49.7261 15
      vertex 6.27171 -59.6713 15
      vertex 15.4508 -47.5528 15
    endloop
  endfacet
  facet normal -0 0 1
    outer loop
      vertex -5.22642 -49.7261 15
      vertex 6.27171 -59.6713 15
      vertex 5.22642 -49.7261 15
    endloop
  endfacet
  facet normal 0 0 1
    outer loop
      vertex -5.22642 -49.7261 15
      vertex -6.27171 -59.6713 15
      vertex 6.27171 -59.6713 15
    endloop
  endfacet
  facet normal 0 0 1
    outer loop
      vertex -15.4508 -47.5528 15
      vertex -6.27171 -59.6713 15
      vertex -5.22642 -49.7261 15
    endloop
  endfacet
  facet normal 0 0 1
    outer loop
      vertex -15.4508 -47.5528 15
      vertex -18.541 -57.0634 15
      vertex -6.27171 -59.6713 15
    endloop
  endfacet
  facet normal 0 0 1
    outer loop
      vertex -25 -43.3013 15
      vertex -18.541 -57.0634 15
      vertex -15.4508 -47.5528 15
    endloop
  endfacet
  facet normal 0 0 1
    outer loop
      vertex -25 -43.3013 15
      vertex -30 -51.9615 15
      vertex -18.541 -57.0634 15
    endloop
  endfacet
  facet normal 0 0 1
    outer loop
      vertex -33.4565 -37.1572 15
      vertex -30 -51.9615 15
      vertex -25 -43.3013 15
    endloop
  endfacet
  facet normal 0 0 1
    outer loop
      vertex -33.4565 -37.1572 15
      vertex -40.1478 -44.5887 15
      vertex -30 -51.9615 15
    endloop
  endfacet
  facet normal 0 0 1
    outer loop
      vertex -40.4509 -29.3893 15
      vertex -40.1478 -44.5887 15
      vertex -33.4565 -37.1572 15
    endloop
  endfacet
  facet normal 0 0 1
    outer loop
      vertex -48.541 -35.2671 15
      vertex -40.4509 -29.3893 15
      vertex -45.6773 -20.3368 15
    endloop
  endfacet
  facet normal 0 0 1
    outer loop
      vertex -54.8127 -24.4042 15
      vertex -45.6773 -20.3368 15
      vertex -46.5507 -17.6487 15
    endloop
  endfacet
  facet normal 0 0 1
    outer loop
      vertex -40.4509 -29.3893 15
      vertex -48.541 -35.2671 15
      vertex -40.1478 -44.5887 15
    endloop
  endfacet
  facet normal 0 0 1
    outer loop
      vertex -45.6773 -20.3368 15
      vertex -54.8127 -24.4042 15
      vertex -48.541 -35.2671 15
    endloop
  endfacet
  facet normal 0 -0 1
    outer loop
      vertex -54.8127 -24.4042 15
      vertex -46.5507 -17.6487 15
      vertex -57.0077 -17.6487 15
    endloop
  endfacet
  facet normal -0.20791 -0.978148 0
    outer loop
      vertex -18.541 -57.0634 10
      vertex -6.27171 -59.6713 15
      vertex -18.541 -57.0634 15
    endloop
  endfacet
  facet normal -0.20791 -0.978148 -0
    outer loop
      vertex -6.27171 -59.6713 15
      vertex -18.541 -57.0634 10
      vertex -6.27171 -59.6713 10
    endloop
  endfacet
  facet normal 0.20791 0.978148 -0
    outer loop
      vertex 18.541 57.0634 10
      vertex 6.27171 59.6713 15
      vertex 18.541 57.0634 15
    endloop
  endfacet
  facet normal 0.20791 0.978148 0
    outer loop
      vertex 6.27171 59.6713 15
      vertex 18.541 57.0634 10
      vertex 6.27171 59.6713 10
    endloop
  endfacet
  facet normal -0.866025 -0.5 0
    outer loop
      vertex -48.541 -35.2671 10
      vertex -54.8127 -24.4042 15
      vertex -54.8127 -24.4042 10
    endloop
  endfacet
  facet normal -0.866025 -0.5 0
    outer loop
      vertex -54.8127 -24.4042 15
      vertex -48.541 -35.2671 10
      vertex -48.541 -35.2671 15
    endloop
  endfacet
  facet normal 0.866025 -0.5 0
    outer loop
      vertex 48.541 -35.2671 15
      vertex 54.8127 -24.4042 10
      vertex 54.8127 -24.4042 15
    endloop
  endfacet
  facet normal 0.866025 -0.5 0
    outer loop
      vertex 54.8127 -24.4042 10
      vertex 48.541 -35.2671 15
      vertex 48.541 -35.2671 10
    endloop
  endfacet
  facet normal 0.587785 0.809017 -0
    outer loop
      vertex 40.1478 44.5887 10
      vertex 30 51.9615 15
      vertex 40.1478 44.5887 15
    endloop
  endfacet
  facet normal 0.587785 0.809017 0
    outer loop
      vertex 30 51.9615 15
      vertex 40.1478 44.5887 10
      vertex 30 51.9615 10
    endloop
  endfacet
  facet normal -0.207919 0.978146 0
    outer loop
      vertex -6.27171 59.6713 10
      vertex -10 58.8788 15
      vertex -6.27171 59.6713 15
    endloop
  endfacet
  facet normal -0.207919 0.978146 0
    outer loop
      vertex -10 58.8788 15
      vertex -6.27171 59.6713 10
      vertex -10 58.8788 10
    endloop
  endfacet
  facet normal 0 -1 0
    outer loop
      vertex -6.27171 -59.6713 10
      vertex 6.27171 -59.6713 15
      vertex -6.27171 -59.6713 15
    endloop
  endfacet
  facet normal 0 -1 -0
    outer loop
      vertex 6.27171 -59.6713 15
      vertex -6.27171 -59.6713 10
      vertex 6.27171 -59.6713 10
    endloop
  endfacet
  facet normal -0.40673 -0.913548 0
    outer loop
      vertex -25 -43.3013 15
      vertex -15.4508 -47.5528 65
      vertex -25 -43.3013 65
    endloop
  endfacet
  facet normal -0.40673 -0.913548 -0
    outer loop
      vertex -15.4508 -47.5528 65
      vertex -25 -43.3013 15
      vertex -15.4508 -47.5528 15
    endloop
  endfacet
  facet normal -0.951058 -0.309013 1.41409e-06
    outer loop
      vertex -45.6773 -20.3368 65
      vertex -48.9074 -10.3956 28.9993
      vertex -47.9633 -13.3013 25
    endloop
  endfacet
  facet normal -0.951054 -0.309025 3.44283e-06
    outer loop
      vertex -45.6773 -20.3368 15
      vertex -47.9633 -13.3013 25
      vertex -46.5819 -17.5528 15.4508
    endloop
  endfacet
  facet normal -0.951058 -0.309012 -8.60649e-05
    outer loop
      vertex -45.6773 -20.3368 15
      vertex -46.5819 -17.5528 15.4508
      vertex -46.5507 -17.6487 15
    endloop
  endfacet
  facet normal -0.951055 -0.30902 0
    outer loop
      vertex -47.9633 -13.3013 25
      vertex -45.6773 -20.3368 15
      vertex -45.6773 -20.3368 65
    endloop
  endfacet
  facet normal -0.951056 -0.309018 0
    outer loop
      vertex -48.9074 -10.3956 28.9993
      vertex -45.6773 -20.3368 65
      vertex -48.9074 -10.3956 65
    endloop
  endfacet
  facet normal 0.951056 0.309018 0
    outer loop
      vertex 48.9074 10.3956 65
      vertex 45.6773 20.3368 15
      vertex 45.6773 20.3368 65
    endloop
  endfacet
  facet normal 0.951056 0.309018 0
    outer loop
      vertex 45.6773 20.3368 15
      vertex 48.9074 10.3956 65
      vertex 48.9074 10.3956 15
    endloop
  endfacet
  facet normal 0.994522 0.104526 0
    outer loop
      vertex 50 0 65
      vertex 48.9074 10.3956 15
      vertex 48.9074 10.3956 65
    endloop
  endfacet
  facet normal 0.994522 0.104526 0
    outer loop
      vertex 48.9074 10.3956 15
      vertex 50 0 65
      vertex 50 0 15
    endloop
  endfacet
  facet normal 0.866028 0.499995 0
    outer loop
      vertex 45.6773 20.3368 65
      vertex 40.4509 29.3893 15
      vertex 40.4509 29.3893 65
    endloop
  endfacet
  facet normal 0.866028 0.499995 0
    outer loop
      vertex 40.4509 29.3893 15
      vertex 45.6773 20.3368 65
      vertex 45.6773 20.3368 15
    endloop
  endfacet
  facet normal 0.587791 -0.809013 0
    outer loop
      vertex 25 -43.3013 15
      vertex 33.4565 -37.1572 65
      vertex 25 -43.3013 65
    endloop
  endfacet
  facet normal 0.587791 -0.809013 0
    outer loop
      vertex 33.4565 -37.1572 65
      vertex 25 -43.3013 15
      vertex 33.4565 -37.1572 15
    endloop
  endfacet
  facet normal 0.40673 0.913548 -0
    outer loop
      vertex 25 43.3013 15
      vertex 15.4508 47.5528 65
      vertex 25 43.3013 65
    endloop
  endfacet
  facet normal 0.40673 0.913548 0
    outer loop
      vertex 15.4508 47.5528 65
      vertex 25 43.3013 15
      vertex 15.4508 47.5528 15
    endloop
  endfacet
  facet normal 0.994522 -0.104526 0
    outer loop
      vertex 48.9074 -10.3956 65
      vertex 50 0 15
      vertex 50 0 65
    endloop
  endfacet
  facet normal 0.994522 -0.104526 0
    outer loop
      vertex 50 0 15
      vertex 48.9074 -10.3956 65
      vertex 48.9074 -10.3956 15
    endloop
  endfacet
  facet normal 0.743138 0.669139 0
    outer loop
      vertex 40.4509 29.3893 65
      vertex 33.4565 37.1572 15
      vertex 33.4565 37.1572 65
    endloop
  endfacet
  facet normal 0.743138 0.669139 0
    outer loop
      vertex 33.4565 37.1572 15
      vertex 40.4509 29.3893 65
      vertex 40.4509 29.3893 15
    endloop
  endfacet
  facet normal -0.866028 0.499995 0
    outer loop
      vertex -45.6773 20.3368 65
      vertex -40.4509 29.3893 49.9358
      vertex -45.6773 20.3368 48.9844
    endloop
  endfacet
  facet normal -0.866028 0.499995 0
    outer loop
      vertex -40.4509 29.3893 49.9358
      vertex -45.6773 20.3368 65
      vertex -40.4509 29.3893 65
    endloop
  endfacet
  facet normal 0.743138 -0.669139 0
    outer loop
      vertex 33.4565 -37.1572 65
      vertex 40.4509 -29.3893 15
      vertex 40.4509 -29.3893 65
    endloop
  endfacet
  facet normal 0.743138 -0.669139 0
    outer loop
      vertex 40.4509 -29.3893 15
      vertex 33.4565 -37.1572 65
      vertex 33.4565 -37.1572 15
    endloop
  endfacet
  facet normal -0.743143 0.669132 0
    outer loop
      vertex -39.9009 30 50
      vertex -33.4565 37.1572 65
      vertex -33.4565 37.1572 49.2477
    endloop
  endfacet
  facet normal -0.74307 0.669213 0
    outer loop
      vertex -40.4509 29.3893 65
      vertex -39.9009 30 50
      vertex -40.4509 29.3893 49.9358
    endloop
  endfacet
  facet normal -0.743138 0.669139 -5.51633e-06
    outer loop
      vertex -39.9009 30 50
      vertex -40.4509 29.3893 65
      vertex -33.4565 37.1572 65
    endloop
  endfacet
  facet normal 0.866028 -0.499995 0
    outer loop
      vertex 40.4509 -29.3893 65
      vertex 45.6773 -20.3368 15
      vertex 45.6773 -20.3368 65
    endloop
  endfacet
  facet normal 0.866028 -0.499995 0
    outer loop
      vertex 45.6773 -20.3368 15
      vertex 40.4509 -29.3893 65
      vertex 40.4509 -29.3893 15
    endloop
  endfacet
  facet normal -0.587791 0.809013 2.79882e-07
    outer loop
      vertex -28.9993 40.3956 48.9074
      vertex -33.4565 37.1572 65
      vertex -25 43.3013 65
    endloop
  endfacet
  facet normal -0.587792 0.809012 0
    outer loop
      vertex -33.4565 37.1572 65
      vertex -28.9993 40.3956 48.9074
      vertex -33.4565 37.1572 49.2477
    endloop
  endfacet
  facet normal -0.58779 0.809013 0
    outer loop
      vertex -28.9993 40.3956 48.9074
      vertex -25 43.3013 65
      vertex -25 43.3013 47.9633
    endloop
  endfacet
  facet normal 0 0 1
    outer loop
      vertex 48.9074 10.3956 65
      vertex 48.9074 -10.3956 65
      vertex 50 0 65
    endloop
  endfacet
  facet normal 0 0 1
    outer loop
      vertex 45.6773 20.3368 65
      vertex 48.9074 -10.3956 65
      vertex 48.9074 10.3956 65
    endloop
  endfacet
  facet normal 0 0 1
    outer loop
      vertex 45.6773 20.3368 65
      vertex 45.6773 -20.3368 65
      vertex 48.9074 -10.3956 65
    endloop
  endfacet
  facet normal 0 0 1
    outer loop
      vertex 40.4509 29.3893 65
      vertex 45.6773 -20.3368 65
      vertex 45.6773 20.3368 65
    endloop
  endfacet
  facet normal 0 0 1
    outer loop
      vertex 40.4509 29.3893 65
      vertex 40.4509 -29.3893 65
      vertex 45.6773 -20.3368 65
    endloop
  endfacet
  facet normal 0 0 1
    outer loop
      vertex 33.4565 37.1572 65
      vertex 40.4509 -29.3893 65
      vertex 40.4509 29.3893 65
    endloop
  endfacet
  facet normal 0 0 1
    outer loop
      vertex 33.4565 37.1572 65
      vertex 33.4565 -37.1572 65
      vertex 40.4509 -29.3893 65
    endloop
  endfacet
  facet normal 0 0 1
    outer loop
      vertex 25 43.3013 65
      vertex 33.4565 -37.1572 65
      vertex 33.4565 37.1572 65
    endloop
  endfacet
  facet normal 0 0 1
    outer loop
      vertex 25 43.3013 65
      vertex 25 -43.3013 65
      vertex 33.4565 -37.1572 65
    endloop
  endfacet
  facet normal 0 0 1
    outer loop
      vertex 15.4508 47.5528 65
      vertex 25 -43.3013 65
      vertex 25 43.3013 65
    endloop
  endfacet
  facet normal 0 0 1
    outer loop
      vertex 15.4508 47.5528 65
      vertex 15.4508 -47.5528 65
      vertex 25 -43.3013 65
    endloop
  endfacet
  facet normal 0 0 1
    outer loop
      vertex 5.22642 49.7261 65
      vertex 15.4508 -47.5528 65
      vertex 15.4508 47.5528 65
    endloop
  endfacet
  facet normal 0 0 1
    outer loop
      vertex 5.22642 49.7261 65
      vertex 5.22642 -49.7261 65
      vertex 15.4508 -47.5528 65
    endloop
  endfacet
  facet normal -0 0 1
    outer loop
      vertex -5.22642 49.7261 65
      vertex 5.22642 -49.7261 65
      vertex 5.22642 49.7261 65
    endloop
  endfacet
  facet normal 0 0 1
    outer loop
      vertex -5.22642 49.7261 65
      vertex -5.22642 -49.7261 65
      vertex 5.22642 -49.7261 65
    endloop
  endfacet
  facet normal -0 0 1
    outer loop
      vertex -15.4508 47.5528 65
      vertex -5.22642 -49.7261 65
      vertex -5.22642 49.7261 65
    endloop
  endfacet
  facet normal 0 0 1
    outer loop
      vertex -15.4508 47.5528 65
      vertex -15.4508 -47.5528 65
      vertex -5.22642 -49.7261 65
    endloop
  endfacet
  facet normal -0 0 1
    outer loop
      vertex -25 43.3013 65
      vertex -15.4508 -47.5528 65
      vertex -15.4508 47.5528 65
    endloop
  endfacet
  facet normal 0 0 1
    outer loop
      vertex -25 43.3013 65
      vertex -25 -43.3013 65
      vertex -15.4508 -47.5528 65
    endloop
  endfacet
  facet normal -0 0 1
    outer loop
      vertex -33.4565 37.1572 65
      vertex -25 -43.3013 65
      vertex -25 43.3013 65
    endloop
  endfacet
  facet normal 0 0 1
    outer loop
      vertex -33.4565 37.1572 65
      vertex -33.4565 -37.1572 65
      vertex -25 -43.3013 65
    endloop
  endfacet
  facet normal -0 0 1
    outer loop
      vertex -40.4509 29.3893 65
      vertex -33.4565 -37.1572 65
      vertex -33.4565 37.1572 65
    endloop
  endfacet
  facet normal 0 0 1
    outer loop
      vertex -40.4509 29.3893 65
      vertex -40.4509 -29.3893 65
      vertex -33.4565 -37.1572 65
    endloop
  endfacet
  facet normal -0 0 1
    outer loop
      vertex -45.6773 20.3368 65
      vertex -40.4509 -29.3893 65
      vertex -40.4509 29.3893 65
    endloop
  endfacet
  facet normal 0 0 1
    outer loop
      vertex -45.6773 20.3368 65
      vertex -45.6773 -20.3368 65
      vertex -40.4509 -29.3893 65
    endloop
  endfacet
  facet normal -0 0 1
    outer loop
      vertex -48.9074 10.3956 65
      vertex -45.6773 -20.3368 65
      vertex -45.6773 20.3368 65
    endloop
  endfacet
  facet normal 0 0 1
    outer loop
      vertex -48.9074 10.3956 65
      vertex -48.9074 -10.3956 65
      vertex -45.6773 -20.3368 65
    endloop
  endfacet
  facet normal 0 -0 1
    outer loop
      vertex -48.9074 -10.3956 65
      vertex -48.9074 10.3956 65
      vertex -50 0 65
    endloop
  endfacet
  facet normal 0.951056 -0.309018 0
    outer loop
      vertex 45.6773 -20.3368 65
      vertex 48.9074 -10.3956 15
      vertex 48.9074 -10.3956 65
    endloop
  endfacet
  facet normal 0.951056 -0.309018 0
    outer loop
      vertex 48.9074 -10.3956 15
      vertex 45.6773 -20.3368 65
      vertex 45.6773 -20.3368 15
    endloop
  endfacet
  facet normal 0 1 -0
    outer loop
      vertex 5.22642 49.7261 15
      vertex -5.22642 49.7261 65
      vertex 5.22642 49.7261 65
    endloop
  endfacet
  facet normal 0 1 0
    outer loop
      vertex -5.22642 49.7261 65
      vertex 5.22642 49.7261 15
      vertex -5.22642 49.7261 15
    endloop
  endfacet
  facet normal -0.587791 -0.809013 0
    outer loop
      vertex -33.4565 -37.1572 15
      vertex -25 -43.3013 65
      vertex -33.4565 -37.1572 65
    endloop
  endfacet
  facet normal -0.587791 -0.809013 -0
    outer loop
      vertex -25 -43.3013 65
      vertex -33.4565 -37.1572 15
      vertex -25 -43.3013 15
    endloop
  endfacet
  facet normal -0.866028 -0.499995 0
    outer loop
      vertex -40.4509 -29.3893 15
      vertex -45.6773 -20.3368 65
      vertex -45.6773 -20.3368 15
    endloop
  endfacet
  facet normal -0.866028 -0.499995 0
    outer loop
      vertex -45.6773 -20.3368 65
      vertex -40.4509 -29.3893 15
      vertex -40.4509 -29.3893 65
    endloop
  endfacet
  facet normal -0.40673 0.913548 0
    outer loop
      vertex -15.4508 47.5528 65
      vertex -25 43.3013 47.9633
      vertex -25 43.3013 65
    endloop
  endfacet
  facet normal -0.40673 0.913548 0
    outer loop
      vertex -25 43.3013 47.9633
      vertex -15.4508 47.5528 65
      vertex -15.4508 47.5528 46.5819
    endloop
  endfacet
  facet normal -0.994521 -0.104532 -2.45756e-06
    outer loop
      vertex -48.9074 -10.3956 65
      vertex -50 0 39.9009
      vertex -49.2477 -7.15724 33.4565
    endloop
  endfacet
  facet normal -0.994524 -0.104509 -0
    outer loop
      vertex -48.9074 -10.3956 65
      vertex -49.2477 -7.15724 33.4565
      vertex -48.9074 -10.3956 28.9993
    endloop
  endfacet
  facet normal -0.994522 -0.104526 0
    outer loop
      vertex -50 0 39.9009
      vertex -48.9074 -10.3956 65
      vertex -50 0 65
    endloop
  endfacet
  facet normal -0.743138 -0.669139 0
    outer loop
      vertex -33.4565 -37.1572 15
      vertex -40.4509 -29.3893 65
      vertex -40.4509 -29.3893 15
    endloop
  endfacet
  facet normal -0.743138 -0.669139 0
    outer loop
      vertex -40.4509 -29.3893 65
      vertex -33.4565 -37.1572 15
      vertex -33.4565 -37.1572 65
    endloop
  endfacet
  facet normal 0.207915 -0.978147 0
    outer loop
      vertex 5.22642 -49.7261 15
      vertex 15.4508 -47.5528 65
      vertex 5.22642 -49.7261 65
    endloop
  endfacet
  facet normal 0.207915 -0.978147 0
    outer loop
      vertex 15.4508 -47.5528 65
      vertex 5.22642 -49.7261 15
      vertex 15.4508 -47.5528 15
    endloop
  endfacet
  facet normal -0.994519 0.104553 0
    outer loop
      vertex -48.9844 9.66317 45.6773
      vertex -48.9074 10.3956 65
      vertex -48.9074 10.3956 45.9152
    endloop
  endfacet
  facet normal -0.994522 0.104523 -4.85308e-07
    outer loop
      vertex -50 0 65
      vertex -48.9844 9.66317 45.6773
      vertex -49.9358 0.610738 40.4509
    endloop
  endfacet
  facet normal -0.99452 0.104543 0
    outer loop
      vertex -50 0 65
      vertex -49.9358 0.610738 40.4509
      vertex -50 0 39.9009
    endloop
  endfacet
  facet normal -0.994522 0.104526 1.03072e-06
    outer loop
      vertex -48.9844 9.66317 45.6773
      vertex -50 0 65
      vertex -48.9074 10.3956 65
    endloop
  endfacet
  facet normal 0.207915 0.978147 -0
    outer loop
      vertex 15.4508 47.5528 15
      vertex 5.22642 49.7261 65
      vertex 15.4508 47.5528 65
    endloop
  endfacet
  facet normal 0.207915 0.978147 0
    outer loop
      vertex 5.22642 49.7261 65
      vertex 15.4508 47.5528 15
      vertex 5.22642 49.7261 15
    endloop
  endfacet
  facet normal 0.587791 0.809013 -0
    outer loop
      vertex 33.4565 37.1572 15
      vertex 25 43.3013 65
      vertex 33.4565 37.1572 65
    endloop
  endfacet
  facet normal 0.587791 0.809013 0
    outer loop
      vertex 25 43.3013 65
      vertex 33.4565 37.1572 15
      vertex 25 43.3013 15
    endloop
  endfacet
  facet normal -0.207915 0.978147 -1.30804e-06
    outer loop
      vertex -10 48.7114 46.2054
      vertex -15.4508 47.5528 65
      vertex -5.22642 49.7261 65
    endloop
  endfacet
  facet normal -0.207911 0.978148 0
    outer loop
      vertex -15.4508 47.5528 65
      vertex -10 48.7114 46.2054
      vertex -15.4508 47.5528 46.5819
    endloop
  endfacet
  facet normal -0.20792 0.978146 0
    outer loop
      vertex -5.22642 49.7261 15
      vertex -10 48.7114 46.2054
      vertex -5.22642 49.7261 65
    endloop
  endfacet
  facet normal -0.20792 0.978146 0
    outer loop
      vertex -10 48.7114 46.2054
      vertex -5.22642 49.7261 15
      vertex -10 48.7114 15
    endloop
  endfacet
  facet normal 0.40673 -0.913548 0
    outer loop
      vertex 15.4508 -47.5528 15
      vertex 25 -43.3013 65
      vertex 15.4508 -47.5528 65
    endloop
  endfacet
  facet normal 0.40673 -0.913548 0
    outer loop
      vertex 25 -43.3013 65
      vertex 15.4508 -47.5528 15
      vertex 25 -43.3013 15
    endloop
  endfacet
  facet normal 0 -1 0
    outer loop
      vertex -5.22642 -49.7261 15
      vertex 5.22642 -49.7261 65
      vertex -5.22642 -49.7261 65
    endloop
  endfacet
  facet normal 0 -1 -0
    outer loop
      vertex 5.22642 -49.7261 65
      vertex -5.22642 -49.7261 15
      vertex 5.22642 -49.7261 15
    endloop
  endfacet
  facet normal -0.207915 -0.978147 0
    outer loop
      vertex -15.4508 -47.5528 15
      vertex -5.22642 -49.7261 65
      vertex -15.4508 -47.5528 65
    endloop
  endfacet
  facet normal -0.207915 -0.978147 -0
    outer loop
      vertex -5.22642 -49.7261 65
      vertex -15.4508 -47.5528 15
      vertex -5.22642 -49.7261 15
    endloop
  endfacet
  facet normal -0.951084 0.308933 0
    outer loop
      vertex -45.9152 19.6044 48.9074
      vertex -45.6773 20.3368 65
      vertex -45.6773 20.3368 48.9844
    endloop
  endfacet
  facet normal -0.951054 0.309024 0
    outer loop
      vertex -48.9074 10.3956 65
      vertex -45.9152 19.6044 48.9074
      vertex -48.9074 10.3956 45.9152
    endloop
  endfacet
  facet normal -0.951056 0.309018 -4.2432e-06
    outer loop
      vertex -45.9152 19.6044 48.9074
      vertex -48.9074 10.3956 65
      vertex -45.6773 20.3368 65
    endloop
  endfacet
endsolid OpenSCAD_Model
